<?xml version="1.0" encoding="UTF-8" standalone="no"?>
<!-- Generator: Adobe Illustrator 22.1.0, SVG Export Plug-In . SVG Version: 6.00 Build 0)  -->

<svg
   xmlns:dc="http://purl.org/dc/elements/1.1/"
   xmlns:cc="http://creativecommons.org/ns#"
   xmlns:rdf="http://www.w3.org/1999/02/22-rdf-syntax-ns#"
   xmlns:svg="http://www.w3.org/2000/svg"
   xmlns="http://www.w3.org/2000/svg"
   xmlns:sodipodi="http://sodipodi.sourceforge.net/DTD/sodipodi-0.dtd"
   xmlns:inkscape="http://www.inkscape.org/namespaces/inkscape"
   version="1.1"
   x="0px"
   y="0px"
   viewBox="0 0 1000 1000"
   xml:space="preserve"
   id="svg104"
   sodipodi:docname="Guns.svg"
   inkscape:version="0.92.2 (5c3e80d, 2017-08-06)"
   width="1000"
   height="1000"
   inkscape:export-filename="C:\Users\coded\Google Drive\Roblox\Meshes\Tropics\Guns.png"
   inkscape:export-xdpi="300"
   inkscape:export-ydpi="300"><metadata
     id="metadata110"><rdf:RDF><cc:Work
         rdf:about=""><dc:format>image/svg+xml</dc:format><dc:type
           rdf:resource="http://purl.org/dc/dcmitype/StillImage" /><dc:title /></cc:Work></rdf:RDF></metadata><defs
     id="defs108" /><sodipodi:namedview
     pagecolor="#ffffff"
     bordercolor="#666666"
     borderopacity="1"
     objecttolerance="10"
     gridtolerance="10"
     guidetolerance="10"
     inkscape:pageopacity="0"
     inkscape:pageshadow="2"
     inkscape:window-width="1920"
     inkscape:window-height="1017"
     id="namedview106"
     showgrid="false"
     inkscape:zoom="0.51824817"
     inkscape:cx="-44.374651"
     inkscape:cy="494.17736"
     inkscape:window-x="1912"
     inkscape:window-y="-8"
     inkscape:window-maximized="1"
     inkscape:current-layer="svg104" /><style
     type="text/css"
     id="style2">
	.st0{fill:#D1D3D4;}
	.st1{fill:#FFFFFF;}
	.st2{fill:#594A42;}
	.st3{opacity:0.26;}
	.st4{fill:#3C2415;}
</style><rect
     style="opacity:0.26000001;fill:#56b200;fill-opacity:1;stroke:none;stroke-width:9;stroke-linecap:round;stroke-miterlimit:4;stroke-dasharray:none;stroke-opacity:1;paint-order:stroke fill markers"
     id="rect1166"
     width="500"
     height="250"
     x="1059.338"
     y="751.92957" /><rect
     style="opacity:0.26000001;fill:#b21600;fill-opacity:1;stroke:none;stroke-width:9;stroke-linecap:round;stroke-miterlimit:4;stroke-dasharray:none;stroke-opacity:1;paint-order:stroke fill markers"
     id="rect1166-9"
     width="500"
     height="250"
     x="1059.338"
     y="501.92957" /><rect
     style="opacity:0.26000001;fill:#b21600;fill-opacity:1;stroke:none;stroke-width:9;stroke-linecap:round;stroke-miterlimit:4;stroke-dasharray:none;stroke-opacity:1;paint-order:stroke fill markers"
     id="rect1166-1"
     width="500"
     height="250"
     x="1559.338"
     y="751.92957" /><rect
     style="opacity:0.26000001;fill:#56b200;fill-opacity:1;stroke:none;stroke-width:9;stroke-linecap:round;stroke-miterlimit:4;stroke-dasharray:none;stroke-opacity:1;paint-order:stroke fill markers"
     id="rect1166-9-8"
     width="500"
     height="250"
     x="1559.338"
     y="501.92957" /><rect
     style="opacity:0.26000001;fill:#56b200;fill-opacity:1;stroke:none;stroke-width:9;stroke-linecap:round;stroke-miterlimit:4;stroke-dasharray:none;stroke-opacity:1;paint-order:stroke fill markers"
     id="rect1166-0"
     width="500"
     height="250"
     x="1059.338"
     y="251.92958" /><rect
     style="opacity:0.26000001;fill:#b21600;fill-opacity:1;stroke:none;stroke-width:9;stroke-linecap:round;stroke-miterlimit:4;stroke-dasharray:none;stroke-opacity:1;paint-order:stroke fill markers"
     id="rect1166-9-6"
     width="500"
     height="250"
     x="1059.338"
     y="1.929608" /><rect
     style="opacity:0.26000001;fill:#b21600;fill-opacity:1;stroke:none;stroke-width:9;stroke-linecap:round;stroke-miterlimit:4;stroke-dasharray:none;stroke-opacity:1;paint-order:stroke fill markers"
     id="rect1166-1-5"
     width="500"
     height="250"
     x="1559.338"
     y="251.92958" /><rect
     style="opacity:0.26000001;fill:#56b200;fill-opacity:1;stroke:none;stroke-width:9;stroke-linecap:round;stroke-miterlimit:4;stroke-dasharray:none;stroke-opacity:1;paint-order:stroke fill markers"
     id="rect1166-9-8-9"
     width="500"
     height="250"
     x="1559.338"
     y="1.929608" /><path
     style="fill:#000000;fill-opacity:1;stroke-width:0.82040715"
     inkscape:connector-curvature="0"
     id="path38"
     d="m 384.13282,358.77039 2.13306,-4.34815 h 74.65705 c 0,0 0,-8.69632 -1.31265,-10.82938 -1.31266,-2.13306 -3.93796,-7.38366 -8.28612,-8.28611 -4.34815,-0.90245 -6.97346,3.44571 -8.69631,6.48122 H 260.41542 c 0,0 0,-3.93796 -4.75836,-4.34816 -4.75836,-0.41021 -56.85426,0 -56.85426,0 0,0 -1.31265,-5.66081 -5.2506,-6.48122 -3.93796,-0.90245 -24.28406,17.80284 -27.31956,20.83834 -3.03551,3.03551 -116.825989,11.73182 -125.03006,16.07998 -8.286112,4.34816 10.41917,21.74079 9.106519,33.39057 -1.312652,11.64979 -2.625303,17.39264 3.937954,17.80284 6.481216,0.4102 90.737037,-46.43505 97.710497,-46.02484 6.97346,0.4102 9.51673,5.2506 0,16.49018 -9.51672,11.32162 -12.14202,21.24855 -10.41917,24.28405 1.72286,3.03551 22.5612,6.07102 29.12446,2.13306 2.37918,-1.39469 -1.72286,-15.66977 3.44571,-26.49915 3.0355,-6.31713 6.15305,-11.40366 8.86039,-14.76733 3.60979,7.79387 12.71631,13.2906 21.90487,8.69632 7.05551,-3.52775 10.25509,-9.43468 11.56774,-13.37264 18.049,0.082 38.14898,0.32816 39.62571,0.32816 2.6253,0 -3.44571,6.97346 0,6.97346 3.44571,0 111.57537,0 115.02108,0 3.44571,0 2.13306,-6.97346 3.93796,-7.38366 1.72285,-0.4102 79.25133,1.96898 81.22031,0 1.96897,-1.96898 1.72285,-10.00897 0.4102,-11.32162 -1.31265,-1.14857 -72.52399,0.16408 -72.52399,0.16408 z m -190.58062,20.3461 c -5.00449,-1.55877 -6.56326,-5.08652 -6.89142,-8.03999 0.4102,-0.32816 0.90244,-0.49224 1.23061,-0.57428 0.4102,-0.0821 1.80489,-0.16409 4.01999,-0.24613 0.4102,8.36816 9.10652,6.48122 6.39918,4.59428 -2.37918,-1.72285 -2.95347,-3.36367 -2.87143,-4.67632 3.93796,-0.082 9.02448,-0.082 14.60325,-0.082 -2.13306,9.10652 -7.62979,11.89591 -16.49018,9.02448 z"
     class="st2" /><path
     style="fill:#000000;fill-opacity:1;stroke-width:1.23544002"
     inkscape:connector-curvature="0"
     id="path40"
     d="m 431.05375,831.75734 c -4.32404,5.18884 -61.03075,4.32403 -61.03075,4.32403 l -0.86479,-28.78575 -12.23086,-0.86481 -11.36606,21.74375 h -95.00535 l -0.8648,-17.41971 -90.68131,-1.72962 -14.82528,26.19133 c 0,0 -85.368916,0 -94.140541,1.35899 0,0 5.188849,56.21253 7.906818,61.40137 2.594423,5.18885 22.237921,-10.50123 31.380183,-17.04907 9.142256,-6.54783 23.5969,-2.59443 30.02119,-5.18884 6.54783,-2.59443 3.0886,-15.19593 3.0886,-15.19593 l 8.77162,0.86481 c 0,0 1.72962,-6.91846 5.18886,-7.90681 3.45923,-0.86481 3.45923,10.50124 3.45923,10.50124 0,0 9.63642,0 13.96048,5.18885 4.32403,5.18885 -7.90682,27.05615 -13.96048,34.83941 -6.05366,7.90682 -12.23086,13.09567 -8.77163,16.55491 3.45924,3.45922 14.82529,12.23085 20.87894,8.77162 6.05366,-3.45923 0.86481,-11.36605 8.77163,-17.41971 7.90681,-6.05366 12.23086,-14.82529 13.09567,-19.14932 0.12354,-0.86482 0.37063,-1.35899 0.61771,-1.60608 l -0.61771,1.60608 c 0,0 6.91845,5.18884 20.87893,4.32403 5.93011,-0.37063 10.6248,-2.59442 13.96048,-5.18885 0.24708,1.60608 0.49417,3.3357 0.74126,5.18885 1.72962,9.63644 17.4197,43.61104 19.14932,46.20547 1.72962,2.59443 27.05615,-15.69009 29.65057,-17.4197 2.59442,-1.72962 -11.36605,-21.74376 -11.36605,-41.01662 0,-19.14933 1.72961,-28.78575 4.32403,-29.65057 2.59443,-0.8648 9.63644,3.45923 9.63644,3.45923 l 80.18007,-0.8648 1.72961,-6.91846 h 107.23621 v -20.01413 z m -239.67538,60.16592 c -5.18885,-0.37063 -8.401,-1.85314 -10.50125,-3.45922 0,0 0,0 0.12354,-0.12355 2.47088,-2.96505 1.35899,-5.31239 0.61773,-7.53618 5.06529,9.63642 16.06072,9.63642 9.88352,4.07695 -4.2005,-3.82987 -3.82987,-7.78327 -2.71797,-10.74833 6.30075,-0.86481 14.70174,0.12354 16.67845,1.97671 1.23543,1.23544 1.9767,4.07694 2.47088,7.65971 -4.20051,4.20052 -10.00707,8.64809 -16.5549,8.15391 z m -23.59691,-63.62516 5.18885,-7.90681 c 7.90681,-3.45924 67.0844,-2.59443 67.0844,-2.59443 l 1.72961,10.50124 z"
     class="st2" /><path
     style="fill:#000000;fill-opacity:1;stroke-width:0.91059524"
     inkscape:connector-curvature="0"
     id="path42"
     d="m 386.93295,605.28529 -18.02978,-2.54967 -9.65231,-0.63742 c 0,0 -0.63742,-34.05626 -2.54967,-35.33109 -1.91225,-1.27484 -83.50158,-6.46523 -86.77973,-4.46192 -3.18708,1.91225 -2.54966,16.02648 -0.63741,16.66389 1.91225,0.63742 6.46522,-3.18708 6.46522,-3.18708 l 4.46192,-5.09933 c 0,0 63.65061,0.63741 65.56286,1.91225 1.91225,1.27483 1.91225,10.28972 1.91225,10.28972 H 136.97455 c 0,0 -7.10264,7.10265 -7.10264,10.28973 0,3.18708 -2.54967,10.92714 -2.54967,10.92714 0,0 -3.8245,-14.75164 -3.8245,-18.6672 0,-3.18708 -9.6523,0 -10.92713,2.54967 -1.27484,2.54966 6.46522,61.00988 8.37747,61.64729 1.91225,0.63742 9.65231,0.63742 10.28972,-1.91225 0.63742,-2.54966 -1.27483,-22.4917 -1.27483,-22.4917 l 62.92214,-1.27483 v 10.28972 h 10.28973 v -9.65231 h 4.46191 c 0,0 -0.63741,9.0149 0.63742,16.6639 1.27483,7.74006 22.4917,46.89565 22.4917,46.89565 l 25.04137,-16.02648 c 0,0 -12.01986,-21.1258 -13.38575,-28.86586 8.01324,1.54801 17.93873,0.54635 23.03806,-5.82781 3.27814,-4.09768 4.37086,-9.10596 4.46191,-13.47681 h 27.6821 l -1.91225,9.65231 -26.3162,38.51817 33.41884,11.56456 c 0,0 -2.54966,-6.46522 1.91225,-12.83939 4.46192,-6.46522 20.57945,-33.41884 20.57945,-33.41884 l 0.63742,-12.20198 h 25.67879 l 4.46191,-10.92714 c 0,0 18.30297,-1.63907 19.94204,0 1.63907,1.63907 11.56456,-0.63742 11.56456,-0.63742 z m -134.31279,32.78142 c -4.09768,0.9106 -7.92218,0.18212 -10.92715,-0.91059 -0.81953,-6.37417 -2.00331,-13.20363 -2.00331,-13.20363 h 4.09768 c 2.82285,9.47019 10.38079,10.74502 8.1043,5.09933 -0.72848,-1.82119 -1.09271,-3.55132 -1.36589,-5.09933 h 13.02151 c -1.00166,5.55463 -4.91722,12.74833 -10.92714,14.11422 z"
     class="st2" /><path
     style="fill:#000000;fill-opacity:1;stroke-width:0.93205714"
     inkscape:connector-curvature="0"
     id="path34-8"
     d="m 922.46021,123.41544 c 0,-2.14373 -2.14373,-1.02526 -2.14373,-1.02526 0,0 0,-8.48172 0,-10.62545 0,-2.14374 -8.48172,-2.60976 -7.92249,0 0.55924,2.60976 -1.5845,8.94774 -1.5845,8.94774 h -52.38162 v -7.92248 h -4.19426 V 72.059185 h -14.26048 v 6.337988 h 6.33799 v 32.808317 h -3.16899 v 10.06622 h -63.47309 v -4.75349 h -41.29013 v 6.89722 l -6.05837,-6.05837 h -4.47388 v 9.22736 c 0,0 -17.42947,15.37895 -26.93645,15.37895 -9.50698,0 -15.37894,-11.09148 -29.08018,-11.09148 -13.70124,0 -47.06889,-3.72823 -57.1351,-11.09148 -10.06622,-7.36325 -11.65072,-13.79445 -37.00267,-11.09148 -1.86412,0.18641 -1.02527,55.5507 0,58.71969 1.02526,3.16899 108.39824,-4.19426 111.10121,-3.16899 2.60976,1.02526 5.31272,9.50698 7.92248,11.09148 2.14373,1.30488 18.54794,-8.76134 27.86851,-13.0488 0.46603,8.01569 4.8467,15.65856 20.22564,15.65856 19.01397,0 12.67598,-10.06622 19.01397,-12.20995 3.54181,-1.21168 4.9399,-3.82153 5.49913,-5.87206 38.58717,-0.0932 91.52801,0.0932 93.95136,0.0932 3.72823,0 6.33799,-11.09148 12.20995,-11.09148 5.77876,0 39.70565,0 44.92517,0 5.21952,0 2.05053,-23.30143 2.05053,-25.44516 z m -185.6658,48.18745 c -6.71081,-2.88938 -8.01569,-7.64287 -8.01569,-10.99837 0.18641,-0.0932 0.37282,-0.0932 0.55923,-0.0932 0.65244,-0.0932 2.70297,-0.18641 5.87196,-0.27961 1.21168,10.15951 12.30316,11.5576 8.94775,8.20219 -2.33014,-2.33014 -2.33014,-5.59234 -1.86411,-8.38861 4.19425,-0.0932 9.22736,-0.0932 14.7265,-0.0932 -2.05053,14.44698 -9.69339,16.12468 -20.22564,11.65081 z"
     class="st2" /><path
     style="fill:#000000;fill-opacity:1"
     inkscape:connector-curvature="0"
     id="path32-6"
     d="m 844.30295,830.78861 c 1.1,-2.2 -1.6,-7.7 -3.8,-8.2 -2.2,-0.5 -3.3,5.5 -4.4,7.7 -1.1,2.2 -66.4,0 -70.3,0 -3.8,0 -6,-5.5 -8.8,-6.6 -2.8,-1.1 -35.7,-2.2 -37.3,-2.2 -1.6,0 0.5,4.9 -5.5,5.5 0,0 -0.5,4.9 -2.2,6 -1.7,1.1 -11.8,3.4 -14.8,-4.4 -2.7,-7.1 -6,4.9 -2.7,8.2 3.3,3.3 9.3,2.7 8.2,6.6 -1.1,3.8 -12.1,2.2 -15.4,2.2 -3.3,0 0,4.4 -1.6,9.3 -1.6,4.9 -15.4,8.2 -22.5,28 -7.1,19.8 -3.3,29.6 -4.4,31.3 -1.1,1.6 -4.4,4.4 -3.3,8.8 1.1,4.4 18.1,7.2 33.5,4.4 6,-1.1 2.7,-4.4 3.3,-11.5 0.5,-7.1 7.7,-32.9 9.3,-35.1 1.3,-1.7 4.7,-0.4 7.7,0 1.4,3.2 4.7,7.8 11.5,9.9 10.4,3.1 30.9,5.2 27.7,-23.5 3.8,0.2 6.7,0.2 7.9,-0.1 4.4,-1.1 6.6,-3.3 7.1,-6.6 0.5,-3.3 7.7,2.2 7.1,-9.3 0,0 63.7,0 70.3,0 6.7,-0.1 2.3,-18.2 3.4,-20.4 z m -104.3,52.7 c -4.3,4.3 -19.8,7.9 -26.3,-5.3 1,-2.6 1.8,-6.7 5.4,-9.5 0.2,-0.2 0.5,-0.3 0.8,-0.5 4.5,18.5 14.9,13.5 11.8,10.9 -4.8,-4 -4.8,-9.2 -4.2,-12.4 4.5,-0.3 9.9,-0.1 14.9,0.1 0.5,4.4 0.9,13.5 -2.4,16.7 z"
     class="st2" /><path
     style="fill:#000000;fill-opacity:1"
     inkscape:connector-curvature="0"
     id="path34-6"
     d="m 823.3,577.6306 c 0,0 0.5,-4.9 -3.3,-4.9 -3.8,0 -1.6,4.4 -3.3,4.4 -1.7,0 -110.9,0 -110.9,0 0,0 -1.6,-4.4 -4.4,-4.4 -2.8,0 -2.7,3.8 -2.7,3.8 0,0 -6.6,0.5 -9.3,0.5 -2.7,0 -0.5,4.9 -3.3,4.4 -2.7,-0.5 -15.9,-2.2 -15.9,1.1 0,3.3 11,3.3 15.4,5.5 4.4,2.2 1.6,7.7 0.5,11 -1.1,3.3 -7.7,0 -7.7,3.3 0,3.3 7.7,-0.5 8.2,2.2 0.5,2.7 4.9,2.7 5.5,10.4 0.5,7.7 -1.1,12.6 -8.8,25.3 -7.7,12.6 -7.7,28.8 -5.5,32.9 3.8,7.1 40.1,3.8 39,-0.5 -1.1,-4.4 2.7,-29.1 6,-35.7 1.1,-2.2 2.9,-3.9 4.7,-5.4 6.7,1.3 22.6,3.5 31.5,-2.9 8.9,-6.3 8.6,-14.6 6.6,-20.3 h 29.1 v -6 h 30.7 v -9.9 h 4.4 v -14.8 z m -64.2,42.8 c -2.9,6.2 -16.9,6.2 -24.1,5 0,-0.2 0,-0.4 -0.1,-0.6 -1.1,-2.7 -4.4,-8.8 -4.4,-13.2 0,-1.8 1.5,-3 4,-3.8 1.6,12.1 13.9,15.6 11.4,12 -3.9,-5.4 -3.7,-10.4 -3.1,-13.3 2.3,-0.1 4.9,-0.1 7.5,0.1 4.7,0.2 7.4,1.3 9,2.4 1,2.8 1.8,7.1 -0.2,11.4 z"
     class="st2" /><path
     style="fill:#000000;fill-opacity:1;stroke-width:0.64925653"
     inkscape:connector-curvature="0"
     id="path40-3"
     d="m 960.959,351.68793 -23.417,-0.61945 -67.09827,0.11297 -0.91175,-14.97251 -9.1327,0.27938 -4.29821,14.76864 -100.09887,-0.28444 -3.86698,-7.16702 -0.73878,-16.84846 -30.38017,-1.96245 0.009,7.6585 23.81058,1.12763 3.19404,-2.47386 -0.0234,11.5158 -55.06612,-0.32151 -2.56459,-6.08529 -27.61064,-1.61048 -0.3601,2.83394 7.08485,0.90026 -0.59745,4.70178 c 0,0 -28.6351,-0.75891 -32.49245,-0.79092 -3.85735,-0.0318 -7.01901,6.30733 -8.30465,12.81963 0,0 -87.59205,-4.45454 -88.73928,-2.63689 -1.20346,1.74508 5.28432,15.06996 1.91878,26.61926 -3.36553,11.54924 -2.76664,14.04693 0.34522,16.34036 3.04745,2.28519 89.38257,-24.57306 91.37316,-25.30185 1.99059,-0.72879 1.14761,5.90525 6.30735,7.01898 5.15974,1.1138 21.58265,3.7242 23.72128,5.43584 2.20303,1.71975 -7.37767,16.34068 -12.00539,22.88648 -4.70033,6.60197 -10.17959,12.12325 -7.58299,14.35117 2.59659,2.22792 20.64999,6.94354 21.52536,4.17504 0.81096,-2.77661 1.89127,-11.27843 5.08532,-13.75229 3.19405,-2.4738 5.36469,-4.61959 5.83937,-8.35522 0.0409,-0.32203 0.14625,-0.63588 0.18718,-0.95791 5.75969,3.08799 15.71834,4.54973 21.08409,-0.59329 4.55088,-4.39573 5.02378,-11.20766 4.8462,-14.96075 1.39988,-3.29082 2.49941,-9.36864 4.05552,-10.28351 2.04788,-1.17964 49.55446,1.97724 49.55446,1.97724 l -0.1142,8.6246 52.35493,-1.00466 0.22879,-9.52635 c 0,0 11.57311,-0.4274 12.99008,-0.2473 1.41697,0.18004 0.45941,7.71577 5.21847,7.8623 4.75905,0.1466 8.25592,-4.71029 8.16516,-7.60156 l 16.34038,-0.34521 -0.0893,4.30821 21.78762,-2.00913 -0.18861,-6.24149 -5.54511,-1.68632 -2.47386,-3.19408 -15.8575,-3.45482 0.54018,-4.25094 90.3854,1.01355 1.4504,3.52215 20.1906,-0.77222 z m -273.40251,48.11582 c -3.97086,0.34625 -7.36597,-1.2632 -9.5537,-2.58839 1.01736,-1.31053 1.97742,-2.17027 1.97742,-2.17027 l 2.8599,-4.47974 c 1.71198,5.58425 6.09883,6.59982 5.02773,2.66773 -0.43129,-1.75644 -0.55691,-3.34315 -0.51386,-4.71205 2.87487,0.0383 7.13503,-0.01 10.04263,-0.22918 -0.37861,4.00961 -4.47577,11.01548 -9.84012,11.5119 z"
     class="st2" /><style
     id="style1122"
     type="text/css">
	.st0{fill:#FFFFFF;}
</style><path
     id="path1132"
     d="M 477.29816,108.02266 243.15101,105.7044 c 0,0 -0.0582,-1.33177 -2.50642,-2.36758 l -14.04766,-0.0493 v -7.102734 h -2.97275 v -3.650015 h 6.23693 c 0,0 0,0.739869 0.93262,0.739869 h 4.37169 c 0,0 2.91445,0.197298 5.59575,1.381087 v 0.641218 h 11.48294 c 0,0 0.46631,0 0.46631,-1.578385 0,-1.578385 0,-9.420983 0,-9.420983 0,0 -0.0583,-0.641219 -0.75776,-1.282438 h -10.90005 v 0.591894 c 0,0 -2.97274,1.08514 -5.59575,1.08514 -2.56472,0 -4.54655,0 -4.54655,0 0,0 -1.0492,0 -1.0492,0.789192 h -6.64495 l -0.29144,-0.542569 v -0.591895 h -4.25511 l -0.46631,0.246623 v 0.591894 h -15.15515 v -1.331762 l -0.52461,-0.197298 v -1.677034 c 0,0 -0.0583,-0.54257 -0.75776,-1.134464 v -0.542569 h -6.64495 v 0.591894 c 0,0 -0.93262,0.147973 -0.93262,1.134464 v 1.479736 l -0.99092,0.246622 -0.46631,0.345272 h -0.69947 v 0.98649 H 178.217 c 0,0 0.23316,-0.887842 -0.69946,-0.887842 v -0.690542 h -3.96366 c 0,0 -1.28235,0.295946 -1.28235,1.381086 0,0 -4.25511,-0.09865 -6.12036,-0.394596 v -0.789192 l -2.73959,-0.197298 -0.34973,0.690542 h -3.7305 c 0,0 -0.87434,-0.147973 -1.92354,-0.641218 -1.0492,-0.493245 -3.26419,-0.54257 -3.26419,-0.54257 V 82.3739 H 138.289 c 0,0 -1.22407,0.345272 -1.22407,2.318253 0,1.972981 0,7.497327 0,7.497327 0,0 0,2.170279 1.28236,2.170279 h 14.16424 l 0.5246,-0.54257 h 1.98183 c 0,0 1.10749,-0.690543 1.69038,-0.887841 0.58289,-0.197298 2.79788,-0.493245 2.79788,-0.493245 h 3.84708 l 0.23315,0.493245 h 2.62301 l 0.11658,-0.54257 h 2.79787 v 0.493246 c 0,0 1.22407,-0.09865 1.51552,0.641218 0.29145,0.739868 0.29145,1.381086 0.29145,1.381086 v 0.838517 h -1.51552 l -0.40802,0.493246 v 2.268928 c 0,0 -0.81605,0.295947 -0.81605,0.641219 0,0.345271 -0.75776,2.071632 -1.92355,2.318252 v 1.92366 h -6.8781 v -0.73987 h -5.77061 c 0,0 -6.64496,5.47502 -8.62679,7.448 -1.98182,1.97298 -3.32247,3.15677 -3.67221,3.60069 -0.34973,0.44393 0.0583,1.47974 0.0583,1.47974 l -0.29145,0.44392 c 0,0 -5.30431,1.52906 -9.55941,3.30474 -4.2551,1.72636 -6.23693,2.26893 -7.86902,2.17028 -1.6321,-0.0986 -2.91445,-0.3946 -2.91445,-0.3946 0,0 -2.91445,-4.09393 -5.36259,-4.98177 -2.38986,-0.88784 -48.846231,1.47974 -48.846231,1.47974 l -4.954575,4.29123 -37.188417,3.35406 c 0,0 -3.089314,3.2061 -3.089314,4.78448 0,1.57839 0.23315,26.88187 0.932618,30.28526 0.699476,3.4034 2.098411,9.76626 2.098411,9.76626 0,0 3.555631,0.3946 9.675983,-2.36758 6.120351,-2.81149 45.698623,-16.52371 58.40563,-23.3305 12.707015,-6.75746 14.805425,-4.19258 15.563175,-4.38987 v 6.36285 c 0,0 -0.93263,0.5919 4.2551,2.36758 5.18773,1.77568 8.91823,3.0088 12.24071,3.20609 l 6.81982,-13.95884 c 0,0 8.33534,-8.18787 9.67599,-8.68111 1.28235,-0.49325 10.25887,-0.29595 10.25887,-0.29595 0,0 0.69946,0.69054 0.81604,1.38108 0.11658,0.69055 0.69947,3.99529 1.74868,5.67233 1.04919,1.67703 3.32247,3.50204 9.09309,3.50204 5.77061,0 7.9856,-0.98649 10.14229,-4.58718 2.09841,-3.60069 2.09841,-5.08043 4.72142,-5.86962 0,0 15.67975,-0.49325 17.77816,-0.69055 2.09841,-0.19729 2.15669,0.14798 2.38985,0.73987 0,0 0.87433,0.34527 1.34065,-0.1973 0.46631,-0.54257 0.46631,-0.78918 1.74867,-0.78918 1.28236,0 13.17332,-0.34528 13.17332,-0.34528 0,0 0.93263,-0.19729 0.93263,-0.98649 l 0.40802,-0.24662 11.24979,-0.3946 0.29145,0.64122 0.64118,0.0493 h 0.87433 l 0.46632,-0.44392 14.80541,-0.14797 c 0,0 31.41781,-1.1838 43.25049,-2.07164 0,0 0.23316,0 0.29144,0.5919 0.0583,0.59189 0,1.33176 0.40803,1.87433 0.40802,0.54257 1.28236,0.83852 1.28236,0.83852 h 0.75775 l 0.40803,-0.54257 0.87434,-0.1973 0.17486,-2.6142 3.32247,-0.0493 0.64119,-0.64122 28.27019,-0.54257 c 0,0 0.0583,0.5919 1.10749,0.5919 1.0492,0 1.80696,0.0493 1.80696,0.0493 0,0 0.46631,0.64121 0.40802,0.98648 -0.0583,0.34528 1.98184,0.3946 2.79788,-0.39459 0.87434,-0.78919 2.04012,-2.46623 2.73959,-2.66353 0.69947,-0.19729 0.93262,-0.39459 0.93262,-1.52905 0,-1.13447 0,-3.45272 0,-3.45272 0,0 -0.40802,-0.54257 -0.87434,-0.54257 l 0.0583,-0.73987 h -5.59576 l 3.32249,-0.88784 147.70447,0.0493 c 0,0 0.75775,-0.98649 0.75775,-2.46623 -0.17487,-1.08514 -0.11657,-2.4169 -1.39894,-3.50204 z m -307.76623,28.26295 c -1.51551,1.57838 -4.48826,2.4169 -9.0348,1.77568 -4.60484,-0.64122 -5.59575,-4.78448 -5.47917,-6.51084 0.11658,-1.72636 0.52461,-2.71285 0.52461,-2.71285 l 1.80695,-0.0493 c 0,0 0.40803,0.24662 0.34973,1.43041 -0.0583,1.18379 0,2.86083 1.69039,4.24191 1.69038,1.38109 2.85616,1.57839 2.85616,1.57839 l 0.93263,-0.24662 -0.23316,-0.1973 c 0,0 -1.51551,-0.24663 -2.91445,-1.67704 -1.39894,-1.43041 -0.64118,-3.94596 0.0583,-4.04461 0.69947,-0.0986 0.69947,-0.0986 0.69947,-0.0986 l 0.34974,-1.28244 h 7.51928 l 0.11658,0.29595 h 2.56472 c 0,0 1.10749,0.59189 1.0492,2.02231 0,1.47973 -1.28236,3.89664 -2.85617,5.47503 z m 45.05744,-39.213004 -0.52459,0.345272 v 1.874332 h -1.28236 c 0,0 -1.74868,0.73987 -1.74868,3.05812 0,2.26893 0,3.74867 0,3.74867 h -27.33757 v -0.59189 c 0,0 -0.17486,-1.03582 -1.45722,-1.03582 l -0.46632,-2.07164 h -0.99091 v -6.362859 h -2.97274 v -3.699339 h 13.8728 l 0.58288,-0.345272 v -0.246622 h 0.93263 c 0,0 0.29144,0.789192 0.69947,0.789192 h 8.74336 c 0,0 0.69947,0.04932 0.69947,-0.690543 h 4.08024 l 0.4663,0.493245 h 5.53747 c 0,0 1.10749,0.641218 1.16577,2.120954 0.0583,1.52906 0,2.6142 0,2.6142 z"
     inkscape:connector-curvature="0"
     style="stroke-width:0.53619772" /></svg>