<?xml version="1.0" encoding="UTF-8" standalone="no"?>
<!-- Generator: Adobe Illustrator 21.1.0, SVG Export Plug-In . SVG Version: 6.00 Build 0)  -->

<svg
   xmlns:dc="http://purl.org/dc/elements/1.1/"
   xmlns:cc="http://creativecommons.org/ns#"
   xmlns:rdf="http://www.w3.org/1999/02/22-rdf-syntax-ns#"
   xmlns:svg="http://www.w3.org/2000/svg"
   xmlns="http://www.w3.org/2000/svg"
   xmlns:sodipodi="http://sodipodi.sourceforge.net/DTD/sodipodi-0.dtd"
   xmlns:inkscape="http://www.inkscape.org/namespaces/inkscape"
   version="1.1"
   id="navigation"
   x="0px"
   y="0px"
   width="70"
   height="40"
   viewBox="0 0 69.999999 40"
   xml:space="preserve"
   preserveAspectRatio="none"
   sodipodi:docname="Home2.svg"
   inkscape:version="0.92.2 (5c3e80d, 2017-08-06)"
   inkscape:export-filename="C:\Users\coded\Google Drive\Roblox\Meshes\Tropics\Textures\Home.png"
   inkscape:export-xdpi="300"
   inkscape:export-ydpi="300"><metadata
     id="metadata407"><rdf:RDF><cc:Work
         rdf:about=""><dc:format>image/svg+xml</dc:format><dc:type
           rdf:resource="http://purl.org/dc/dcmitype/StillImage" /><dc:title></dc:title></cc:Work></rdf:RDF></metadata><defs
     id="defs405" /><sodipodi:namedview
     pagecolor="#ffffff"
     bordercolor="#666666"
     borderopacity="1"
     objecttolerance="10"
     gridtolerance="10"
     guidetolerance="10"
     inkscape:pageopacity="0"
     inkscape:pageshadow="2"
     inkscape:window-width="1920"
     inkscape:window-height="1017"
     id="namedview403"
     showgrid="false"
     inkscape:zoom="10.595378"
     inkscape:cx="21.247697"
     inkscape:cy="18.247873"
     inkscape:window-x="1912"
     inkscape:window-y="-8"
     inkscape:window-maximized="1"
     inkscape:current-layer="g1218" /><style
     type="text/css"
     id="style2">
	.st0{fill:#FFFFFF;}
	.st1{fill:none;stroke:#FFFFFF;stroke-width:2;stroke-linecap:round;stroke-linejoin:round;stroke-miterlimit:10;}
	.st2{fill:#00A2FF;}
	.st3{fill:#191919;}
	.st4{fill:#02B757;}
	.st5{fill:#F68802;}
</style><g
     id="notification-on_1_"
     transform="translate(-2.0625,-125)"><path
       class="st0"
       d="M 48,478 H 36 c -3.3,0 -6,2.7 -6,6 v 12 c 0,3.3 2.7,6 6,6 h 12 c 3.3,0 6,-2.7 6,-6 v -12 c 0,-3.3 -2.7,-6 -6,-6 z m 1,19 H 35 c -0.6,0 -1,-0.4 -1,-1 0,-0.6 0.4,-1 1,-1 h 14 c 0.6,0 1,0.4 1,1 0,0.6 -0.4,1 -1,1 z m 0,-4 H 35 c -0.6,0 -1,-0.4 -1,-1 0,-0.6 0.4,-1 1,-1 h 14 c 0.6,0 1,0.4 1,1 0,0.6 -0.4,1 -1,1 z m 0,-4 H 35 c -0.6,0 -1,-0.4 -1,-1 0,-0.6 0.4,-1 1,-1 h 14 c 0.6,0 1,0.4 1,1 0,0.6 -0.4,1 -1,1 z m 0,-4 H 35 c -0.6,0 -1,-0.4 -1,-1 0,-0.6 0.4,-1 1,-1 h 14 c 0.6,0 1,0.4 1,1 0,0.6 -0.4,1 -1,1 z"
       id="path4"
       inkscape:connector-curvature="0"
       style="fill:#ffffff" /></g><g
     id="notification_1_"
     transform="translate(-2.0625,-125)"><path
       class="st1"
       d="M 20,501 H 8 c -2.8,0 -5,-2.2 -5,-5 v -12 c 0,-2.8 2.2,-5 5,-5 h 12 c 2.8,0 5,2.2 5,5 v 12 c 0,2.8 -2.2,5 -5,5 z"
       id="path7"
       inkscape:connector-curvature="0"
       style="fill:none;stroke:#ffffff;stroke-width:2;stroke-linecap:round;stroke-linejoin:round;stroke-miterlimit:10" /><line
       class="st1"
       x1="7"
       y1="488"
       x2="21"
       y2="488"
       id="line9"
       style="fill:none;stroke:#ffffff;stroke-width:2;stroke-linecap:round;stroke-linejoin:round;stroke-miterlimit:10" /><line
       class="st1"
       x1="7"
       y1="492"
       x2="21"
       y2="492"
       id="line11"
       style="fill:none;stroke:#ffffff;stroke-width:2;stroke-linecap:round;stroke-linejoin:round;stroke-miterlimit:10" /><line
       class="st1"
       x1="7"
       y1="496"
       x2="21"
       y2="496"
       id="line13"
       style="fill:none;stroke:#ffffff;stroke-width:2;stroke-linecap:round;stroke-linejoin:round;stroke-miterlimit:10" /><line
       class="st1"
       x1="7"
       y1="484"
       x2="21"
       y2="484"
       id="line15"
       style="fill:none;stroke:#ffffff;stroke-width:2;stroke-linecap:round;stroke-linejoin:round;stroke-miterlimit:10" /></g><g
     id="g1218"
     transform="translate(0.4701271,0.97097)"><g
       transform="translate(6.4798729,-135.00847)"
       id="home-on_1_"
       style="fill:#53a6ff;fill-opacity:1"><path
         style="fill:#53a6ff;fill-opacity:1"
         inkscape:connector-curvature="0"
         id="path266"
         d="m 51,165 h -7 c -0.6,0 -1,-0.4 -1,-1 v -6 h -2 v 6 c 0,0.6 -0.4,1 -1,1 h -7 c -0.6,0 -1,-0.4 -1,-1 v -9 h -1 c -0.4,0 -0.8,-0.3 -0.9,-0.6 -0.1,-0.4 0,-0.8 0.3,-1.1 l 11,-10 c 0.4,-0.3 1,-0.3 1.3,0 l 11,10 c 0.3,0.3 0.4,0.7 0.3,1.1 -0.1,0.4 -0.5,0.6 -0.9,0.6 h -1 v 9 c -0.1,0.6 -0.5,1 -1.1,1 z m -6,-2 h 5 v -9 c 0,-0.4 0.2,-0.7 0.5,-0.9 l -8.5,-7.8 -8.5,7.8 c 0.3,0.2 0.5,0.5 0.5,0.9 v 9 h 5 v -6 c 0,-0.6 0.4,-1 1,-1 h 4 c 0.6,0 1,0.4 1,1 z"
         class="st4" /></g><g
       transform="translate(6.4798729,-135.00847)"
       id="home_1_"
       style="fill:#ffffff;fill-opacity:1"><path
         style="fill:#ffffff;fill-opacity:1"
         inkscape:connector-curvature="0"
         id="path269"
         d="m 23,165 h -7 c -0.6,0 -1,-0.4 -1,-1 v -6 h -2 v 6 c 0,0.6 -0.4,1 -1,1 H 5 c -0.6,0 -1,-0.4 -1,-1 v -9 H 3 c -0.4,0 -0.8,-0.3 -0.9,-0.6 -0.1,-0.4 0,-0.8 0.3,-1.1 l 11,-10 c 0.4,-0.3 1,-0.3 1.3,0 l 11,10 c 0.3,0.3 0.4,0.7 0.3,1.1 -0.1,0.4 -0.5,0.6 -0.9,0.6 h -1 v 9 c -0.1,0.6 -0.5,1 -1.1,1 z m -6,-2 h 5 v -9 c 0,-0.4 0.2,-0.7 0.5,-0.9 l -8.5,-7.8 -8.5,7.8 c 0.3,0.2 0.5,0.5 0.5,0.9 v 9 h 5 v -6 c 0,-0.6 0.4,-1 1,-1 h 4 c 0.6,0 1,0.4 1,1 z"
         class="st3" /></g></g><g
     id="settings-on_1_"
     transform="translate(-2.0625,-125)"><path
       class="st0"
       d="M 53,96 H 51.8 C 51.5,94.7 51,93.5 50.3,92.5 l 0.9,-0.9 c 0.4,-0.4 0.4,-1 0,-1.4 l -1.4,-1.4 c -0.4,-0.4 -1,-0.4 -1.4,0 l -0.9,0.9 C 46.5,89 45.3,88.5 44,88.2 V 87 c 0,-0.6 -0.4,-1 -1,-1 h -2 c -0.6,0 -1,0.4 -1,1 v 1.2 c -1.3,0.3 -2.5,0.8 -3.5,1.5 l -0.9,-0.9 c -0.4,-0.4 -1,-0.4 -1.4,0 l -1.4,1.4 c -0.4,0.4 -0.4,1 0,1.4 l 0.9,0.9 c -0.7,1 -1.2,2.2 -1.5,3.5 H 31 c -0.6,0 -1,0.4 -1,1 v 2 c 0,0.6 0.4,1 1,1 h 1.2 c 0.3,1.3 0.8,2.5 1.5,3.5 l -0.9,0.9 c -0.4,0.4 -0.4,1 0,1.4 l 1.4,1.4 c 0.4,0.4 1,0.4 1.4,0 l 0.9,-0.9 c 1,0.7 2.2,1.2 3.5,1.5 v 1.2 c 0,0.6 0.4,1 1,1 h 2 c 0.6,0 1,-0.4 1,-1 v -1.2 c 1.3,-0.3 2.5,-0.8 3.5,-1.5 l 0.9,0.9 c 0.4,0.4 1,0.4 1.4,0 l 1.4,-1.4 c 0.4,-0.4 0.4,-1 0,-1.4 l -0.9,-0.9 c 0.7,-1 1.2,-2.2 1.5,-3.5 H 53 c 0.6,0 1,-0.4 1,-1 v -2 c 0,-0.6 -0.4,-1 -1,-1 z m -11,8 c -3.3,0 -6,-2.7 -6,-6 0,-3.3 2.7,-6 6,-6 3.3,0 6,2.7 6,6 0,3.3 -2.7,6 -6,6 z"
       id="path272"
       inkscape:connector-curvature="0"
       style="fill:#ffffff" /></g><g
     id="settings_1_"
     transform="translate(-2.0625,-125)"><g
       id="g277"><path
         class="st0"
         d="m 16,110 h -4 c -0.6,0 -1,-0.4 -1,-1 v -1.5 c -0.6,-0.2 -1.1,-0.4 -1.6,-0.7 l -0.9,0.9 c -0.4,0.4 -1,0.4 -1.4,0 L 4.2,105 c -0.4,-0.4 -0.4,-1 0,-1.4 l 0.9,-0.9 C 4.8,102.2 4.6,101.6 4.4,101.1 H 3 c -0.6,0 -1,-0.4 -1,-1 v -4 c 0,-0.6 0.4,-1 1,-1 H 4.5 C 4.7,94.5 4.9,94 5.2,93.5 L 4.3,92.6 c -0.4,-0.4 -0.4,-1 0,-1.4 L 7,88.2 C 7.2,88 7.4,87.9 7.7,87.9 v 0 c 0.3,0 0.5,0.1 0.7,0.3 l 0.9,0.9 c 0.5,-0.3 1.1,-0.5 1.6,-0.7 V 87 c 0,-0.6 0.4,-1 1,-1 h 4 c 0.6,0 1,0.4 1,1 v 1.5 c 0.6,0.2 1.1,0.4 1.6,0.7 l 0.9,-0.9 c 0.4,-0.4 1,-0.4 1.4,0 l 2.8,2.8 c 0.4,0.4 0.4,1 0,1.4 l -0.9,0.9 c 0.3,0.5 0.5,1.1 0.7,1.6 H 25 c 0.6,0 1,0.4 1,1 v 4 c 0,0.6 -0.4,1 -1,1 h -1.5 c -0.2,0.6 -0.4,1.1 -0.7,1.6 l 0.9,0.9 c 0.4,0.4 0.4,1 0,1.4 l -2.8,2.8 c -0.2,0.2 -0.4,0.3 -0.7,0.3 v 0 c -0.3,0 -0.5,-0.1 -0.7,-0.3 l -0.9,-0.9 c -0.5,0.3 -1.1,0.5 -1.6,0.7 v 1.5 c 0,0.6 -0.4,1 -1,1 z m -3,-2 h 2 v -1.2 c 0,-0.5 0.3,-0.9 0.8,-1 0.9,-0.2 1.7,-0.5 2.5,-1 0.4,-0.2 0.9,-0.2 1.2,0.1 l 0.8,0.8 1.4,-1.4 -0.8,-0.8 c -0.3,-0.3 -0.4,-0.8 -0.1,-1.2 0.5,-0.8 0.8,-1.6 1,-2.5 0.1,-0.5 0.5,-0.8 1,-0.8 H 24 v -2 h -1.2 c -0.5,0 -0.9,-0.3 -1,-0.8 -0.2,-0.9 -0.5,-1.7 -1,-2.5 -0.2,-0.4 -0.2,-0.9 0.1,-1.2 l 0.8,-0.8 -1.4,-1.4 -0.8,0.8 c -0.3,0.3 -0.8,0.4 -1.2,0.1 -0.8,-0.5 -1.6,-0.8 -2.5,-1 C 15.3,90.1 15,89.7 15,89.2 V 88 h -2 v 1.2 c 0,0.5 -0.3,0.9 -0.8,1 -0.9,0.2 -1.7,0.5 -2.5,1 -0.4,0.2 -0.9,0.2 -1.2,-0.1 l -0.8,-0.8 -1.4,1.4 0.8,0.8 c 0.3,0.3 0.4,0.8 0.1,1.2 -0.5,0.8 -0.8,1.6 -1,2.5 C 6.1,96.7 5.7,97 5.2,97 H 4 v 2 h 1.2 c 0.5,0 0.9,0.3 1,0.8 0.2,0.9 0.5,1.7 1,2.5 0.2,0.4 0.2,0.9 -0.1,1.2 l -0.8,0.8 1.4,1.4 0.8,-0.8 c 0.3,-0.3 0.8,-0.4 1.2,-0.1 0.8,0.5 1.6,0.8 2.5,1 0.5,0.1 0.8,0.5 0.8,1 z"
         id="path275"
         inkscape:connector-curvature="0"
         style="fill:#ffffff" /></g><g
       id="g281"><path
         class="st0"
         d="m 14,104 c -3.3,0 -6,-2.7 -6,-6 0,-3.3 2.7,-6 6,-6 3.3,0 6,2.7 6,6 0,3.3 -2.7,6 -6,6 z m 0,-10 c -2.2,0 -4,1.8 -4,4 0,2.2 1.8,4 4,4 2.2,0 4,-1.8 4,-4 0,-2.2 -1.8,-4 -4,-4 z"
         id="path279"
         inkscape:connector-curvature="0"
         style="fill:#ffffff" /></g></g><g
     id="tix-on_1_"
     transform="translate(-2.0625,-125)"><path
       class="st0"
       d="m 51,65 h -2 l -2,-2 v -2 l -3,-3 -14,14 3,3 h 2 l 2,2 v 2 l 3,3 14,-14 z m -6.3,7.7 C 44.5,72.9 44.3,73 44,73 43.7,73 43.5,72.9 43.3,72.7 L 40,69.4 38.7,70.7 C 38.5,70.9 38.3,71 38,71 c -0.3,0 -0.5,-0.1 -0.7,-0.3 -0.4,-0.4 -0.4,-1 0,-1.4 l 4,-4 c 0.4,-0.4 1,-0.4 1.4,0 0.4,0.4 0.4,1 0,1.4 l -1.3,1.3 3.3,3.3 c 0.4,0.4 0.4,1 0,1.4 z"
       id="path284"
       inkscape:connector-curvature="0"
       style="fill:#ffffff" /></g><g
     id="tix_2_"
     transform="translate(-2.0625,-125)"><g
       id="g289"><path
         class="st0"
         d="m 12,82 c -0.3,0 -0.5,-0.1 -0.7,-0.3 l -3,-3 C 8.1,78.5 8,78.3 8,78 V 76.4 L 7.6,76 H 6 C 5.7,76 5.5,75.9 5.3,75.7 l -3,-3 c -0.4,-0.4 -0.4,-1 0,-1.4 l 13,-13 c 0.4,-0.4 1,-0.4 1.4,0 l 3,3 c 0.2,0.2 0.3,0.4 0.3,0.7 v 1.6 L 20.4,64 H 22 c 0.3,0 0.5,0.1 0.7,0.3 l 3,3 c 0.4,0.4 0.4,1 0,1.4 l -13,13 C 12.5,81.9 12.3,82 12,82 Z m -2,-4.4 2,2 11.6,-11.6 -2,-2 H 20 c -0.3,0 -0.5,-0.1 -0.7,-0.3 l -1,-1 C 18.1,64.5 18,64.3 18,64 v -1.6 l -2,-2 -11.6,11.6 2,2 H 8 c 0.3,0 0.5,0.1 0.7,0.3 l 1,1 C 9.9,75.5 10,75.7 10,76 Z"
         id="path287"
         inkscape:connector-curvature="0"
         style="fill:#ffffff" /></g><g
       id="g293"><path
         class="st0"
         d="m 10,71 c -0.3,0 -0.5,-0.1 -0.7,-0.3 -0.4,-0.4 -0.4,-1 0,-1.4 l 4,-4 c 0.4,-0.4 1,-0.4 1.4,0 0.4,0.4 0.4,1 0,1.4 l -4,4 C 10.5,70.9 10.3,71 10,71 Z"
         id="path291"
         inkscape:connector-curvature="0"
         style="fill:#ffffff" /></g><g
       id="g297"><path
         class="st0"
         d="m 16,73 c -0.3,0 -0.5,-0.1 -0.7,-0.3 l -4,-4 c -0.4,-0.4 -0.4,-1 0,-1.4 0.4,-0.4 1,-0.4 1.4,0 l 4,4 c 0.4,0.4 0.4,1 0,1.4 C 16.5,72.9 16.3,73 16,73 Z"
         id="path295"
         inkscape:connector-curvature="0"
         style="fill:#ffffff" /></g></g><g
     id="robux-on_1_"
     transform="translate(-2.0625,-125)"><path
       class="st0"
       d="m 37,39 v 2 h 2.6 c 0.1,-0.5 0.1,-1.5 0,-2 z"
       id="path300"
       inkscape:connector-curvature="0"
       style="fill:#ffffff" /><path
       class="st0"
       d="m 42,30 c -6.6,0 -12,5.4 -12,12 0,6.6 5.4,12 12,12 6.6,0 12,-5.4 12,-12 0,-6.6 -5.4,-12 -12,-12 z m 5,17 v 1 c 0,0.6 -0.4,1 -1,1 -0.6,0 -1,-0.4 -1,-1 v -1 h -3 c -0.2,0 -0.4,-0.1 -0.6,-0.2 L 37,43.3 V 46 c 0,0.6 -0.4,1 -1,1 -0.6,0 -1,-0.4 -1,-1 v -8 c 0,-0.6 0.4,-1 1,-1 h 4 c 1.1,0 1.7,1.1 1.7,3 0,0.6 -0.1,1.2 -0.2,1.7 C 41.1,42.9 40.3,43 40,43 h -0.1 l 2.5,2 H 47 c 0.3,0 0.5,-0.5 0.5,-1 0,-0.4 -0.1,-1 -0.5,-1 h -2 c -1.4,0 -2.5,-1.3 -2.5,-3 0,-0.7 0.2,-1.4 0.5,-1.9 0.5,-0.7 1.2,-1.1 2,-1.1 v -1 c 0,-0.6 0.4,-1 1,-1 0.6,0 1,0.4 1,1 v 1 h 1 c 0.6,0 1,0.4 1,1 0,0.6 -0.4,1 -1,1 h -3 c -0.1,0 -0.2,0 -0.3,0.2 -0.1,0.2 -0.2,0.5 -0.2,0.8 0,0.4 0.2,1 0.5,1 h 2 c 1.4,0 2.5,1.3 2.5,3 0,1.7 -1.1,3 -2.5,3 z"
       id="path302"
       inkscape:connector-curvature="0"
       style="fill:#ffffff" /></g><g
     id="robux_2_"
     transform="translate(-2.0625,-125)"><g
       id="g307"><path
         class="st0"
         d="M 14,54 C 7.4,54 2,48.6 2,42 2,35.4 7.4,30 14,30 c 6.6,0 12,5.4 12,12 0,6.6 -5.4,12 -12,12 z M 14,32 C 8.5,32 4,36.5 4,42 4,47.5 8.5,52 14,52 19.5,52 24,47.5 24,42 24,36.5 19.5,32 14,32 Z"
         id="path305"
         inkscape:connector-curvature="0"
         style="fill:#ffffff" /></g><g
       id="g321"><g
         id="g311"><path
           class="st0"
           d="m 19,47 h -5 c -0.2,0 -0.4,-0.1 -0.6,-0.2 L 9,43.3 V 46 C 9,46.6 8.6,47 8,47 7.4,47 7,46.6 7,46 v -8 c 0,-0.6 0.4,-1 1,-1 h 4 c 1.1,0 1.7,1.1 1.7,3 0,0.6 -0.1,1.2 -0.2,1.7 C 13.1,42.9 12.3,43 12,43 h -0.1 l 2.5,2 H 19 c 0.3,0 0.5,-0.5 0.5,-1 0,-0.4 -0.1,-1 -0.5,-1 h -2 c -1.4,0 -2.5,-1.3 -2.5,-3 0,-0.7 0.2,-1.4 0.5,-1.9 0.5,-0.7 1.2,-1.1 2,-1.1 h 3 c 0.6,0 1,0.4 1,1 0,0.6 -0.4,1 -1,1 h -3 c -0.1,0 -0.2,0 -0.3,0.2 -0.1,0.2 -0.2,0.5 -0.2,0.8 0,0.4 0.2,1 0.5,1 h 2 c 1.4,0 2.5,1.3 2.5,3 0,1.7 -1.1,3 -2.5,3 z M 9,41 h 2.6 c 0.1,-0.5 0.1,-1.5 0,-2 H 9 Z"
           id="path309"
           inkscape:connector-curvature="0"
           style="fill:#ffffff" /></g><g
         id="g315"><path
           class="st0"
           d="m 18,38 c -0.6,0 -1,-0.4 -1,-1 v -1 c 0,-0.6 0.4,-1 1,-1 0.6,0 1,0.4 1,1 v 1 c 0,0.6 -0.4,1 -1,1 z"
           id="path313"
           inkscape:connector-curvature="0"
           style="fill:#ffffff" /></g><g
         id="g319"><path
           class="st0"
           d="m 18,49 c -0.6,0 -1,-0.4 -1,-1 v -1 c 0,-0.6 0.4,-1 1,-1 0.6,0 1,0.4 1,1 v 1 c 0,0.6 -0.4,1 -1,1 z"
           id="path317"
           inkscape:connector-curvature="0"
           style="fill:#ffffff" /></g></g></g><g
     id="menu-on_1_"
     transform="translate(-2.0625,-125)"><g
       id="g326"><path
         class="st0"
         d="M 50,10 H 34 C 33.4,10 33,9.6 33,9 33,8.4 33.4,8 34,8 h 16 c 0.6,0 1,0.4 1,1 0,0.6 -0.4,1 -1,1 z"
         id="path324"
         inkscape:connector-curvature="0"
         style="fill:#ffffff" /></g><g
       id="g330"><path
         class="st0"
         d="M 50,15 H 34 c -0.6,0 -1,-0.4 -1,-1 0,-0.6 0.4,-1 1,-1 h 16 c 0.6,0 1,0.4 1,1 0,0.6 -0.4,1 -1,1 z"
         id="path328"
         inkscape:connector-curvature="0"
         style="fill:#ffffff" /></g><g
       id="g334"><path
         class="st0"
         d="M 50,20 H 34 c -0.6,0 -1,-0.4 -1,-1 0,-0.6 0.4,-1 1,-1 h 16 c 0.6,0 1,0.4 1,1 0,0.6 -0.4,1 -1,1 z"
         id="path332"
         inkscape:connector-curvature="0"
         style="fill:#ffffff" /></g></g><g
     id="menu_2_"
     transform="translate(-2.0625,-125)"><g
       id="g339"><path
         class="st0"
         d="M 22,10 H 6 C 5.4,10 5,9.6 5,9 5,8.4 5.4,8 6,8 h 16 c 0.6,0 1,0.4 1,1 0,0.6 -0.4,1 -1,1 z"
         id="path337"
         inkscape:connector-curvature="0"
         style="fill:#ffffff" /></g><g
       id="g343"><path
         class="st0"
         d="M 22,15 H 6 C 5.4,15 5,14.6 5,14 5,13.4 5.4,13 6,13 h 16 c 0.6,0 1,0.4 1,1 0,0.6 -0.4,1 -1,1 z"
         id="path341"
         inkscape:connector-curvature="0"
         style="fill:#ffffff" /></g><g
       id="g347"><path
         class="st0"
         d="M 22,20 H 6 C 5.4,20 5,19.6 5,19 5,18.4 5.4,18 6,18 h 16 c 0.6,0 1,0.4 1,1 0,0.6 -0.4,1 -1,1 z"
         id="path345"
         inkscape:connector-curvature="0"
         style="fill:#ffffff" /></g></g></svg>