<?xml version="1.0" encoding="UTF-8" standalone="no"?>
<!-- Created with Inkscape (http://www.inkscape.org/) -->

<svg
   xmlns:dc="http://purl.org/dc/elements/1.1/"
   xmlns:cc="http://creativecommons.org/ns#"
   xmlns:rdf="http://www.w3.org/1999/02/22-rdf-syntax-ns#"
   xmlns:svg="http://www.w3.org/2000/svg"
   xmlns="http://www.w3.org/2000/svg"
   xmlns:sodipodi="http://sodipodi.sourceforge.net/DTD/sodipodi-0.dtd"
   xmlns:inkscape="http://www.inkscape.org/namespaces/inkscape"
   width="210mm"
   height="297mm"
   viewBox="0 0 210 297"
   version="1.1"
   id="svg17180"
   inkscape:version="0.92.1 r15371"
   sodipodi:docname="SURGE2.0_UI_Prototype_1.svg"
   inkscape:export-filename="C:\Users\coded\Downloads\SURGE2.0_UI_Prototype_1.png"
   inkscape:export-xdpi="1000"
   inkscape:export-ydpi="1000">
  <defs
     id="defs17174">
    <inkscape:path-effect
       effect="simplify"
       id="path-effect32509"
       is_visible="true"
       steps="1"
       threshold="0.000408163"
       smooth_angles="360"
       helper_size="0"
       simplify_individual_paths="false"
       simplify_just_coalesce="false"
       simplifyindividualpaths="false"
       simplifyJustCoalesce="false" />
    <filter
       inkscape:collect="always"
       style="color-interpolation-filters:sRGB"
       id="filter23416-2-9-9-0-2-4-5-1"
       x="-0.077125251"
       width="1.1542505"
       y="-0.27021593"
       height="1.5404319">
      <feGaussianBlur
         inkscape:collect="always"
         stdDeviation="1.8207295"
         id="feGaussianBlur23418-0-0-1-7-1-2-3-0" />
    </filter>
    <filter
       inkscape:collect="always"
       style="color-interpolation-filters:sRGB"
       id="filter28608-4-7-97-2-5-7"
       x="-0.26729482"
       width="1.5345896"
       y="-0.12473708"
       height="1.2494742">
      <feGaussianBlur
         inkscape:collect="always"
         stdDeviation="0.11596697"
         id="feGaussianBlur28610-3-0-25-7-9-4" />
    </filter>
    <filter
       inkscape:collect="always"
       style="color-interpolation-filters:sRGB"
       id="filter28612-9-0-8-6-5-8"
       x="-0.16619934"
       width="1.3323987"
       y="-0.25365043"
       height="1.5073009">
      <feGaussianBlur
         inkscape:collect="always"
         stdDeviation="0.11596697"
         id="feGaussianBlur28614-1-0-3-1-9-0" />
    </filter>
  </defs>
  <sodipodi:namedview
     id="base"
     pagecolor="#ffffff"
     bordercolor="#666666"
     borderopacity="1.0"
     inkscape:pageopacity="0.0"
     inkscape:pageshadow="2"
     inkscape:zoom="8"
     inkscape:cx="356.989"
     inkscape:cy="487.57363"
     inkscape:document-units="mm"
     inkscape:current-layer="layer1"
     showgrid="false"
     inkscape:window-width="1920"
     inkscape:window-height="1017"
     inkscape:window-x="-8"
     inkscape:window-y="-8"
     inkscape:window-maximized="1"
     showguides="false"
     inkscape:snap-global="true"
     inkscape:lockguides="true">
    <inkscape:grid
       type="xygrid"
       id="grid17725" />
  </sodipodi:namedview>
  <metadata
     id="metadata17177">
    <rdf:RDF>
      <cc:Work
         rdf:about="">
        <dc:format>image/svg+xml</dc:format>
        <dc:type
           rdf:resource="http://purl.org/dc/dcmitype/StillImage" />
        <dc:title />
      </cc:Work>
    </rdf:RDF>
  </metadata>
  <g
     inkscape:label="Layer 1"
     inkscape:groupmode="layer"
     id="layer1">
    <flowRoot
       xml:space="preserve"
       id="flowRoot33154"
       style="fill:black;stroke:none;stroke-opacity:1;stroke-width:1px;stroke-linejoin:miter;stroke-linecap:butt;fill-opacity:1;font-family:'MgOpen Modata';font-style:normal;font-weight:bold;font-size:10.66666667px;line-height:125%;letter-spacing:0px;word-spacing:0px;-inkscape-font-specification:'MgOpen Modata Bold';font-stretch:normal;font-variant:normal"><flowRegion
         id="flowRegion33156"><rect
           id="rect33158"
           width="38.183765"
           height="35.001785"
           x="-1128.5424"
           y="1233.5354" /></flowRegion><flowPara
         id="flowPara33160" /></flowRoot>    <g
       aria-label="CREDITS COLOR NEON SPARKLE"
       style="font-style:normal;font-variant:normal;font-weight:bold;font-stretch:normal;font-size:2.82222223px;line-height:125%;font-family:'MgOpen Modata';-inkscape-font-specification:'MgOpen Modata Bold';letter-spacing:0px;word-spacing:0px;fill:#000000;fill-opacity:1;stroke:none;stroke-width:0.26458332px;stroke-linecap:butt;stroke-linejoin:miter;stroke-opacity:1"
       id="text33146-9" />
    <text
       xml:space="preserve"
       style="font-style:normal;font-variant:normal;font-weight:bold;font-stretch:normal;font-size:2.82222223px;line-height:125%;font-family:'MgOpen Modata';-inkscape-font-specification:'MgOpen Modata Bold';letter-spacing:0px;word-spacing:0px;fill:#000000;fill-opacity:1;stroke:none;stroke-width:0.26458332px;stroke-linecap:butt;stroke-linejoin:miter;stroke-opacity:1"
       x="-319.82806"
       y="330.20822"
       id="text33807"><tspan
         sodipodi:role="line"
         id="tspan33805"
         x="-319.82806"
         y="332.81448"
         style="stroke-width:0.26458332px" /></text>
    <path
       style="fill:none;fill-opacity:1;fill-rule:evenodd;stroke:#ff6f00;stroke-width:1.16949415;stroke-linecap:butt;stroke-linejoin:miter;stroke-miterlimit:4;stroke-dasharray:none;stroke-opacity:1"
       d="m 78.886345,160.96778 -3e-5,3.89847 3e-5,3.89815 h 31.186505 v -3.8983 -3.89847 z"
       id="path32160-9-7-1-9-7"
       inkscape:connector-curvature="0"
       sodipodi:nodetypes="ccccccc" />
    <path
       style="fill:none;fill-opacity:1;fill-rule:evenodd;stroke:#fffd00;stroke-width:0.5291667;stroke-linecap:butt;stroke-linejoin:miter;stroke-miterlimit:4;stroke-dasharray:none;stroke-opacity:1"
       d="m 78.886345,160.96778 -3e-5,3.89847 3e-5,3.89815 h 31.186505 v -3.8983 -3.89847 z"
       id="path32160-9-3-5-4"
       inkscape:connector-curvature="0"
       sodipodi:nodetypes="ccccccc" />
    <path
       style="fill:#000000;fill-opacity:0.19607843;fill-rule:evenodd;stroke:none;stroke-width:0.85161513px;stroke-linecap:butt;stroke-linejoin:miter;stroke-opacity:1"
       d="m 78.300675,169.3487 h 32.355805 v -4.48293 -4.48314 z"
       id="path32160-1-3"
       inkscape:connector-curvature="0"
       sodipodi:nodetypes="ccccc" />
    <path
       style="fill:#373737;fill-opacity:1;fill-rule:evenodd;stroke:none;stroke-width:0.77966273px;stroke-linecap:butt;stroke-linejoin:miter;stroke-opacity:1"
       d="m 78.886345,160.96763 v 3.89847 3.89815 h 31.186505 v -3.89829 -3.89848 z"
       id="path32160-1-0-3"
       inkscape:connector-curvature="0"
       sodipodi:nodetypes="ccccccc" />
    <g
       transform="matrix(2.9467569,0,0,2.9467569,577.8705,-694.72758)"
       id="g32413-0-2-7">
      <path
         sodipodi:nodetypes="cccccccccccccccccccccccccccccccccccccccccccccccccccccccccccccccccccccccccccccccccccccccccccccccccccccccccccccccccccccccccccccccccccccccccccc"
         inkscape:connector-curvature="0"
         id="path23307-5-6-1-0-3-1-5-2-0-5-1-2-4-6-6-5-67-4-0-6-1-1"
         d="m -166.5738,290.58027 c -0.0169,0.007 -0.0466,0.0306 -0.10947,0.0784 -0.0605,0.0459 -0.1358,0.10266 -0.16773,0.12577 -0.0579,0.0422 -0.0581,0.0422 -0.0652,0.035 -0.008,-0.009 -0.0169,-0.007 -0.0306,0.007 -0.007,0.008 -0.009,0.0148 -0.008,0.0219 0.003,0.009 0.003,0.0111 -0.0826,0.0763 -0.059,0.0457 -0.0892,0.067 -0.0981,0.0693 -0.0206,0.005 -0.0184,-0.005 0.005,-0.0243 0.0156,-0.0125 0.0199,-0.0181 0.0172,-0.022 -0.003,-0.003 -0.008,-10e-4 -0.017,0.004 -0.0177,0.0125 -0.0325,0.0125 -0.0379,-10e-4 -0.004,-0.0111 -0.014,-0.0139 -0.0125,-0.004 6.6e-4,0.009 -0.0161,0.0174 -0.0277,0.0139 l -0.0111,-0.004 -0.10974,0.0797 -0.10975,0.0798 -0.0125,-0.0139 c -0.0139,-0.0157 -0.0285,-0.0181 -0.044,-0.007 -0.009,0.007 -0.009,0.007 -0.0377,-0.0275 -0.0309,-0.0372 -0.0455,-0.0463 -0.0586,-0.0369 -0.004,0.003 -0.009,0.0111 -0.0111,0.0172 -0.004,0.0111 -0.003,0.0125 0.0269,0.0516 0.0308,0.0403 0.0531,0.0784 0.05,0.0858 -8e-4,10e-4 -0.007,0.004 -0.0111,0.005 -0.008,6.6e-4 -0.0111,0.003 -0.0156,0.0125 -0.004,0.009 -0.007,0.0111 -0.0143,0.0111 -0.007,-4.6e-4 -0.009,0.001 -0.0148,0.009 -0.004,0.007 -0.008,0.0111 -0.0159,0.0125 -0.014,0.001 -0.65395,0.46856 -0.65993,0.48096 -0.005,0.0125 -0.0125,0.0111 -0.0239,-0.004 -0.0111,-0.0154 -0.0247,-0.0182 -0.0437,-0.009 l -0.0125,0.005 -0.0214,-0.0297 c -0.0177,-0.0243 -0.0248,-0.031 -0.0396,-0.0377 -0.0206,-0.009 -0.0281,-0.008 -0.0339,0.003 -0.005,0.009 -0.003,0.0125 0.0457,0.0773 0.0215,0.0287 0.0349,0.0494 0.0358,0.056 0.001,0.0111 -0.009,0.0226 -0.0214,0.0209 -0.005,-6.6e-4 -0.007,8.2e-4 -0.009,0.007 -0.001,0.007 -0.005,0.009 -0.0182,0.014 -0.0168,0.005 -0.11824,0.0808 -0.15423,0.11449 -0.0224,0.021 -0.0239,0.0276 -0.009,0.0437 0.0139,0.0158 0.0111,0.0215 -0.0141,0.0412 -0.0186,0.0145 -0.31466,0.22176 -0.49553,0.34727 l -0.0956,0.0663 -0.003,0.0152 c -0.001,0.0125 -1e-5,0.0182 0.014,0.0372 0.008,0.0125 0.0219,0.0264 0.0289,0.0316 0.007,0.004 0.0203,0.0173 0.0294,0.0269 0.0387,0.0408 0.16298,0.16339 0.16743,0.1652 0.003,8.2e-4 0.0231,0.0252 0.0454,0.0536 0.0286,0.0365 0.0433,0.0525 0.0498,0.0541 0.008,10e-4 0.0195,-0.005 0.096,-0.061 0.0826,-0.0601 0.087,-0.0639 0.0908,-0.0772 0.005,-0.0176 -0.003,-0.0281 -0.0251,-0.0352 -0.0216,-0.007 -0.0274,-0.0146 -0.0236,-0.0309 0.001,-0.007 0.0228,-0.0583 0.0471,-0.11434 0.0243,-0.056 0.049,-0.11393 0.0552,-0.12884 0.0139,-0.0339 0.0261,-0.0514 0.0626,-0.0888 0.0157,-0.0163 0.0351,-0.0397 0.0428,-0.0519 0.0166,-0.0261 0.0148,-0.0388 -0.0111,-0.0752 l -0.016,-0.0224 0.0157,-0.009 0.0157,-0.009 0.0197,0.0234 c 0.0227,0.027 0.0364,0.0329 0.0729,0.0305 0.0273,-0.001 0.0451,0.007 0.0603,0.0272 0.009,0.0125 0.0111,0.0224 0.0125,0.0606 6.7e-4,0.0249 4.4e-4,0.0576 -4.4e-4,0.0726 -0.003,0.038 0.003,0.11016 0.0111,0.14643 0.005,0.0261 0.008,0.0306 0.0153,0.0317 0.007,8.1e-4 0.11155,-0.0219 0.17816,-0.0388 l 1.9e-4,7e-5 c 0.009,-0.003 0.021,-0.007 0.0245,-0.0111 0.008,-0.007 0.003,-0.0199 -0.0111,-0.0227 -0.009,-10e-4 -0.0125,-0.009 -0.0361,-0.11963 -0.0142,-0.0647 -0.0253,-0.12131 -0.0247,-0.12591 8.1e-4,-0.007 0.019,-0.0211 0.0904,-0.0729 0.049,-0.0355 0.0981,-0.0705 0.10906,-0.0777 0.001,-10e-4 0.0148,-0.015 0.0193,-0.019 0.063,0.0678 0.22799,0.19645 0.23093,0.20359 0.004,0.0111 0.0279,0.0186 0.0356,0.0125 0.007,-0.004 0.1358,-0.18759 0.13968,-0.19686 8.2e-4,-0.003 -4.4e-4,-0.007 -0.003,-0.009 -0.003,-0.003 -0.008,-0.003 -0.0112,-0.001 -0.003,0.001 -0.0111,0.001 -0.0195,-1.2e-4 -0.005,-10e-4 -0.151,-0.0999 -0.23182,-0.1538 0.007,-0.007 0.0219,-0.0232 0.0247,-0.0269 0.005,-0.008 8.1e-4,-0.0154 -0.009,-0.0161 -0.007,-4.4e-4 -0.0153,-0.009 -0.0422,-0.0467 -0.0379,-0.0521 -0.0382,-0.0531 -0.0199,-0.0902 0.0111,-0.0226 0.0417,-0.0459 0.0581,-0.0442 0.0111,8.1e-4 0.0285,-0.0111 0.29032,-0.20344 0.1535,-0.11253 0.28133,-0.20743 0.28397,-0.21089 0.007,-0.008 -0.0171,-0.0424 -0.0272,-0.0389 -0.0207,0.007 -0.0219,0.007 -0.009,-0.007 0.007,-0.007 0.0446,-0.0367 0.0841,-0.0657 0.0409,-0.03 0.0723,-0.0552 0.0729,-0.0585 0.001,-0.007 0.18699,-0.14435 0.19404,-0.14315 0.003,4.4e-4 0.009,0.005 0.0151,0.0125 0.009,0.0111 0.0111,0.0111 0.0276,4.5e-4 0.0181,-0.0111 0.0184,-0.0125 0.005,-0.028 -0.003,-0.004 -0.005,-0.0111 -0.004,-0.0173 0.001,-0.009 0.008,-0.0146 0.0634,-0.0519 0.0844,-0.0566 0.11378,-0.0779 0.19962,-0.1421 0.0853,-0.0639 0.0845,-0.0627 0.0602,-0.096 -0.0111,-0.0152 -0.0151,-0.0235 -0.0319,-0.0161 z m -1.4986,1.38562 0.023,0.004 c 0.0297,0.007 0.0416,0.0215 0.0438,0.0557 l 10e-4,0.024 -0.0484,0.0351 c -0.0519,0.0375 -0.0597,0.0405 -0.0845,0.0335 -0.0293,-0.008 -0.0457,-0.0383 -0.0362,-0.066 0.007,-0.0195 0.0111,-0.0188 0.0276,0.005 0.0111,0.0162 0.0197,0.0239 0.0306,0.0287 0.0159,0.007 0.0265,0.005 0.0142,-0.003 -0.023,-0.0139 -0.033,-0.0329 -0.0313,-0.0587 0.001,-0.017 0.001,-0.018 0.0302,-0.0384 z m -0.71585,0.4018 c 0.005,-10e-4 0.008,-0.003 0.008,-10e-4 0.005,0.007 -0.0111,0.0326 -0.0363,0.0632 -0.0205,0.0244 -0.0224,0.0355 -0.007,0.0379 0.008,0.001 0.0111,-10e-4 0.0317,-0.0238 0.0125,-0.0139 0.0304,-0.0366 0.0396,-0.0506 0.0182,-0.0279 0.0409,-0.0471 0.049,-0.0417 0.009,0.007 0.0148,0.024 0.0125,0.0399 -0.001,0.008 -0.0226,0.0632 -0.0466,0.1213 -0.0243,0.0581 -0.051,0.12257 -0.0594,0.14304 -0.0173,0.0417 -0.0247,0.0496 -0.0436,0.0457 -0.021,-0.004 -0.0292,-0.0125 -0.0331,-0.0355 -0.003,-0.0182 -0.005,-0.0228 -0.0264,-0.0447 -0.0125,-0.0139 -0.0302,-0.0337 -0.0392,-0.0451 -0.0149,-0.0193 -0.0161,-0.0232 -0.0168,-0.0514 -2.2e-4,-0.0168 0.001,-0.0352 0.005,-0.0408 0.008,-0.0175 0.12897,-0.10079 0.16317,-0.1156 z"
         style="fill:#000000;fill-opacity:0;stroke:#fff300;stroke-width:0.12427206;stroke-miterlimit:4;stroke-dasharray:none;stroke-opacity:1" />
      <path
         sodipodi:nodetypes="cccccccccccccccccccccccccccccccccccccccccccccccccccccccccccccccccccccccccccccccccccccccccccccccccccccccccccccccccccccccccccccccccccccccccccc"
         inkscape:connector-curvature="0"
         id="path23307-5-6-1-0-3-1-5-2-0-5-1-8-6-9-4-6-9-2-4-0-3"
         d="m -166.57402,290.58041 c -0.0169,0.007 -0.0466,0.0306 -0.10947,0.0784 -0.0605,0.0459 -0.13581,0.10266 -0.16774,0.12576 -0.0579,0.0422 -0.0581,0.0422 -0.0652,0.035 -0.008,-0.009 -0.0169,-0.007 -0.0306,0.007 -0.007,0.008 -0.009,0.0148 -0.008,0.0219 0.003,0.009 0.003,0.0111 -0.0826,0.0763 -0.059,0.0457 -0.0892,0.067 -0.0981,0.0693 -0.0206,0.005 -0.0184,-0.005 0.005,-0.0243 0.0156,-0.0125 0.0199,-0.0181 0.0171,-0.022 -0.003,-0.003 -0.008,-10e-4 -0.017,0.004 -0.0177,0.0125 -0.0325,0.0125 -0.0379,-0.001 -0.004,-0.0112 -0.0141,-0.014 -0.0125,-0.004 6.9e-4,0.009 -0.0161,0.0174 -0.0277,0.0139 l -0.0111,-0.004 -0.10975,0.0797 -0.10975,0.0797 -0.0125,-0.0139 c -0.0139,-0.0157 -0.0285,-0.0181 -0.044,-0.007 -0.009,0.007 -0.009,0.007 -0.0377,-0.0275 -0.0309,-0.0372 -0.0456,-0.0463 -0.0586,-0.0369 -0.004,0.003 -0.009,0.0111 -0.0111,0.0172 -0.004,0.0111 -0.003,0.0125 0.0269,0.0516 0.0308,0.0404 0.0531,0.0784 0.05,0.0858 -8.1e-4,0.001 -0.007,0.004 -0.0111,0.004 -0.008,6.8e-4 -0.0111,0.003 -0.0156,0.0125 -0.004,0.009 -0.007,0.0111 -0.0142,0.0111 -0.007,-4.3e-4 -0.009,0.001 -0.0148,0.009 -0.004,0.007 -0.008,0.0111 -0.016,0.0125 -0.0139,0.001 -0.65394,0.46856 -0.65994,0.48097 -0.005,0.0125 -0.0125,0.0111 -0.0238,-0.004 -0.0111,-0.0154 -0.0247,-0.0182 -0.0437,-0.009 l -0.0125,0.005 -0.0215,-0.0297 c -0.0177,-0.0243 -0.0248,-0.031 -0.0396,-0.0378 -0.0206,-0.009 -0.0281,-0.008 -0.0339,0.003 -0.005,0.009 -0.003,0.0125 0.0457,0.0773 0.0215,0.0287 0.0348,0.0494 0.0358,0.056 0.001,0.0111 -0.009,0.0227 -0.0215,0.0209 -0.005,-6.7e-4 -0.007,8.1e-4 -0.009,0.007 -0.001,0.007 -0.005,0.009 -0.0182,0.0139 -0.0168,0.005 -0.11839,0.0808 -0.15426,0.11449 -0.0224,0.021 -0.024,0.0276 -0.009,0.0437 0.0139,0.0158 0.0111,0.0215 -0.014,0.0412 -0.0186,0.0144 -0.31467,0.22176 -0.49555,0.34726 l -0.0956,0.0663 -0.003,0.0152 c -0.001,0.0125 0,0.0182 0.0139,0.0372 0.008,0.0125 0.0219,0.0265 0.029,0.0317 0.007,0.005 0.0202,0.0173 0.0294,0.0269 0.0387,0.0408 0.163,0.16338 0.16744,0.1652 0.003,8.2e-4 0.0231,0.0252 0.0454,0.0536 0.0287,0.0364 0.0434,0.0525 0.0498,0.0541 0.008,0.001 0.0195,-0.005 0.096,-0.061 0.0826,-0.0601 0.0871,-0.0639 0.0908,-0.0772 0.005,-0.0176 -0.003,-0.0281 -0.025,-0.0352 -0.0216,-0.007 -0.0275,-0.0146 -0.0236,-0.0309 0.001,-0.007 0.0228,-0.0583 0.0471,-0.11435 0.0244,-0.056 0.049,-0.11393 0.0552,-0.12883 0.0139,-0.0338 0.0262,-0.0514 0.0626,-0.0887 0.0157,-0.0162 0.0351,-0.0397 0.0428,-0.0519 0.0166,-0.0261 0.0146,-0.0388 -0.0111,-0.0752 l -0.0158,-0.0224 0.0157,-0.009 0.0157,-0.009 0.0197,0.0234 c 0.0227,0.0271 0.0364,0.0329 0.0729,0.0305 0.0273,-0.001 0.0451,0.007 0.0603,0.0272 0.009,0.0125 0.0111,0.0224 0.0125,0.0606 6.7e-4,0.025 4.4e-4,0.0576 -4.6e-4,0.0726 -0.003,0.038 0.003,0.11015 0.0111,0.14643 0.005,0.0262 0.008,0.0306 0.0153,0.0316 0.007,8.1e-4 0.11156,-0.0219 0.17818,-0.0388 l 1.8e-4,9e-5 c 0.009,-0.003 0.021,-0.007 0.0245,-0.0111 0.008,-0.007 0.003,-0.0199 -0.0111,-0.0227 -0.009,-0.001 -0.0125,-0.009 -0.036,-0.11964 -0.0142,-0.0647 -0.0253,-0.12131 -0.0247,-0.1259 8.2e-4,-0.007 0.0191,-0.0211 0.0903,-0.073 0.049,-0.0355 0.0981,-0.0705 0.10906,-0.0777 0.001,-10e-4 0.0148,-0.0149 0.0193,-0.019 0.063,0.0678 0.228,0.19643 0.23093,0.20359 0.004,0.0111 0.0278,0.0186 0.0356,0.0125 0.007,-0.005 0.13579,-0.18759 0.13969,-0.19687 8e-4,-0.003 -4.7e-4,-0.007 -0.003,-0.009 -0.003,-0.003 -0.008,-0.003 -0.0111,-10e-4 -0.003,10e-4 -0.0111,10e-4 -0.0195,-1.3e-4 -0.005,-10e-4 -0.15101,-0.0999 -0.23183,-0.15382 0.007,-0.007 0.0219,-0.0232 0.0247,-0.0269 0.005,-0.008 8.2e-4,-0.0154 -0.009,-0.0161 -0.007,-4.5e-4 -0.0154,-0.009 -0.0422,-0.0468 -0.0379,-0.0521 -0.0382,-0.0531 -0.0199,-0.0901 0.0111,-0.0226 0.0417,-0.046 0.0581,-0.0442 0.0111,8.3e-4 0.0285,-0.0111 0.29032,-0.20343 0.1535,-0.11253 0.28132,-0.20744 0.28398,-0.21087 0.007,-0.008 -0.0171,-0.0424 -0.0272,-0.039 -0.0207,0.007 -0.0219,0.007 -0.009,-0.007 0.007,-0.007 0.0446,-0.0367 0.0841,-0.0657 0.0409,-0.03 0.0725,-0.0553 0.0729,-0.0585 0.001,-0.007 0.18702,-0.14434 0.19406,-0.14315 0.003,4.5e-4 0.009,0.005 0.015,0.0125 0.009,0.0111 0.0111,0.0111 0.0276,4.4e-4 0.0181,-0.0111 0.0184,-0.0125 0.005,-0.0278 -0.003,-0.004 -0.005,-0.0111 -0.004,-0.0174 0.001,-0.009 0.008,-0.0146 0.0634,-0.0519 0.0844,-0.0568 0.11379,-0.0777 0.1996,-0.1421 0.0853,-0.0639 0.0845,-0.0627 0.0603,-0.096 -0.0111,-0.0152 -0.015,-0.0236 -0.0319,-0.0161 z m -1.49859,1.38562 0.023,0.005 c 0.0297,0.007 0.0416,0.0215 0.0438,0.0557 l 0.001,0.0239 -0.0484,0.0351 c -0.0519,0.0375 -0.0596,0.0405 -0.0844,0.0335 -0.0293,-0.008 -0.0457,-0.0383 -0.0362,-0.066 0.007,-0.0195 0.0111,-0.0188 0.0276,0.004 0.0111,0.0162 0.0197,0.0239 0.0306,0.0287 0.0158,0.007 0.0264,0.005 0.0142,-0.003 -0.023,-0.014 -0.033,-0.0329 -0.0312,-0.0587 0.001,-0.0169 0.001,-0.018 0.0302,-0.0384 z m -0.71585,0.4018 c 0.005,-0.001 0.008,-0.003 0.008,-0.001 0.005,0.007 -0.0111,0.0326 -0.0363,0.0632 -0.0205,0.0244 -0.0224,0.0355 -0.007,0.0379 0.008,10e-4 0.0111,-0.001 0.0317,-0.0238 0.0125,-0.014 0.0304,-0.0367 0.0396,-0.0506 0.0182,-0.0278 0.0409,-0.0471 0.049,-0.0418 0.009,0.007 0.0148,0.0241 0.0125,0.0399 -0.001,0.008 -0.0226,0.0631 -0.0469,0.12131 -0.0243,0.0581 -0.0509,0.12256 -0.0594,0.14304 -0.0173,0.0417 -0.0247,0.0496 -0.0436,0.0457 -0.021,-0.004 -0.0291,-0.0125 -0.0331,-0.0355 -0.003,-0.0182 -0.005,-0.0228 -0.0266,-0.0447 -0.0125,-0.0139 -0.0302,-0.0337 -0.0389,-0.0451 -0.0149,-0.0193 -0.0161,-0.0232 -0.0168,-0.0514 -2.3e-4,-0.0168 10e-4,-0.0351 0.005,-0.0408 0.008,-0.0176 0.12896,-0.10078 0.16318,-0.1156 z"
         style="fill:#000000;fill-opacity:0;stroke:#ff6f00;stroke-width:0.05917716;stroke-miterlimit:4;stroke-dasharray:none;stroke-opacity:1" />
      <path
         sodipodi:nodetypes="ccccccccccccccccccccccccccccccccccccccccccccccccccccccccccccccccccccccccccccccccccc"
         inkscape:connector-curvature="0"
         id="path23307-5-6-1-0-3-1-5-2-0-5-1-2-4-4-0-4-2-9-8-4-4-2-4"
         d="m -168.99288,292.65335 c 0,0 0.0809,0.0804 0.10318,0.10877 0.0287,0.0364 0.0434,0.0525 0.0498,0.0541 0.008,0.001 0.0195,-0.005 0.096,-0.061 0.0826,-0.0601 0.087,-0.0639 0.0908,-0.0773 0.005,-0.0175 -0.003,-0.0281 -0.0249,-0.0352 -0.0216,-0.007 -0.0275,-0.0146 -0.0236,-0.0309 0.001,-0.007 0.0228,-0.0583 0.0471,-0.11435 0.0244,-0.056 0.0491,-0.11392 0.0552,-0.12882 0.0139,-0.0338 0.0261,-0.0514 0.0626,-0.0888 0.0157,-0.0163 0.0351,-0.0397 0.0428,-0.0519 0.0165,-0.0261 0.0146,-0.0388 -0.0111,-0.0752 l -0.0159,-0.0224 0.0157,-0.009 0.0157,-0.009 0.0198,0.0234 c 0.0227,0.0271 0.0364,0.0329 0.0729,0.0305 0.0273,-10e-4 0.0451,0.007 0.0602,0.0272 0.009,0.0125 0.0112,0.0224 0.0125,0.0606 6.9e-4,0.0249 4.5e-4,0.0575 -4.5e-4,0.0726 -0.003,0.038 0.003,0.11017 0.0111,0.14643 0.005,0.0261 0.008,0.0306 0.0153,0.0317 0.007,8e-4 0.11156,-0.0219 0.17818,-0.0388 l 1.6e-4,7e-5 c 0.009,-0.003 0.021,-0.007 0.0245,-0.0111 0.008,-0.007 0.003,-0.0199 -0.0111,-0.0227 -0.009,-0.001 -0.0125,-0.009 -0.036,-0.11964 -0.0142,-0.0647 -0.0253,-0.12131 -0.0247,-0.1259 8.1e-4,-0.007 0.019,-0.0214 0.0904,-0.073 0.049,-0.0355 0.0981,-0.0705 0.10906,-0.0777 0.001,-10e-4 0.0148,-0.015 0.019,-0.019 0.063,0.0678 0.22801,0.19643 0.23093,0.20359 0.004,0.0111 0.0279,0.0186 0.0356,0.0125 0.007,-0.005 0.1358,-0.18761 0.13969,-0.19688 8.2e-4,-0.003 -4.5e-4,-0.007 -0.003,-0.009 -0.003,-0.003 -0.008,-0.003 -0.0111,-10e-4 -0.003,10e-4 -0.0111,10e-4 -0.0195,-1.4e-4 -0.005,-10e-4 -0.15102,-0.0999 -0.23182,-0.15379 0.007,-0.007 0.0219,-0.0232 0.0247,-0.0269 0.005,-0.008 8e-4,-0.0155 -0.009,-0.0161 -0.007,-4.4e-4 -0.0154,-0.009 -0.0422,-0.0467 -0.0379,-0.052 -0.0382,-0.0531 -0.0199,-0.0901 0.0111,-0.0226 0.0416,-0.0459 0.0581,-0.0441 0.0111,8e-4 0.0285,-0.0111 0.29034,-0.20344 0.15348,-0.11254 0.28133,-0.20746 0.28397,-0.21089 0.007,-0.008 -0.0172,-0.0424 -0.0272,-0.0391 -0.0207,0.007 -0.0219,0.007 -0.009,-0.007 0.007,-0.007 0.0446,-0.0368 0.0841,-0.0657 0.0722,-0.0609 0.16714,-0.13037 0.26691,-0.20169 0.003,4.5e-4 0.009,0.005 0.015,0.0125 0.009,0.0111 0.0111,0.0111 0.0276,4.5e-4 0.0181,-0.0111 0.0183,-0.0125 0.005,-0.0279 -0.003,-0.004 -0.005,-0.0111 -0.004,-0.0173 0.001,-0.009 0.008,-0.0146 0.0634,-0.0519 0.0844,-0.0568 0.32387,-0.19522 0.26499,-0.22972 m -1.53531,1.36095 0.023,0.004 c 0.0297,0.007 0.0416,0.0215 0.0438,0.0557 l 10e-4,0.024 -0.0485,0.0351 c -0.0519,0.0375 -0.0597,0.0405 -0.0844,0.0335 -0.0293,-0.008 -0.0457,-0.0383 -0.0362,-0.066 0.007,-0.0195 0.0111,-0.0186 0.0276,0.005 0.0111,0.0163 0.0197,0.024 0.0306,0.0287 0.0158,0.007 0.0265,0.005 0.0142,-0.003 -0.023,-0.0139 -0.033,-0.0329 -0.0312,-0.0587 0.001,-0.017 0.001,-0.0179 0.0302,-0.0384 z m -0.7159,0.40174 c -0.0863,0.0535 -0.21162,0.10864 -0.15108,0.2078 -0.11379,-0.0688 0.13245,-0.22554 0.15991,-0.20951 0.005,0.007 -0.0111,0.0326 -0.0363,0.0632 -0.0205,0.0244 -0.0226,0.0355 -0.007,0.0379 0.008,0.001 0.0111,-10e-4 0.0317,-0.0238 0.0125,-0.0139 0.0304,-0.0366 0.0396,-0.0507 0.0182,-0.0279 0.0409,-0.0471 0.049,-0.0417 0.009,0.007 0.0148,0.024 0.0125,0.0399 -0.001,0.008 -0.0226,0.0632 -0.0468,0.12131 -0.0243,0.0581 -0.051,0.12257 -0.0594,0.14304 -0.0173,0.0416 -0.0247,0.0496 -0.0436,0.0458 -0.021,-0.004 -0.0291,-0.0125 -0.0331,-0.0355 -0.003,-0.0182 -0.005,-0.0228 -0.0267,-0.0447 -0.0125,-0.0139 -0.0302,-0.0337 -0.039,-0.0451"
         style="fill:#000000;fill-opacity:0;stroke:#000000;stroke-width:0.12435593;stroke-linejoin:bevel;stroke-miterlimit:4;stroke-dasharray:none;stroke-opacity:0.19607843" />
      <path
         sodipodi:nodetypes="cccccccccccccccccccccccccccccccccccccccccccccccccccccccccccccccccccccccccccccccccccccccccccccccccccccccccccccccccccccccccccccccccccccccccccc"
         inkscape:connector-curvature="0"
         id="path23307-5-6-1-0-3-1-5-2-0-5-2-09-8-2-7-6-8-7-0-4"
         d="m -166.57402,290.58041 c -0.0169,0.007 -0.0466,0.0306 -0.10947,0.0784 -0.0605,0.0459 -0.13581,0.10266 -0.16774,0.12576 -0.0579,0.0422 -0.0581,0.0422 -0.0652,0.035 -0.008,-0.009 -0.0169,-0.007 -0.0306,0.007 -0.007,0.008 -0.009,0.0148 -0.008,0.0219 0.003,0.009 0.003,0.0111 -0.0826,0.0763 -0.059,0.0457 -0.0892,0.067 -0.0981,0.0693 -0.0206,0.005 -0.0184,-0.005 0.005,-0.0243 0.0156,-0.0125 0.0199,-0.0181 0.0171,-0.022 -0.003,-0.003 -0.008,-10e-4 -0.017,0.004 -0.0177,0.0125 -0.0325,0.0125 -0.0379,-0.001 -0.004,-0.0112 -0.0141,-0.014 -0.0125,-0.004 6.9e-4,0.009 -0.0161,0.0174 -0.0277,0.0139 l -0.0111,-0.004 -0.10975,0.0797 -0.10975,0.0797 -0.0125,-0.0139 c -0.0139,-0.0157 -0.0285,-0.0181 -0.044,-0.007 -0.009,0.007 -0.009,0.007 -0.0377,-0.0275 -0.0309,-0.0372 -0.0456,-0.0463 -0.0586,-0.0369 -0.004,0.003 -0.009,0.0111 -0.0111,0.0172 -0.004,0.0111 -0.003,0.0125 0.0269,0.0516 0.0308,0.0404 0.0531,0.0784 0.05,0.0858 -8.1e-4,0.001 -0.007,0.004 -0.0111,0.004 -0.008,6.8e-4 -0.0111,0.003 -0.0156,0.0125 -0.004,0.009 -0.007,0.0111 -0.0142,0.0111 -0.007,-4.3e-4 -0.009,0.001 -0.0148,0.009 -0.004,0.007 -0.008,0.0111 -0.016,0.0125 -0.0139,0.001 -0.65394,0.46856 -0.65994,0.48097 -0.005,0.0125 -0.0125,0.0111 -0.0238,-0.004 -0.0111,-0.0154 -0.0247,-0.0182 -0.0437,-0.009 l -0.0125,0.005 -0.0215,-0.0297 c -0.0177,-0.0243 -0.0248,-0.031 -0.0396,-0.0378 -0.0206,-0.009 -0.0281,-0.008 -0.0339,0.003 -0.005,0.009 -0.003,0.0125 0.0457,0.0773 0.0215,0.0287 0.0348,0.0494 0.0358,0.056 0.001,0.0111 -0.009,0.0227 -0.0215,0.0209 -0.005,-6.7e-4 -0.007,8.1e-4 -0.009,0.007 -0.001,0.007 -0.005,0.009 -0.0182,0.0139 -0.0168,0.005 -0.11839,0.0808 -0.15426,0.11449 -0.0224,0.021 -0.024,0.0276 -0.009,0.0437 0.0139,0.0158 0.0111,0.0215 -0.014,0.0412 -0.0186,0.0144 -0.31467,0.22176 -0.49555,0.34726 l -0.0956,0.0663 -0.003,0.0152 c -0.001,0.0125 0,0.0182 0.0139,0.0372 0.008,0.0125 0.0219,0.0265 0.029,0.0317 0.007,0.005 0.0202,0.0173 0.0294,0.0269 0.0387,0.0408 0.163,0.16338 0.16744,0.1652 0.003,8.2e-4 0.0231,0.0252 0.0454,0.0536 0.0287,0.0364 0.0434,0.0525 0.0498,0.0541 0.008,0.001 0.0195,-0.005 0.096,-0.061 0.0826,-0.0601 0.0871,-0.0639 0.0908,-0.0772 0.005,-0.0176 -0.003,-0.0281 -0.025,-0.0352 -0.0216,-0.007 -0.0275,-0.0146 -0.0236,-0.0309 0.001,-0.007 0.0228,-0.0583 0.0471,-0.11435 0.0244,-0.056 0.049,-0.11393 0.0552,-0.12883 0.0139,-0.0338 0.0262,-0.0514 0.0626,-0.0887 0.0157,-0.0162 0.0351,-0.0397 0.0428,-0.0519 0.0166,-0.0261 0.0146,-0.0388 -0.0111,-0.0752 l -0.0158,-0.0224 0.0157,-0.009 0.0157,-0.009 0.0197,0.0234 c 0.0227,0.0271 0.0364,0.0329 0.0729,0.0305 0.0273,-0.001 0.0451,0.007 0.0603,0.0272 0.009,0.0125 0.0111,0.0224 0.0125,0.0606 6.7e-4,0.025 4.4e-4,0.0576 -4.6e-4,0.0726 -0.003,0.038 0.003,0.11015 0.0111,0.14643 0.005,0.0262 0.008,0.0306 0.0153,0.0316 0.007,8.1e-4 0.11156,-0.0219 0.17818,-0.0388 l 1.8e-4,9e-5 c 0.009,-0.003 0.021,-0.007 0.0245,-0.0111 0.008,-0.007 0.003,-0.0199 -0.0111,-0.0227 -0.009,-0.001 -0.0125,-0.009 -0.036,-0.11964 -0.0142,-0.0647 -0.0253,-0.12131 -0.0247,-0.1259 8.2e-4,-0.007 0.0191,-0.0211 0.0903,-0.073 0.049,-0.0355 0.0981,-0.0705 0.10906,-0.0777 0.001,-10e-4 0.0148,-0.0149 0.0193,-0.019 0.063,0.0678 0.228,0.19643 0.23093,0.20359 0.004,0.0111 0.0278,0.0186 0.0356,0.0125 0.007,-0.005 0.13579,-0.18759 0.13969,-0.19687 8e-4,-0.003 -4.7e-4,-0.007 -0.003,-0.009 -0.003,-0.003 -0.008,-0.003 -0.0111,-10e-4 -0.003,10e-4 -0.0111,10e-4 -0.0195,-1.3e-4 -0.005,-10e-4 -0.15101,-0.0999 -0.23183,-0.15382 0.007,-0.007 0.0219,-0.0232 0.0247,-0.0269 0.005,-0.008 8.2e-4,-0.0154 -0.009,-0.0161 -0.007,-4.5e-4 -0.0154,-0.009 -0.0422,-0.0468 -0.0379,-0.0521 -0.0382,-0.0531 -0.0199,-0.0901 0.0111,-0.0226 0.0417,-0.046 0.0581,-0.0442 0.0111,8.3e-4 0.0285,-0.0111 0.29032,-0.20343 0.1535,-0.11253 0.28132,-0.20744 0.28398,-0.21087 0.007,-0.008 -0.0171,-0.0424 -0.0272,-0.039 -0.0207,0.007 -0.0219,0.007 -0.009,-0.007 0.007,-0.007 0.0446,-0.0367 0.0841,-0.0657 0.0409,-0.03 0.0725,-0.0553 0.0729,-0.0585 0.001,-0.007 0.18702,-0.14434 0.19406,-0.14315 0.003,4.5e-4 0.009,0.005 0.015,0.0125 0.009,0.0111 0.0111,0.0111 0.0276,4.4e-4 0.0181,-0.0111 0.0184,-0.0125 0.005,-0.0278 -0.003,-0.004 -0.005,-0.0111 -0.004,-0.0174 0.001,-0.009 0.008,-0.0146 0.0634,-0.0519 0.0844,-0.0566 0.11379,-0.0779 0.1996,-0.14209 0.0853,-0.0639 0.0845,-0.0627 0.0603,-0.096 -0.0111,-0.0152 -0.015,-0.0236 -0.0319,-0.0161 z m -1.49859,1.38562 0.023,0.005 c 0.0297,0.007 0.0416,0.0215 0.0438,0.0557 l 0.001,0.0239 -0.0484,0.0351 c -0.0519,0.0375 -0.0596,0.0405 -0.0844,0.0335 -0.0293,-0.008 -0.0457,-0.0383 -0.0362,-0.066 0.007,-0.0195 0.0111,-0.0188 0.0276,0.004 0.0111,0.0162 0.0197,0.0239 0.0306,0.0287 0.0158,0.007 0.0265,0.005 0.0142,-0.003 -0.023,-0.014 -0.033,-0.0329 -0.0312,-0.0587 0.001,-0.0169 0.001,-0.018 0.0302,-0.0384 z m -0.71585,0.4018 c 0.005,-0.001 0.008,-0.003 0.008,-0.001 0.005,0.007 -0.0111,0.0326 -0.0363,0.0632 -0.0205,0.0244 -0.0224,0.0355 -0.007,0.0379 0.008,10e-4 0.0111,-0.001 0.0317,-0.0238 0.0125,-0.014 0.0304,-0.0367 0.0396,-0.0506 0.0182,-0.0278 0.0409,-0.0471 0.049,-0.0418 0.009,0.007 0.0148,0.0241 0.0125,0.0399 -0.001,0.008 -0.0226,0.0631 -0.0469,0.12131 -0.0243,0.0581 -0.0509,0.12256 -0.0594,0.14304 -0.0173,0.0417 -0.0247,0.0496 -0.0436,0.0457 -0.021,-0.004 -0.0291,-0.0125 -0.0331,-0.0355 -0.003,-0.0182 -0.005,-0.0228 -0.0266,-0.0447 -0.0125,-0.0139 -0.0302,-0.0337 -0.0389,-0.0451 -0.0149,-0.0193 -0.0161,-0.0232 -0.0168,-0.0514 -2.3e-4,-0.0168 10e-4,-0.0351 0.005,-0.0408 0.008,-0.0176 0.12896,-0.10078 0.16318,-0.1156 z"
         style="fill:#191919;fill-opacity:1;stroke-width:0.0043452" />
      <path
         inkscape:connector-curvature="0"
         id="path25247-1-8-0-1-3-2-1-2-3-60-2-0-5-6-2"
         d="m -168.14539,291.67284 -0.16635,0.16635 h 0.16635 l -0.16635,0.3327 0.2329,-0.36597 h -0.13315 z"
         style="fill:#ffff01;fill-opacity:1;fill-rule:evenodd;stroke:none;stroke-width:0.0332698px;stroke-linecap:butt;stroke-linejoin:miter;stroke-opacity:1" />
      <path
         sodipodi:nodetypes="ccccccccc"
         inkscape:connector-curvature="0"
         id="path25247-1-8-0-1-3-2-2-2-8-9-9-2-6-3-3-4"
         d="m -168.14784,291.74844 0.14202,-0.0489 0.11462,0.0595 -0.13356,0.12297 0.25154,0.063 -0.32957,-0.0405 0.15771,-0.14092 -0.0653,-0.0318 z"
         style="fill:#ffff01;fill-opacity:1;fill-rule:evenodd;stroke:none;stroke-width:0.03631456px;stroke-linecap:butt;stroke-linejoin:miter;stroke-opacity:1" />
      <path
         transform="matrix(0.22366173,0,0,0.22366173,-130.05156,226.50364)"
         inkscape:connector-curvature="0"
         id="path25247-1-8-0-1-3-2-1-2-3-6-0-5-2-8-6-6"
         d="m -170.31897,291.37395 -0.74375,0.74376 h 0.74375 l -0.74375,1.4875 1.04125,-1.63626 h -0.595 z"
         style="fill:#ffff01;fill-opacity:1;fill-rule:evenodd;stroke:none;stroke-width:0.14875053px;stroke-linecap:butt;stroke-linejoin:miter;stroke-opacity:1;filter:url(#filter28608-4-7-97-2-5-7)" />
      <path
         transform="matrix(0.22366173,0,0,0.22366173,-130.05156,226.50364)"
         sodipodi:nodetypes="ccccccccc"
         inkscape:connector-curvature="0"
         id="path25247-1-8-0-1-3-2-2-2-8-9-5-76-2-6-2-9-4"
         d="m -170.32992,291.71198 0.63499,-0.21825 0.51214,0.26553 -0.59718,0.54991 1.12467,0.28182 -1.47353,-0.18129 0.70512,-0.6301 -0.29195,-0.1419 z"
         style="fill:#ffff01;fill-opacity:1;fill-rule:evenodd;stroke:none;stroke-width:0.16236374px;stroke-linecap:butt;stroke-linejoin:miter;stroke-opacity:1;filter:url(#filter28612-9-0-8-6-5-8)" />
    </g>
    <g
       transform="matrix(2.9467569,0,0,2.9467569,577.8705,-694.72758)"
       id="g32403-7-4-9">
      <path
         sodipodi:nodetypes="ccccccc"
         inkscape:connector-curvature="0"
         id="path18219-9-29-3-5-5-6-9-4-1-8-2-3-2-5-3-8-8"
         d="m -164.99022,292.01697 0.14771,-0.3267 h 0.46018 l 0.14771,0.3267 -0.14771,0.32669 h -0.46018 z"
         style="fill:#ffff00;fill-opacity:1;fill-rule:evenodd;stroke:none;stroke-width:0.06946699px;stroke-linecap:butt;stroke-linejoin:miter;stroke-opacity:1" />
      <path
         sodipodi:nodetypes="ccccccc"
         inkscape:connector-curvature="0"
         id="path18219-4-3-0-7-5-3-4-0-7-0-0-0-8-2-66-5-4-4"
         d="m -165.59811,292.34366 0.14772,-0.32669 h 0.46017 l 0.14771,0.32669 -0.14771,0.3267 h -0.46017 z"
         style="fill:#32ff35;fill-opacity:1;fill-rule:evenodd;stroke:none;stroke-width:0.06946699px;stroke-linecap:butt;stroke-linejoin:miter;stroke-opacity:1" />
      <path
         sodipodi:nodetypes="ccccccc"
         inkscape:connector-curvature="0"
         id="path18219-4-9-3-3-2-7-2-2-1-3-3-8-2-9-2-34-3-0-2"
         d="m -164.99022,291.36358 0.14771,-0.3267 h 0.46018 l 0.14771,0.3267 -0.14771,0.32669 h -0.46018 z"
         style="fill:#ff9c18;fill-opacity:1;fill-rule:evenodd;stroke:none;stroke-width:0.06946699px;stroke-linecap:butt;stroke-linejoin:miter;stroke-opacity:1" />
      <path
         sodipodi:nodetypes="ccccccc"
         inkscape:connector-curvature="0"
         id="path18219-4-8-4-0-7-3-1-5-3-0-6-6-9-2-4-1-7-8-5"
         d="m -165.59811,291.03688 0.14772,-0.32669 h 0.46017 l 0.14771,0.32669 -0.14771,0.3267 h -0.46017 z"
         style="fill:#ff1b1a;fill-opacity:1;fill-rule:evenodd;stroke:none;stroke-width:0.06946699px;stroke-linecap:butt;stroke-linejoin:miter;stroke-opacity:1" />
      <path
         sodipodi:nodetypes="ccccccc"
         inkscape:connector-curvature="0"
         id="path18219-4-1-6-3-3-9-9-1-4-1-7-9-5-4-7-7-48-4-7"
         d="m -166.20599,291.36358 0.14771,-0.3267 h 0.46017 l 0.14772,0.3267 -0.14772,0.32669 h -0.46017 z"
         style="fill:#7b1372;fill-opacity:1;fill-rule:evenodd;stroke:none;stroke-width:0.06946699px;stroke-linecap:butt;stroke-linejoin:miter;stroke-opacity:1" />
      <path
         sodipodi:nodetypes="ccccccc"
         inkscape:connector-curvature="0"
         id="path18219-4-6-1-3-3-0-7-6-8-6-3-3-7-5-9-13-0-4-2"
         d="m -166.20599,292.01697 0.14771,-0.3267 h 0.46017 l 0.14772,0.3267 -0.14772,0.32669 h -0.46017 z"
         style="fill:#0054ff;fill-opacity:1;fill-rule:evenodd;stroke:none;stroke-width:0.06946699px;stroke-linecap:butt;stroke-linejoin:miter;stroke-opacity:1" />
      <path
         sodipodi:nodetypes="ccccc"
         inkscape:connector-curvature="0"
         id="path18219-4-8-4-5-7-9-7-6-1-5-7-2-3-4-1-8-0-0-8-7"
         d="m -164.99022,290.71019 0.14771,0.32669 -0.14771,0.3267 h -0.46017 z"
         style="fill:#000000;fill-opacity:0.20444444;fill-rule:evenodd;stroke:none;stroke-width:0.06946699px;stroke-linecap:butt;stroke-linejoin:miter;stroke-opacity:1" />
      <path
         sodipodi:nodetypes="ccccc"
         inkscape:connector-curvature="0"
         id="path18219-4-8-4-5-6-9-2-2-8-3-8-5-2-7-6-0-5-8-1-2-4"
         d="m -164.38233,291.03688 0.14771,0.3267 -0.14771,0.32669 h -0.46018 z"
         style="fill:#000000;fill-opacity:0.20444444;fill-rule:evenodd;stroke:none;stroke-width:0.06946699px;stroke-linecap:butt;stroke-linejoin:miter;stroke-opacity:1" />
      <path
         sodipodi:nodetypes="ccccc"
         inkscape:connector-curvature="0"
         id="path18219-4-8-4-5-6-1-4-4-7-2-7-2-7-1-4-4-0-4-2-64-4-4"
         d="m -164.38233,291.69028 0.14771,0.32669 -0.14771,0.32669 h -0.46018 z"
         style="fill:#000000;fill-opacity:0.20444444;fill-rule:evenodd;stroke:none;stroke-width:0.06946699px;stroke-linecap:butt;stroke-linejoin:miter;stroke-opacity:1" />
      <path
         sodipodi:nodetypes="ccccc"
         inkscape:connector-curvature="0"
         id="path18219-4-8-4-5-6-7-9-4-2-0-7-2-8-5-3-9-1-7-9-5-2-0"
         d="m -164.99022,292.01697 0.14771,0.32669 -0.14771,0.3267 h -0.46017 z"
         style="fill:#000000;fill-opacity:0.20444444;fill-rule:evenodd;stroke:none;stroke-width:0.06946699px;stroke-linecap:butt;stroke-linejoin:miter;stroke-opacity:1" />
      <path
         sodipodi:nodetypes="ccccc"
         inkscape:connector-curvature="0"
         id="path18219-4-8-4-5-6-2-9-4-9-6-1-0-8-3-7-1-3-8-0-8-7-5"
         d="m -165.59811,291.69028 0.14772,0.32669 -0.14772,0.32669 h -0.46017 z"
         style="fill:#000000;fill-opacity:0.20444444;fill-rule:evenodd;stroke:none;stroke-width:0.06946699px;stroke-linecap:butt;stroke-linejoin:miter;stroke-opacity:1" />
      <path
         sodipodi:nodetypes="ccccc"
         inkscape:connector-curvature="0"
         id="path18219-4-8-4-5-6-29-1-9-0-4-2-6-9-3-1-2-3-6-10-3-7-6"
         d="m -165.59811,291.03688 0.14772,0.3267 -0.14772,0.32669 h -0.46017 z"
         style="fill:#000000;fill-opacity:0.20444444;fill-rule:evenodd;stroke:none;stroke-width:0.06946699px;stroke-linecap:butt;stroke-linejoin:miter;stroke-opacity:1" />
      <path
         sodipodi:nodetypes="ccccccc"
         inkscape:connector-curvature="0"
         id="path18219-4-6-1-3-3-0-7-6-0-6-7-2-9-1-0-0-1-2-9-0"
         d="m -165.80019,291.69028 0.22674,-0.5015 h 0.70639 l 0.22675,0.5015 -0.22675,0.50149 h -0.70639 z"
         style="fill:#ffffff;fill-opacity:1;fill-rule:evenodd;stroke:none;stroke-width:0.10663532px;stroke-linecap:butt;stroke-linejoin:miter;stroke-opacity:1" />
      <path
         sodipodi:nodetypes="ccccccc"
         inkscape:connector-curvature="0"
         id="path18219-4-6-1-3-3-0-7-6-0-6-7-2-9-1-0-0-4-67-2-3-0"
         d="m -165.80019,291.69028 0.22674,-0.5015 h 0.70639 l 0.22675,0.5015 -0.22675,0.50149 h -0.70639 z"
         style="fill:#cacaca;fill-opacity:1;fill-rule:evenodd;stroke:none;stroke-width:0.10663532px;stroke-linecap:butt;stroke-linejoin:miter;stroke-opacity:1" />
      <path
         sodipodi:nodetypes="ccccc"
         inkscape:connector-curvature="0"
         id="path18219-4-8-4-5-6-2-9-4-9-6-1-8-1-8-8-6-8-0-6-3-88-9-9-4"
         d="m -164.86706,291.18879 0.22675,0.50149 -0.22675,0.50149 h -0.70639 z"
         style="fill:#000000;fill-opacity:0.20444444;fill-rule:evenodd;stroke:none;stroke-width:0.10663532px;stroke-linecap:butt;stroke-linejoin:miter;stroke-opacity:1" />
    </g>
    <g
       id="g32441-5-8-0"
       transform="matrix(0.77435422,-0.06026654,0.06026654,0.77435422,197.38183,-78.252208)">
      <path
         id="path23307-5-6-4-0-4-3-54-4-3"
         d="m -146.22315,298.1504 c -0.069,0.0248 -0.19476,0.10733 -0.45853,0.27774 -0.25344,0.16378 -0.56989,0.36515 -0.70338,0.4474 -0.24243,0.14934 -0.24257,0.14938 -0.26827,0.11844 -0.0321,-0.0386 -0.0648,-0.0334 -0.12391,0.0203 -0.0315,0.0286 -0.0435,0.0554 -0.038,0.0842 0.008,0.0419 0.006,0.0427 -0.35076,0.27737 -0.24822,0.16296 -0.37437,0.23843 -0.41008,0.24492 -0.0835,0.0156 -0.0719,-0.0277 0.0257,-0.0945 0.0656,-0.0448 0.0851,-0.0659 0.0753,-0.0818 -0.01,-0.0149 -0.0302,-0.0108 -0.0686,0.0121 -0.0743,0.0448 -0.1326,0.0386 -0.15005,-0.0167 -0.0138,-0.0434 -0.0511,-0.0587 -0.0511,-0.0213 -6e-5,0.0372 -0.0691,0.0642 -0.11391,0.0448 l -0.0434,-0.0189 -0.45982,0.28243 -0.45966,0.28293 -0.0424,-0.059 c -0.0478,-0.0663 -0.10774,-0.0805 -0.17237,-0.0408 -0.0386,0.0237 -0.039,0.0236 -0.14107,-0.1202 -0.1113,-0.15673 -0.16685,-0.19789 -0.22161,-0.1641 -0.0181,0.0117 -0.0415,0.0405 -0.0519,0.0646 -0.0181,0.0418 -0.014,0.0515 0.0906,0.21294 0.10967,0.16931 0.18641,0.32728 0.17243,0.35514 -0.004,0.008 -0.0255,0.0139 -0.0475,0.0142 -0.0322,2.3e-4 -0.0455,0.008 -0.0654,0.0427 -0.0204,0.0355 -0.0314,0.0418 -0.0599,0.0378 -0.027,-0.004 -0.0406,0.004 -0.0613,0.035 -0.0196,0.0292 -0.0373,0.0406 -0.0667,0.0421 -0.0545,0.003 -2.73628,1.65787 -2.7638,1.70524 -0.0274,0.0471 -0.054,0.0406 -0.0931,-0.0229 -0.0398,-0.0647 -0.0922,-0.0802 -0.17022,-0.0516 l -0.0526,0.0189 -0.0764,-0.12388 c -0.0626,-0.10162 -0.0885,-0.13102 -0.14483,-0.16168 -0.0788,-0.0429 -0.10949,-0.042 -0.13631,0.004 -0.0217,0.0373 -0.0168,0.0475 0.15782,0.32068 0.0771,0.12064 0.12355,0.20668 0.1251,0.23283 0.003,0.0456 -0.0472,0.0865 -0.0917,0.0759 -0.0209,-0.005 -0.0303,0.002 -0.0389,0.0268 -0.009,0.0269 -0.0242,0.0368 -0.0769,0.0494 -0.0681,0.0162 -0.49379,0.28416 -0.64651,0.4067 -0.0956,0.0767 -0.10355,0.102 -0.0542,0.17046 0.0483,0.0671 0.0384,0.0892 -0.0689,0.15919 -0.0787,0.0513 -1.31476,0.78291 -2.07017,1.22515 l -0.39943,0.23364 -0.0136,0.0591 c -0.012,0.0504 -0.006,0.0726 0.0425,0.15178 0.0314,0.051 0.0788,0.11146 0.10533,0.13412 0.0265,0.0227 0.0756,0.0744 0.10885,0.11526 0.14119,0.17365 0.59622,0.69758 0.61328,0.70616 0.0102,0.005 0.0838,0.10706 0.16371,0.22668 0.10237,0.15327 0.1555,0.22148 0.18029,0.22984 0.031,0.0105 0.0786,-0.0151 0.39925,-0.21257 0.34598,-0.21306 0.36485,-0.22692 0.38383,-0.27861 0.025,-0.0681 -0.001,-0.11257 -0.0877,-0.14746 -0.0834,-0.0336 -0.10493,-0.066 -0.085,-0.12938 0.008,-0.027 0.10821,-0.22439 0.22162,-0.43888 0.11342,-0.21451 0.22981,-0.43702 0.25852,-0.49412 0.0654,-0.13014 0.1196,-0.19592 0.27485,-0.33289 0.0677,-0.0597 0.15129,-0.14632 0.18574,-0.19247 0.0735,-0.0985 0.0696,-0.1495 -0.0221,-0.30136 l -0.0561,-0.0938 0.0655,-0.0335 0.0649,-0.0339 0.071,0.0985 c 0.0819,0.114 0.13493,0.14113 0.27949,0.14303 0.10891,10e-4 0.1776,0.0387 0.23115,0.12565 0.0333,0.0541 0.0385,0.0924 0.0314,0.24411 -0.005,0.099 -0.0159,0.22853 -0.0246,0.2878 -0.0221,0.15 -0.0219,0.43742 2.5e-4,0.58401 0.016,0.10587 0.0233,0.12405 0.0518,0.13014 0.0277,0.006 0.449,-0.0526 0.71827,-0.0997 l 1.6e-4,5.1e-4 c 0.0404,-0.007 0.0859,-0.0225 0.10085,-0.0343 0.0353,-0.0274 0.0153,-0.078 -0.0365,-0.0932 -0.0379,-0.011 -0.0445,-0.0414 -0.10669,-0.48535 -0.0365,-0.26065 -0.0631,-0.48867 -0.0591,-0.50658 0.006,-0.026 0.0822,-0.0783 0.38035,-0.26139 0.20514,-0.12598 0.41065,-0.25022 0.45649,-0.2755 0.007,-0.004 0.0632,-0.0547 0.0818,-0.0692 0.22858,0.28786 0.84352,0.84907 0.85294,0.87834 0.014,0.0431 0.10464,0.0826 0.13757,0.0597 0.0268,-0.0186 0.59569,-0.70224 0.61394,-0.73782 0.005,-0.009 -2.1e-4,-0.0266 -0.011,-0.0388 -0.0108,-0.0122 -0.0296,-0.016 -0.0419,-0.009 -0.0125,0.007 -0.0468,0.005 -0.077,-0.007 -0.0232,-0.009 -0.56871,-0.44204 -0.87257,-0.68048 0.0281,-0.0273 0.0938,-0.0853 0.10579,-0.099 0.0255,-0.0293 0.008,-0.061 -0.0363,-0.0673 -0.0266,-0.004 -0.0574,-0.044 -0.15266,-0.19872 -0.13417,-0.21781 -0.13516,-0.22179 -0.0518,-0.36312 0.0508,-0.0862 0.17991,-0.16952 0.24416,-0.15758 0.0416,0.008 0.11689,-0.037 1.21318,-0.71781 0.64292,-0.39934 1.17821,-0.73626 1.18981,-0.74911 0.0282,-0.0315 -0.0544,-0.17313 -0.0951,-0.16307 -0.0843,0.0221 -0.0885,0.0181 -0.0377,-0.0286 0.0284,-0.0263 0.18718,-0.13209 0.3532,-0.23494 0.17149,-0.10622 0.30424,-0.19699 0.30728,-0.20989 0.007,-0.0283 0.78503,-0.51499 0.81255,-0.50808 0.0113,0.003 0.0363,0.0266 0.0564,0.0533 0.0356,0.0474 0.0378,0.0477 0.10872,0.0101 0.0752,-0.0399 0.0768,-0.0456 0.0306,-0.10891 -0.0121,-0.0162 -0.0174,-0.0479 -0.0116,-0.0704 0.009,-0.0363 0.0365,-0.0556 0.26695,-0.186 0.352,-0.19929 0.47509,-0.27353 0.83476,-0.5023 0.35736,-0.2273 0.35417,-0.22275 0.26827,-0.36221 -0.0392,-0.0637 -0.0522,-0.0981 -0.1213,-0.0738 z m -4.29277,2.62254 c 0.008,-0.005 0.0146,-1.9e-4 0.0147,0.0113 0,0.0112 -0.006,0.0246 -0.0145,0.0292 -0.008,0.005 -0.0146,1.9e-4 -0.0147,-0.0113 1e-5,-0.0112 0.006,-0.0246 0.0145,-0.0292 z m -0.22056,0.13549 c 0.008,-0.005 0.0146,-1.8e-4 0.0147,0.0113 0,0.0112 -0.007,0.0252 -0.0148,0.0298 -0.008,0.005 -0.0146,1.9e-4 -0.0147,-0.0113 1e-5,-0.0112 0.007,-0.0252 0.0148,-0.0298 z m -0.19539,0.11504 c 0.004,0.006 -9e-4,0.0285 -0.0109,0.0485 -0.01,0.0203 -0.022,0.0299 -0.0269,0.022 -0.005,-0.008 6e-5,-0.0299 0.0109,-0.0485 0.0109,-0.0185 0.023,-0.0282 0.0269,-0.022 z m -0.22706,0.13358 c 0.008,0.002 0.007,0.021 -8.5e-4,0.0423 -0.0178,0.0456 -0.0332,0.0593 -0.0454,0.0394 -0.0111,-0.018 0.0273,-0.0865 0.0462,-0.0817 z m 0.14429,0.32958 c 0.008,-0.006 0.0227,-0.006 0.0328,-3.9e-4 0.0101,0.005 0.0115,0.0139 0.003,0.0184 -0.008,0.006 -0.0222,0.006 -0.0323,2.5e-4 -0.0101,-0.005 -0.0119,-0.0132 -0.004,-0.0178 z m -1.57319,1.69905 0.0892,0.0262 c 0.11597,0.0338 0.15906,0.0978 0.15727,0.23402 l -0.001,0.0958 -0.20337,0.12441 c -0.21675,0.133 -0.24812,0.14227 -0.34447,0.10707 -0.11361,-0.0419 -0.17021,-0.16563 -0.12401,-0.27252 0.0326,-0.0754 0.0489,-0.0711 0.10782,0.0287 0.0402,0.068 0.0709,0.10103 0.11335,0.12308 0.0608,0.0316 0.10369,0.0276 0.0572,-0.005 -0.0869,-0.0613 -0.12153,-0.13998 -0.10634,-0.24221 0.01,-0.0666 0.0141,-0.0712 0.13224,-0.14413 z m -2.96135,1.37431 c 0.02,-0.007 0.0326,-0.009 0.0354,-0.004 0.016,0.0258 -0.0526,0.12619 -0.16352,0.23977 -0.0883,0.0905 -0.0998,0.13323 -0.0401,0.14736 0.0306,0.007 0.0467,-0.003 0.13294,-0.084 0.054,-0.0509 0.13116,-0.13582 0.17188,-0.18833 0.0812,-0.10504 0.17668,-0.17433 0.20732,-0.15096 0.0358,0.0274 0.052,0.0998 0.0358,0.16136 -0.009,0.0336 -0.10934,0.24363 -0.22299,0.46679 -0.11367,0.22316 -0.23897,0.47012 -0.27888,0.54873 -0.0811,0.15993 -0.11297,0.18893 -0.1866,0.16793 -0.0819,-0.0233 -0.11193,-0.0604 -0.12114,-0.15097 -0.007,-0.0735 -0.0166,-0.0922 -0.0915,-0.18517 -0.0458,-0.0569 -0.10896,-0.14283 -0.14064,-0.19097 -0.0532,-0.0809 -0.0572,-0.0969 -0.0505,-0.20875 0.004,-0.0666 0.0177,-0.13889 0.0307,-0.16073 0.0398,-0.0667 0.54161,-0.3603 0.68171,-0.40804 z"
         style="fill:#00ebff;fill-opacity:1;stroke-width:0.01727774"
         inkscape:connector-curvature="0" />
      <path
         transform="matrix(0.19291867,-0.11883134,0.11883134,0.19291867,-169.18946,295.93369)"
         inkscape:connector-curvature="0"
         id="path23307-5-5-9-8-4-5-8-6-0-2"
         d="m 43.922445,57.321898 c -0.04313,0.004 -0.08921,0.0203 -0.141076,0.04806 -0.167782,0.0898 -0.172619,0.139633 -0.148828,1.570445 0.01051,0.631811 -0.01525,1.061386 -0.06976,1.163238 -0.09412,0.175807 -0.377288,0.215431 -0.519864,0.07286 -0.06686,-0.0669 -0.117295,-0.06413 -0.208256,0.01137 -0.09634,0.0796 -0.176152,0.08133 -0.403593,0.0072 -0.293812,-0.09571 -2.514348,-0.07436 -3.371887,0.03256 -0.536644,0.06691 -0.625223,0.142859 -0.598413,0.514181 0.02626,0.363688 -0.06029,0.424849 -0.625801,0.439248 -0.414513,0.01056 -6.753067,-0.102434 -10.615373,-0.189135 l -2.041219,-0.04599 -0.189136,0.189654 c -0.161717,0.161718 -0.189652,0.260093 -0.189652,0.670242 0,0.264311 0.03866,0.600215 0.08578,0.746726 0.04713,0.14651 0.110269,0.455075 0.14056,0.685747 0.128606,0.979329 0.625973,4.001534 0.670243,4.073136 0.02653,0.04293 0.06712,0.596987 0.09043,1.231447 0.02987,0.81298 0.07352,1.191125 0.147277,1.280025 0.09218,0.111091 0.329198,0.126093 1.991093,0.126093 1.793302,0 1.896757,-0.0079 2.087728,-0.158131 0.251744,-0.198009 0.254879,-0.425601 0.01034,-0.75706 -0.235728,-0.319508 -0.240587,-0.491649 -0.01912,-0.683678 0.09436,-0.08182 0.926304,-0.593373 1.848983,-1.136883 0.922679,-0.54352 1.874022,-1.109565 2.114083,-1.257803 0.546906,-0.337722 0.902545,-0.459041 1.80299,-0.614434 0.392705,-0.06777 0.907817,-0.199821 1.144116,-0.29352 0.504138,-0.199962 0.608467,-0.401495 0.615467,-1.184426 l 0.0047,-0.481108 0.324012,0.02377 0.324011,0.02325 0.03824,0.535885 c 0.04396,0.61804 0.179999,0.842195 0.718818,1.183907 0.406016,0.257487 0.577228,0.556522 0.577228,1.007173 0,0.280429 -0.07029,0.436023 -0.448035,0.989603 -0.246433,0.36114 -0.586663,0.821798 -0.756544,1.024228 -0.430218,0.512638 -1.095417,1.59357 -1.351339,2.195732 -0.184781,0.434769 -0.199553,0.519531 -0.106453,0.60823 0.09042,0.08619 1.808777,0.842261 2.929536,1.288812 0.167759,0.06683 0.37337,0.113903 0.456819,0.104902 0.196202,-0.02145 0.239721,-0.256659 0.0801,-0.433049 -0.11689,-0.129159 -0.07111,-0.260266 0.722953,-2.072225 0.466241,-1.06391 0.893821,-1.981253 0.950331,-2.039151 0.08213,-0.08406 0.490233,-0.104836 2.0345,-0.102836 1.062529,0.0013 2.120606,0.01134 2.351278,0.02274 0.05976,0.003 0.240749,-0.01855 0.463537,-0.04909 0.204906,1.629582 1.209267,5.124302 1.177189,5.254977 -0.04773,0.19445 0.201634,0.552537 0.378272,0.543118 0.143627,-0.008 3.864327,-1.259382 4.015259,-1.350822 0.03918,-0.02374 0.06112,-0.100928 0.04857,-0.171564 0,0 0,-5.19e-4 0,-5.19e-4 -0.01295,-0.07058 -0.07527,-0.128632 -0.13849,-0.129191 -0.06336,-6.61e-4 -0.186974,-0.09208 -0.274402,-0.203604 -0.06094,-0.07774 -1.060125,-2.841448 -1.690855,-4.563028 0.275096,-0.05785 0.50849,-0.109736 0.615466,-0.143145 0.163656,-0.05111 0.172146,-0.208995 0.01861,-0.336413 -0.0911,-0.07561 -0.114208,-0.299823 -0.114208,-1.101743 3e-6,-1.129041 0.0068,-1.144902 0.646991,-1.483114 0.390353,-0.206219 1.066681,-0.2203 1.280541,-0.02687 0.138361,0.125129 0.525172,0.131987 6.220809,0.110588 3.340264,-0.0125 6.133465,-0.04083 6.206855,-0.06253 0.178695,-0.05291 0.194842,-0.776891 0.01861,-0.83199 -0.367303,-0.11475 -0.375489,-0.136753 -0.07596,-0.195853 0.167757,-0.033 1.009849,-0.06208 1.871721,-0.06408 0.89036,-0.0025 1.598718,-0.03601 1.640208,-0.07752 0.09094,-0.0909 4.143322,-0.119155 4.230751,-0.02946 0.03438,0.03527 0.07334,0.184457 0.08682,0.331247 0.02389,0.260329 0.0338,0.267203 0.387059,0.289904 0.375256,0.02408 0.393305,0.0076 0.366384,-0.337447 -0.0069,-0.08907 0.04566,-0.22089 0.117306,-0.292489 0.116681,-0.116699 0.266242,-0.124848 1.43402,-0.08165 1.784043,0.066 2.417892,0.07258 4.298963,0.04547 1.868906,-0.02698 1.846916,-0.01817 1.846916,-0.74104 0,-0.660109 0.121217,-0.634243 -2.649968,-0.574643 -1.331426,0.0287 -2.986834,0.05219 -3.678844,0.05219 -1.256617,0 -1.258175,-2.06e-4 -1.283126,-0.176218 -0.03107,-0.219318 -0.16647,-0.274288 -0.513148,-0.209288 -0.18487,0.03469 -0.290899,0.106297 -0.336929,0.227375 -0.06694,0.17603 -0.07368,0.176594 -1.960089,0.230995 -1.309923,0.0378 -1.959509,0.02918 -2.108914,-0.02842 -0.349742,-0.134929 -0.204219,-0.270388 0.317294,-0.29559 0.350125,-0.0169 0.47077,-0.05144 0.47077,-0.133842 0,-0.07667 -0.08823,-0.11117 -0.286287,-0.11317 -0.383204,-0.0033 -0.585531,-0.161033 -0.523481,-0.408244 0.04863,-0.19345 -0.05591,-0.340815 -0.142626,-0.200504 -0.08612,0.139319 -0.408152,0.0824 -0.531752,-0.09405 L 68.109148,60.1501 65.727898,60.148 63.346132,60.1459 63.322882,59.825506 c -0.02625,-0.35977 -0.219044,-0.551905 -0.553972,-0.551905 -0.199853,0 -0.200279,-0.0015 -0.251148,-0.77773 -0.05547,-0.846481 -0.168772,-1.128614 -0.452686,-1.128614 -0.09455,0 -0.249692,0.05442 -0.34468,0.120922 -0.16487,0.11548 -0.171837,0.161793 -0.152445,1.010793 0.02031,0.890148 -0.05713,1.660409 -0.174152,1.732709 -0.03424,0.0211 -0.129905,-0.004 -0.212907,-0.05581 -0.121023,-0.0755 -0.189069,-0.0734 -0.343646,0.0093 -0.158245,0.0845 -0.214226,0.08482 -0.312127,0.0036 -0.09269,-0.0769 -0.161785,-0.07915 -0.311607,-0.01085 -0.141026,0.0641 -0.234974,0.06533 -0.349335,0.0041 -0.212381,-0.113657 -14.118423,-0.103137 -14.331423,0.01085 -0.211974,0.11345 -0.296625,0.02693 -0.296625,-0.302308 0,-0.334949 -0.160128,-0.515562 -0.519864,-0.58756 l -0.242879,-0.04858 V 58.61157 c 0,-0.526743 -0.03093,-0.696351 -0.171567,-0.942062 -0.147531,-0.257791 -0.249912,-0.359746 -0.379304,-0.347781 z m 11.709363,4.030244 c 0.01405,0.0011 0.02502,0.0049 0.03256,0.0124 0.02479,0.0248 -0.02098,0.09548 -0.101804,0.156581 -0.172471,0.1305 -0.260966,0.144846 -0.260966,0.04237 0,-0.0816 0.231854,-0.218752 0.330213,-0.211357 z m 1.1498,0.01654 c 0.02764,-0.0038 0.04496,0.002 0.04496,0.0186 0,0.03333 -0.06856,0.103664 -0.152445,0.156062 -0.08448,0.0527 -0.152445,0.06177 -0.152445,0.02067 0,-0.04082 0.06857,-0.110646 0.152445,-0.155546 0.04194,-0.02245 0.07985,-0.03599 0.107487,-0.03979 z m 1.045414,0.03979 c 0.04196,0 0.05487,0.03406 0.02894,0.07596 -0.02592,0.042 -0.08157,0.07648 -0.123508,0.07648 -0.04196,0 -0.05487,-0.03458 -0.02894,-0.07648 0.02592,-0.042 0.08156,-0.07596 0.123505,-0.07596 z m 1.1436,0 c 0.04196,0 0.05487,0.03406 0.02894,0.07596 -0.02592,0.042 -0.08105,0.07648 -0.122989,0.07648 -0.04196,0 -0.05539,-0.03458 -0.02946,-0.07648 0.02592,-0.042 0.08157,-0.07596 0.123507,-0.07596 z m -3.525882,1.524971 c 0.04194,0 0.09757,0.03406 0.123505,0.07596 0.02592,0.0419 0.013,0.07648 -0.02894,0.07648 -0.04194,0 -0.09758,-0.03458 -0.123507,-0.07648 -0.02592,-0.042 -0.013,-0.07596 0.02894,-0.07596 z m -26.353431,0.916742 c 1.052459,0.0019 2.342493,0.08546 2.342493,0.205155 0,0.133908 -0.489834,0.353251 -1.169438,0.523481 -0.541045,0.13553 -0.684826,0.27015 -0.49351,0.46147 0.09825,0.09784 0.182299,0.0965 0.694531,-0.0093 0.32062,-0.06623 0.807978,-0.205129 1.082622,-0.308509 0.548105,-0.206301 1.067126,-0.246751 1.128096,-0.08785 0.07134,0.18591 -0.03591,0.495028 -0.239262,0.688845 -0.111188,0.105971 -0.97458,0.663194 -1.918229,1.238687 -0.94365,0.57549 -1.987279,1.212773 -2.319238,1.415934 v 5.15e-4 c -0.674981,0.413081 -0.861755,0.44713 -1.089856,0.197922 -0.253731,-0.27722 -0.279428,-0.484354 -0.104386,-0.845944 0.14219,-0.293741 0.151009,-0.385882 0.08475,-0.908471 -0.04055,-0.319849 -0.08025,-0.789596 -0.08785,-1.043863 -0.01281,-0.427011 0.0097,-0.495933 0.293522,-0.900721 0.169028,-0.241041 0.388446,-0.480468 0.487826,-0.532268 0.130216,-0.06788 0.676455,-0.0962 1.30793,-0.09508 z m 15.875518,1.82831 h 0.632518 l 0.275953,0.305409 c 0.357478,0.39569 0.370665,0.734928 0.04857,1.242817 l -0.227375,0.358634 -1.050065,-0.0031 c -1.122098,-0.0029 -1.264034,-0.03923 -1.544093,-0.396356 -0.329869,-0.42065 -0.253653,-1.017124 0.167431,-1.312066 0.296847,-0.20792 0.348081,-0.153898 0.338482,0.357603 -0.0065,0.348668 0.03088,0.543192 0.139525,0.724503 0.155363,0.259289 0.326078,0.344985 0.227378,0.114205 -0.184542,-0.431512 -0.132022,-0.807916 0.161747,-1.157036 0.191252,-0.22765 0.217226,-0.234612 0.829924,-0.234612 z"
         style="fill:#00ffff;fill-opacity:1;stroke-width:0.07625448;filter:url(#filter23416-2-9-9-0-2-4-5-1)" />
    </g>
    <g
       id="g32503-3-8-0"
       transform="matrix(0.57632306,0,0,0.57632306,192.35122,-9.3742981)">
      <path
         id="path17920-3-2-1-9-5-8-54-3-9-1-0-8"
         d="m -144.83619,296.23356 -0.93019,1.6044 -0.97349,-1.61007 0.48374,1.81824 -1.80072,-0.44364 1.60501,0.93048 -1.61071,0.97317 1.81822,-0.48369 -0.44358,1.80073 0.93021,-1.60442 0.97346,1.61009 -0.48436,-1.81851 1.80136,0.4439 -1.60438,-0.93025 1.61003,-0.97348 -1.81824,0.48363 z"
         style="fill:#10ff11;fill-opacity:1;fill-rule:evenodd;stroke:none;stroke-width:0.06095166;stroke-linecap:butt;stroke-linejoin:miter;stroke-miterlimit:4;stroke-dasharray:none;stroke-opacity:1"
         inkscape:connector-curvature="0" />
      <path
         inkscape:connector-curvature="0"
         id="path25065-7-6-3-6-4-0-3-2-5-6"
         d="m -146.68791,300.82318 1.85172,-4.58962 -0.44364,1.80058 1.81824,-0.48363 -1.61003,0.97348 1.60438,0.93025 -1.80136,-0.4439 0.48436,1.81851 -0.97347,-1.61008 z"
         style="fill:#000000;fill-opacity:0.19607843;fill-rule:evenodd;stroke:none;stroke-width:0.30475831px;stroke-linecap:butt;stroke-linejoin:miter;stroke-opacity:1" />
      <path
         id="path17920-3-2-1-9-5-9-7-5-0-9-9"
         d="m -151.30261,297.59457 -1.43045,0.41771 0.32617,-1.47623 -0.72646,1.32585 -0.80161,-1.25623 0.4179,1.43095 -1.47642,-0.3267 1.32581,0.72648 -1.25619,0.80164 1.43046,-0.41771 -0.3262,1.47623 0.72625,-1.32636 0.80185,1.25674 -0.41767,-1.43047 1.4762,0.32616 -1.3258,-0.72653 z"
         style="fill:#e700ff;fill-opacity:0.59803922;fill-rule:evenodd;stroke:none;stroke-width:0.04897651;stroke-linecap:butt;stroke-linejoin:miter;stroke-miterlimit:4;stroke-dasharray:none;stroke-opacity:1"
         inkscape:connector-curvature="0" />
      <path
         inkscape:connector-curvature="0"
         id="path25065-7-6-3-67-2-4-6-0-9"
         d="m -154.92386,299.23804 3.62125,-1.64347 -1.25616,0.80153 1.3258,0.72653 -1.4762,-0.32616 0.41767,1.43047 -0.80185,-1.25674 -0.72625,1.32636 0.32619,-1.47623 z"
         style="fill:#e700ff;fill-opacity:0.59803922;fill-rule:evenodd;stroke:none;stroke-width:0.24488255px;stroke-linecap:butt;stroke-linejoin:miter;stroke-opacity:1" />
      <path
         inkscape:connector-curvature="0"
         id="path17920-3-5-9-2-9-1-5-9-2"
         d="m -144.03224,304.33562 -2.69434,0.0747 1.24782,-2.4332 -1.87916,1.98649 -0.82654,-2.56552 0.0746,2.69534 -2.43337,-1.24875 1.98647,1.87915 -2.56556,0.82634 2.69431,-0.0747 -1.24773,2.43322 1.87898,-1.98752 0.82675,2.56657 -0.0745,-2.69441 2.43321,1.2478 -1.98655,-1.87917 z"
         style="fill:#ffff11;fill-opacity:1;fill-rule:evenodd;stroke:none;stroke-width:0.05838554;stroke-linecap:butt;stroke-linejoin:miter;stroke-miterlimit:4;stroke-dasharray:none;stroke-opacity:1" />
      <path
         id="path17920-3-2-1-9-10-9-2-1-1-3"
         d="m -151.6959,301.41275 -1.42121,1.06584 -0.25488,-1.78417 -0.25486,1.78417 -1.42123,-1.06584 1.06627,1.42169 -1.7846,0.25436 1.78412,0.25491 -1.06579,1.42125 1.42123,-1.06585 0.25486,1.78417 0.25441,-1.78463 1.4217,1.06631 -1.06581,-1.42125 1.78413,-0.25491 -1.78413,-0.25494 z"
         style="fill:#ff0005;fill-opacity:1;fill-rule:evenodd;stroke:none;stroke-width:0.05838554;stroke-linecap:butt;stroke-linejoin:miter;stroke-miterlimit:4;stroke-dasharray:none;stroke-opacity:1"
         inkscape:connector-curvature="0" />
      <path
         id="path17920-3-2-4-2-2-1-3-2-9-8-5"
         d="m -148.94011,299.37096 -0.7588,0.69306 -0.24637,-1.01308 -0.047,1.04155 -0.87787,-0.53426 0.69339,0.75898 -1.0134,0.24584 1.04155,0.0472 -0.53429,0.87789 0.75879,-0.69306 0.24636,1.01303 0.0468,-1.04178 0.87817,0.53453 -0.69307,-0.75879 1.01303,-0.24655 -1.04153,-0.0472 z"
         style="fill:#00c4ff;fill-opacity:1;fill-rule:evenodd;stroke:none;stroke-width:0.05838554;stroke-linecap:butt;stroke-linejoin:miter;stroke-miterlimit:4;stroke-dasharray:none;stroke-opacity:1"
         inkscape:connector-curvature="0" />
      <path
         sodipodi:nodetypes="cccccccccc"
         inkscape:connector-curvature="0"
         id="path17920-3-21-9-9-3-0-7-4-2-4"
         d="m -150.54319,302.84468 1.98646,1.87915 -2.56555,0.82634 2.69431,-0.0747 -1.24774,2.43322 1.87898,-1.98752 0.82675,2.56657 -0.0745,-2.69441 2.43321,1.2478 z"
         style="fill:#000000;fill-opacity:0.19607843;fill-rule:evenodd;stroke:none;stroke-width:0.05838554;stroke-linecap:butt;stroke-linejoin:miter;stroke-miterlimit:4;stroke-dasharray:none;stroke-opacity:1" />
      <path
         inkscape:connector-curvature="0"
         id="path25065-7-6-7-2-7-4-8-8"
         d="m -155.04808,304.76496 3.35218,-3.35221 -1.06579,1.42111 1.78413,0.25494 -1.78413,0.25491 1.06581,1.42125 -1.4217,-1.06631 -0.25441,1.78463 -0.25488,-1.78417 z"
         style="fill:#000000;fill-opacity:0.19607843;fill-rule:evenodd;stroke:none;stroke-width:0.29192767px;stroke-linecap:butt;stroke-linejoin:miter;stroke-opacity:1" />
      <path
         inkscape:connector-curvature="0"
         id="path25067-3-5-7-7-9-6-7-1"
         d="m -150.68291,301.48813 1.7428,-2.11717 -0.53423,0.87737 1.04153,0.0472 -1.01303,0.24655 0.69307,0.75879 -0.87817,-0.53453 -0.0468,1.04178 -0.24636,-1.01303 z"
         style="fill:#000000;fill-opacity:0.19607843;fill-rule:evenodd;stroke:none;stroke-width:0.29192767px;stroke-linecap:butt;stroke-linejoin:miter;stroke-opacity:1" />
      <path
         id="path17920-3-2-4-2-2-7-6-9-1-8-6-0"
         d="m -143.59594,301.63809 -0.35467,0.33775 -0.12744,-0.48026 -0.0121,0.49673 -0.42358,-0.24586 0.33791,0.35477 -0.48042,0.12721 0.49674,0.0121 -0.24587,0.42358 0.35467,-0.33775 0.12744,0.48024 0.012,-0.49684 0.42372,0.24597 -0.33775,-0.35467 0.48024,-0.12749 -0.49673,-0.0121 z"
         style="fill:#ff7900;fill-opacity:1;fill-rule:evenodd;stroke:none;stroke-width:0.02782525;stroke-linecap:butt;stroke-linejoin:miter;stroke-miterlimit:4;stroke-dasharray:none;stroke-opacity:1"
         inkscape:connector-curvature="0" />
      <path
         inkscape:connector-curvature="0"
         id="path25067-3-5-3-3-9-4-1-8-7"
         d="m -144.40533,302.6642 0.8094,-1.02607 -0.24584,0.42334 0.49673,0.0121 -0.48025,0.12749 0.33776,0.35467 -0.42373,-0.24597 -0.012,0.49684 -0.12743,-0.48024 z"
         style="fill:#000000;fill-opacity:0.19607843;fill-rule:evenodd;stroke:none;stroke-width:0.13912623px;stroke-linecap:butt;stroke-linejoin:miter;stroke-opacity:1" />
    </g>
    <path
       style="fill:#373737;fill-opacity:1;fill-rule:evenodd;stroke:none;stroke-width:0.77966273px;stroke-linecap:butt;stroke-linejoin:miter;stroke-opacity:1"
       d="m 78.285145,178.14472 3.11867,-3.89832 v -3.8983 h -3.11864 z"
       id="path32211-0-3-8-8-9"
       inkscape:connector-curvature="0"
       sodipodi:nodetypes="ccccc" />
    <path
       style="fill:#fffa37;fill-opacity:1;fill-rule:evenodd;stroke:none;stroke-width:0.77966273px;stroke-linecap:butt;stroke-linejoin:miter;stroke-opacity:1"
       d="m 82.70145,177.16696 c 0,0 0,-0.77966 0.77965,-0.77966 0.77966,0 0.77966,0.77966 0.77966,0.77966 0,0 0,0.77965 -0.77966,0.77965 -0.77965,0 -0.77965,-0.77965 -0.77965,-0.77965 z"
       id="path32505-1-8-8-7-3"
       inkscape:connector-curvature="0" />
    <g
       id="g4582"
       transform="translate(3.7041668)">
      <path
         inkscape:connector-curvature="0"
         id="path32213-86-8-6-3-2"
         d="m 79.032535,174.24643 v -3.11867 l 1.55933,1.55933 z"
         style="fill:#ffff00;fill-opacity:1;fill-rule:evenodd;stroke:#ff6f00;stroke-width:0.15593256;stroke-linecap:butt;stroke-linejoin:miter;stroke-miterlimit:4;stroke-dasharray:none;stroke-opacity:1" />
      <path
         sodipodi:nodetypes="cccc"
         inkscape:connector-curvature="0"
         id="path32213-8-6-5-4-0-6"
         d="m 80.701515,172.68709 -0.82981,-0.83988 -0.92749,2.58928 z"
         style="fill:#000000;fill-opacity:0.19607843;fill-rule:evenodd;stroke:none;stroke-width:0.15593256;stroke-linecap:butt;stroke-linejoin:miter;stroke-miterlimit:4;stroke-dasharray:none;stroke-opacity:1" />
    </g>
    <path
       style="font-style:normal;font-variant:normal;font-weight:bold;font-stretch:normal;font-size:2.82222223px;line-height:125%;font-family:'Ubuntu Mono';-inkscape-font-specification:'Ubuntu Mono Bold';letter-spacing:0px;word-spacing:0px;fill:#373737;fill-opacity:1;stroke:none;stroke-width:0.26458332px;stroke-linecap:butt;stroke-linejoin:miter;stroke-opacity:1"
       d="m 80.254855,159.59714 c -0.65281,-0.0328 -0.90006,-0.74755 -0.69988,-1.29822 0.13024,-0.49643 0.79379,-0.66714 1.18533,-0.39794 0.0511,0.59371 -0.77711,-0.16505 -0.85515,0.48822 -0.26156,0.62089 0.31603,1.06667 0.8175,0.85781 0.26918,0.38937 -0.43345,0.33085 -0.4478,0.35013 z"
       id="path33474-0-7-6"
       inkscape:connector-curvature="0" />
    <path
       style="font-style:normal;font-variant:normal;font-weight:bold;font-stretch:normal;font-size:2.82222223px;line-height:125%;font-family:'Ubuntu Mono';-inkscape-font-specification:'Ubuntu Mono Bold';letter-spacing:0px;word-spacing:0px;fill:#373737;fill-opacity:1;stroke:none;stroke-width:0.26458332px;stroke-linecap:butt;stroke-linejoin:miter;stroke-opacity:1"
       d="m 81.567805,158.58679 c -0.46587,-0.19588 -0.83705,0.0132 -0.60588,0.55375 0.21579,0.46384 -0.43291,0.76326 -0.47671,0.17544 -0.10122,-0.49373 -0.0292,-1.29634 0.65593,-1.10506 0.28868,0.0143 0.70209,-0.0671 0.42666,0.37587 z"
       id="path33476-2-1-7"
       inkscape:connector-curvature="0" />
    <path
       style="font-style:normal;font-variant:normal;font-weight:bold;font-stretch:normal;font-size:2.82222223px;line-height:125%;font-family:'Ubuntu Mono';-inkscape-font-specification:'Ubuntu Mono Bold';letter-spacing:0px;word-spacing:0px;fill:#373737;fill-opacity:1;stroke:none;stroke-width:0.26458332px;stroke-linecap:butt;stroke-linejoin:miter;stroke-opacity:1"
       d="m 81.254315,158.90852 c -0.0948,-0.65767 0.9354,-1.0157 1.16734,-0.34548 0.36315,0.70787 -0.41937,0.33032 -0.8093,0.44702 -0.0696,0.58233 1.08009,-0.1078 0.75107,0.54361 -0.48077,0.12774 -1.15711,-0.0161 -1.10911,-0.64515 z m 0.889,-0.13829 c 0.11494,-0.54127 -0.9492,-0.0663 -0.35166,0.0573 0.11586,0.003 0.25271,0.0152 0.35166,-0.0573 z"
       id="path33478-7-9-7"
       inkscape:connector-curvature="0" />
    <path
       style="font-style:normal;font-variant:normal;font-weight:bold;font-stretch:normal;font-size:2.82222223px;line-height:125%;font-family:'Ubuntu Mono';-inkscape-font-specification:'Ubuntu Mono Bold';letter-spacing:0px;word-spacing:0px;fill:#373737;fill-opacity:1;stroke:none;stroke-width:0.26458332px;stroke-linecap:butt;stroke-linejoin:miter;stroke-opacity:1"
       d="m 82.695545,158.88877 c -0.0704,0.43833 0.65526,0.62125 0.49662,0.0367 0.1347,-0.55862 -0.53044,-0.55292 -0.49662,-0.0367 z m 0.78176,0.63217 c -0.25104,0.2206 -1.04908,0.0788 -1.11357,-0.41218 -0.17674,-0.4304 0.26177,-1.13764 0.71201,-0.81934 0.14677,-0.15821 -0.11074,-1.08332 0.40156,-0.68764 0.28294,0.44877 0.19869,1.03148 0.13597,1.53545 -0.0287,0.1318 -0.0549,0.27204 -0.13597,0.38371 z"
       id="path33480-2-6-4"
       inkscape:connector-curvature="0" />
    <path
       style="font-style:normal;font-variant:normal;font-weight:bold;font-stretch:normal;font-size:2.82222223px;line-height:125%;font-family:'Ubuntu Mono';-inkscape-font-specification:'Ubuntu Mono Bold';letter-spacing:0px;word-spacing:0px;fill:#373737;fill-opacity:1;stroke:none;stroke-width:0.26458332px;stroke-linecap:butt;stroke-linejoin:miter;stroke-opacity:1"
       d="m 84.228315,157.85301 c -0.15682,0.63476 -0.77923,-0.29862 -0.13696,-0.20838 0.0876,0.0276 0.13635,0.12152 0.13696,0.20838 z m 0.51647,1.651 c -0.61151,0.37899 -1.03423,-0.33338 -0.80784,-0.88051 -0.0465,-0.26754 -0.7024,0.0732 -0.40856,-0.38947 0.53956,-0.40202 1.02271,0.22065 0.71585,0.74568 -0.11226,0.65609 0.67105,-0.0952 0.50055,0.5243 z"
       id="path33482-0-3-6"
       inkscape:connector-curvature="0" />
    <path
       style="font-style:normal;font-variant:normal;font-weight:bold;font-stretch:normal;font-size:2.82222223px;line-height:125%;font-family:'Ubuntu Mono';-inkscape-font-specification:'Ubuntu Mono Bold';letter-spacing:0px;word-spacing:0px;fill:#373737;fill-opacity:1;stroke:none;stroke-width:0.26458332px;stroke-linecap:butt;stroke-linejoin:miter;stroke-opacity:1"
       d="m 84.513895,158.52188 c -0.22036,0.10296 -0.53164,-0.13838 -0.236,-0.30667 0.41185,0.24876 0.1342,-0.79163 0.60717,-0.29168 -0.38517,0.64332 0.98331,0.0116 0.48476,0.62166 -0.4165,-0.20722 -0.72116,0.0896 -0.50879,0.51296 -0.0278,0.50625 0.86686,-0.1254 0.53881,0.49765 -0.73253,0.29535 -1.02811,-0.38832 -0.85764,-0.98745 z"
       id="path33484-1-0-9"
       inkscape:connector-curvature="0" />
    <path
       style="font-style:normal;font-variant:normal;font-weight:bold;font-stretch:normal;font-size:2.82222223px;line-height:125%;font-family:'Ubuntu Mono';-inkscape-font-specification:'Ubuntu Mono Bold';letter-spacing:0px;word-spacing:0px;fill:#373737;fill-opacity:1;stroke:none;stroke-width:0.26458332px;stroke-linecap:butt;stroke-linejoin:miter;stroke-opacity:1"
       d="m 85.784555,159.29799 c 0.75003,-0.17327 -0.57277,-0.25719 -0.45726,-0.68297 -0.0799,-0.62614 1.45008,-0.4922 0.87284,-0.0476 -0.25941,-0.24961 -0.82268,0.086 -0.2689,0.19715 0.74095,0.0764 0.42392,1.03144 -0.22493,0.82316 -0.31046,0.13009 -0.65011,-0.36347 -0.25436,-0.3833 0.0906,0.0865 0.21916,0.0761 0.33261,0.0936 z"
       id="path33486-6-1-6"
       inkscape:connector-curvature="0" />
    <path
       style="font-style:normal;font-variant:normal;font-weight:bold;font-stretch:normal;font-size:2.82222223px;line-height:125%;font-family:'Ubuntu Mono';-inkscape-font-specification:'Ubuntu Mono Bold';letter-spacing:0px;word-spacing:0px;fill:#373737;fill-opacity:1;stroke:none;stroke-width:0.26458332px;stroke-linecap:butt;stroke-linejoin:miter;stroke-opacity:1"
       d="m 89.534745,159.60934 c -0.65281,-0.0328 -0.90006,-0.74755 -0.69988,-1.29822 0.13024,-0.49643 0.79379,-0.66714 1.18533,-0.39794 0.0511,0.59371 -0.77711,-0.16505 -0.85515,0.48822 -0.26156,0.62089 0.31603,1.06667 0.8175,0.85781 0.26918,0.38937 -0.43345,0.33085 -0.4478,0.35013 z"
       id="path33488-1-4-0"
       inkscape:connector-curvature="0" />
    <path
       style="font-style:normal;font-variant:normal;font-weight:bold;font-stretch:normal;font-size:2.82222223px;line-height:125%;font-family:'Ubuntu Mono';-inkscape-font-specification:'Ubuntu Mono Bold';letter-spacing:0px;word-spacing:0px;fill:#373737;fill-opacity:1;stroke:none;stroke-width:0.26458332px;stroke-linecap:butt;stroke-linejoin:miter;stroke-opacity:1"
       d="m 91.056695,158.90661 c 0.11065,0.84445 -1.27161,0.93779 -1.24757,0.0735 -0.17788,-0.80711 1.15609,-1.07842 1.23641,-0.21886 l 0.008,0.0726 z m -0.89747,0.003 c -0.0546,0.67746 0.81047,0.28044 0.50951,-0.22498 -0.19955,-0.36593 -0.52823,-0.0844 -0.50951,0.22498 z"
       id="path33490-9-8-9"
       inkscape:connector-curvature="0" />
    <path
       style="font-style:normal;font-variant:normal;font-weight:bold;font-stretch:normal;font-size:2.82222223px;line-height:125%;font-family:'Ubuntu Mono';-inkscape-font-specification:'Ubuntu Mono Bold';letter-spacing:0px;word-spacing:0px;fill:#373737;fill-opacity:1;stroke:none;stroke-width:0.26458332px;stroke-linecap:butt;stroke-linejoin:miter;stroke-opacity:1"
       d="m 91.833965,159.51621 c -0.54546,0.34803 -1.04173,-0.2661 -0.82884,-0.81115 0.14999,-0.45018 0.022,-0.94708 -0.4367,-0.84716 0.0312,-0.70352 1.18923,-0.26817 0.85614,0.37701 -0.0259,0.33397 -0.34114,1.33061 0.3325,0.99263 0.10588,0.0262 0.094,0.2063 0.0769,0.28867 z"
       id="path33492-4-6-9"
       inkscape:connector-curvature="0" />
    <path
       style="font-style:normal;font-variant:normal;font-weight:bold;font-stretch:normal;font-size:2.82222223px;line-height:125%;font-family:'Ubuntu Mono';-inkscape-font-specification:'Ubuntu Mono Bold';letter-spacing:0px;word-spacing:0px;fill:#373737;fill-opacity:1;stroke:none;stroke-width:0.26458332px;stroke-linecap:butt;stroke-linejoin:miter;stroke-opacity:1"
       d="m 92.744685,158.90661 c 0.11086,0.84448 -1.2716,0.93777 -1.24748,0.0735 -0.17795,-0.8071 1.1562,-1.07845 1.23633,-0.21886 l 0.008,0.0726 z m -0.89747,0.003 c -0.0546,0.67746 0.81048,0.28045 0.50952,-0.22498 -0.19956,-0.36595 -0.52822,-0.0843 -0.50952,0.22498 z"
       id="path33494-9-6-5"
       inkscape:connector-curvature="0" />
    <path
       style="font-style:normal;font-variant:normal;font-weight:bold;font-stretch:normal;font-size:2.82222223px;line-height:125%;font-family:'Ubuntu Mono';-inkscape-font-specification:'Ubuntu Mono Bold';letter-spacing:0px;word-spacing:0px;fill:#373737;fill-opacity:1;stroke:none;stroke-width:0.26458332px;stroke-linecap:butt;stroke-linejoin:miter;stroke-opacity:1"
       d="m 93.659455,158.59899 c -0.46589,-0.1959 -0.83703,0.0132 -0.60587,0.55375 0.21579,0.46385 -0.43292,0.76328 -0.47673,0.17544 -0.10122,-0.49373 -0.0292,-1.29634 0.65594,-1.10506 0.28868,0.0143 0.70209,-0.0671 0.42666,0.37587 z"
       id="path33496-9-6-1"
       inkscape:connector-curvature="0" />
    <path
       style="font-style:normal;font-variant:normal;font-weight:bold;font-stretch:normal;font-size:2.82222223px;line-height:125%;font-family:'Ubuntu Mono';-inkscape-font-specification:'Ubuntu Mono Bold';letter-spacing:0px;word-spacing:0px;fill:#373737;fill-opacity:1;stroke:none;stroke-width:0.26458332px;stroke-linecap:butt;stroke-linejoin:miter;stroke-opacity:1"
       d="m 96.579745,159.49153 c -0.36403,-0.24829 -0.12912,-1.27181 -0.63603,-1.09678 -0.10369,0.33695 0.38884,1.25843 -0.16,1.17361 -0.37772,-0.45429 -0.27387,-1.1531 -0.15456,-1.69012 0.33961,-0.64722 0.59081,0.3754 0.77443,0.63784 -0.084,0.28604 0.25131,0.45773 0.20572,0.0661 -0.14295,-0.28313 -0.16381,-1.3337 0.29248,-0.78056 0.18501,0.52829 0.21578,1.18307 -0.0426,1.68995 -0.11395,0.13809 -0.1849,0.17219 -0.2794,0 z"
       id="path33498-6-6-7"
       inkscape:connector-curvature="0" />
    <path
       style="font-style:normal;font-variant:normal;font-weight:bold;font-stretch:normal;font-size:2.82222223px;line-height:125%;font-family:'Ubuntu Mono';-inkscape-font-specification:'Ubuntu Mono Bold';letter-spacing:0px;word-spacing:0px;fill:#373737;fill-opacity:1;stroke:none;stroke-width:0.26458332px;stroke-linecap:butt;stroke-linejoin:miter;stroke-opacity:1"
       d="m 96.836675,158.83959 c -0.0953,-0.65886 0.93631,-1.01496 1.16734,-0.34548 0.36317,0.70794 -0.41934,0.33046 -0.8093,0.44712 -0.0696,0.58232 1.08012,-0.10778 0.75103,0.54361 -0.48193,0.12701 -1.1543,-0.0144 -1.10907,-0.64525 z m 0.889,-0.13829 c 0.11494,-0.54127 -0.9492,-0.0663 -0.35166,0.0573 0.11586,0.003 0.25271,0.0152 0.35166,-0.0573 z"
       id="path33500-9-1-3"
       inkscape:connector-curvature="0" />
    <path
       style="font-style:normal;font-variant:normal;font-weight:bold;font-stretch:normal;font-size:2.82222223px;line-height:125%;font-family:'Ubuntu Mono';-inkscape-font-specification:'Ubuntu Mono Bold';letter-spacing:0px;word-spacing:0px;fill:#373737;fill-opacity:1;stroke:none;stroke-width:0.26458332px;stroke-linecap:butt;stroke-linejoin:miter;stroke-opacity:1"
       d="m 99.194735,158.82548 c 0.11067,0.84445 -1.27162,0.93779 -1.24757,0.0735 -0.17788,-0.80711 1.15609,-1.07842 1.23641,-0.21886 l 0.008,0.0726 z m -0.89747,0.003 c -0.0546,0.67746 0.81047,0.28044 0.50951,-0.22498 -0.19955,-0.36593 -0.52823,-0.0844 -0.50951,0.22498 z"
       id="path33502-4-7-0"
       inkscape:connector-curvature="0" />
    <path
       style="font-style:normal;font-variant:normal;font-weight:bold;font-stretch:normal;font-size:2.82222223px;line-height:125%;font-family:'Ubuntu Mono';-inkscape-font-specification:'Ubuntu Mono Bold';letter-spacing:0px;word-spacing:0px;fill:#373737;fill-opacity:1;stroke:none;stroke-width:0.26458332px;stroke-linecap:butt;stroke-linejoin:miter;stroke-opacity:1"
       d="m 99.203505,158.20741 c 0.38491,-0.21796 1.211955,-0.0362 1.074695,0.61061 0.24132,0.33518 -0.14594,1.13542 -0.405425,0.53427 0.0874,-0.32738 0.1153,-1.09051 -0.32205,-0.90241 -0.11004,0.31821 0.30287,1.24978 -0.28375,1.1033 -0.29867,-0.34246 -0.22934,-0.95473 -0.0635,-1.34577 z"
       id="path33504-2-8-8"
       inkscape:connector-curvature="0" />
    <path
       style="font-style:normal;font-variant:normal;font-weight:bold;font-stretch:normal;font-size:2.82222223px;line-height:125%;font-family:'Ubuntu Mono';-inkscape-font-specification:'Ubuntu Mono Bold';letter-spacing:0px;word-spacing:0px;fill:#373737;fill-opacity:1;stroke:none;stroke-width:0.26458332px;stroke-linecap:butt;stroke-linejoin:miter;stroke-opacity:1"
       d="m 103.36246,159.29845 c 0.66732,-0.11654 -0.0407,-0.58238 -0.35835,-0.6633 -0.61331,-0.5812 0.59672,-1.23043 0.9312,-0.68048 -0.0279,0.42587 -0.78434,-0.15476 -0.71386,0.39263 0.49272,0.13189 1.17066,0.74014 0.51994,1.17082 -0.28642,0.17912 -1.28062,0.0507 -0.76871,-0.34736 0.10947,0.13028 0.25671,0.0716 0.38978,0.12769 z"
       id="path33506-0-2-5"
       inkscape:connector-curvature="0" />
    <path
       style="font-style:normal;font-variant:normal;font-weight:bold;font-stretch:normal;font-size:2.82222223px;line-height:125%;font-family:'Ubuntu Mono';-inkscape-font-specification:'Ubuntu Mono Bold';letter-spacing:0px;word-spacing:0px;fill:#373737;fill-opacity:1;stroke:none;stroke-width:0.26458332px;stroke-linecap:butt;stroke-linejoin:miter;stroke-opacity:1"
       d="m 104.62194,158.90051 c 0.0321,-0.56215 -0.75093,-0.53475 -0.50373,0.0792 -0.0611,0.49934 0.57595,0.34813 0.50373,-0.0792 z m 0.35278,-0.0113 c 0.0861,0.47691 -0.40245,0.82188 -0.79875,0.62937 0.0804,0.26844 -0.047,0.93234 -0.39014,0.44199 -0.18667,-0.53249 -0.18389,-1.17332 0.043,-1.69224 0.25096,-0.20627 1.06996,-0.0969 1.07609,0.40788 0.003,0.0556 0.0364,0.23255 0.0698,0.213 z"
       id="path33508-2-9-4"
       inkscape:connector-curvature="0" />
    <path
       style="font-style:normal;font-variant:normal;font-weight:bold;font-stretch:normal;font-size:2.82222223px;line-height:125%;font-family:'Ubuntu Mono';-inkscape-font-specification:'Ubuntu Mono Bold';letter-spacing:0px;word-spacing:0px;fill:#373737;fill-opacity:1;stroke:none;stroke-width:0.26458332px;stroke-linecap:butt;stroke-linejoin:miter;stroke-opacity:1"
       d="m 105.37303,159.30409 c 0.48555,0.0972 0.12103,-0.66772 -0.22026,-0.2482 -0.0869,0.13628 0.082,0.28453 0.22026,0.2482 z m -0.031,-1.11196 c 0.69013,-0.0516 0.72311,0.98063 0.499,1.38871 -0.4815,0.12714 -1.44703,-0.14295 -0.88573,-0.75658 0.20282,-0.17111 0.95132,0.0706 0.45927,-0.32168 -0.22796,-9.5e-4 -0.68824,0.1098 -0.46448,-0.28327 0.12915,-0.0143 0.26201,-0.0106 0.39194,-0.0272 z"
       id="path33510-3-6-3"
       inkscape:connector-curvature="0" />
    <path
       style="font-style:normal;font-variant:normal;font-weight:bold;font-stretch:normal;font-size:2.82222223px;line-height:125%;font-family:'Ubuntu Mono';-inkscape-font-specification:'Ubuntu Mono Bold';letter-spacing:0px;word-spacing:0px;fill:#373737;fill-opacity:1;stroke:none;stroke-width:0.26458332px;stroke-linecap:butt;stroke-linejoin:miter;stroke-opacity:1"
       d="m 106.92319,158.57878 c -0.46588,-0.19589 -0.83704,0.0132 -0.60587,0.55375 0.21578,0.46385 -0.43292,0.76328 -0.47673,0.17544 -0.10122,-0.49373 -0.0292,-1.29634 0.65594,-1.10506 0.28867,0.0143 0.70209,-0.0671 0.42666,0.37587 z"
       id="path33512-6-5-9"
       inkscape:connector-curvature="0" />
    <path
       style="font-style:normal;font-variant:normal;font-weight:bold;font-stretch:normal;font-size:2.82222223px;line-height:125%;font-family:'Ubuntu Mono';-inkscape-font-specification:'Ubuntu Mono Bold';letter-spacing:0px;word-spacing:0px;fill:#373737;fill-opacity:1;stroke:none;stroke-width:0.26458332px;stroke-linecap:butt;stroke-linejoin:miter;stroke-opacity:1"
       d="m 107.38319,158.75093 c 0.18585,-0.0361 0.40856,-0.93233 0.80176,-0.47169 -0.31692,0.25978 -0.76986,0.58891 -0.20624,0.88938 0.20923,0.17271 0.40952,0.55247 -0.0564,0.41668 -0.2429,-0.0832 -0.59698,-1.08587 -0.54272,-0.37146 0.22469,0.50346 -0.42755,0.62332 -0.46557,0.0895 -0.10286,-0.54045 -0.1308,-1.14792 0.11921,-1.65024 0.47807,-0.5228 0.44161,0.54096 0.29707,0.8295 -0.004,0.086 -0.0395,0.2175 0.0529,0.26834 z"
       id="path33514-8-9-4"
       inkscape:connector-curvature="0" />
    <path
       style="font-style:normal;font-variant:normal;font-weight:bold;font-stretch:normal;font-size:2.82222223px;line-height:125%;font-family:'Ubuntu Mono';-inkscape-font-specification:'Ubuntu Mono Bold';letter-spacing:0px;word-spacing:0px;fill:#373737;fill-opacity:1;stroke:none;stroke-width:0.26458332px;stroke-linecap:butt;stroke-linejoin:miter;stroke-opacity:1"
       d="m 108.87126,159.496 c -0.54537,0.34802 -1.04177,-0.26607 -0.82885,-0.81115 0.14999,-0.45018 0.022,-0.94708 -0.4367,-0.84716 0.0312,-0.70353 1.18926,-0.26817 0.85616,0.37701 -0.0259,0.33397 -0.34114,1.33059 0.3325,0.99263 0.10766,0.0305 0.0932,0.20255 0.0769,0.28867 z"
       id="path33516-9-4-6"
       inkscape:connector-curvature="0" />
    <path
       style="font-style:normal;font-variant:normal;font-weight:bold;font-stretch:normal;font-size:2.82222223px;line-height:125%;font-family:'Ubuntu Mono';-inkscape-font-specification:'Ubuntu Mono Bold';letter-spacing:0px;word-spacing:0px;fill:#373737;fill-opacity:1;stroke:none;stroke-width:0.26458332px;stroke-linecap:butt;stroke-linejoin:miter;stroke-opacity:1"
       d="m 108.52569,158.90051 c -0.0948,-0.65764 0.93538,-1.01572 1.16735,-0.34548 0.36316,0.70793 -0.41932,0.33046 -0.8093,0.44712 -0.0696,0.5824 1.08021,-0.10788 0.75102,0.54351 -0.48074,0.12777 -1.15715,-0.0162 -1.10907,-0.64515 z m 0.889,-0.13829 c 0.11495,-0.54127 -0.94919,-0.0663 -0.35166,0.0573 0.11587,0.003 0.25272,0.0152 0.35166,-0.0573 z"
       id="path33518-2-3-2"
       inkscape:connector-curvature="0" />
    <path
       style="fill:#ffda37;fill-opacity:1;fill-rule:evenodd;stroke:none;stroke-width:0.77966273px;stroke-linecap:butt;stroke-linejoin:miter;stroke-opacity:1"
       d="m 84.15629,176.77701 c 0.38988,0.67519 -0.28525,1.06502 -0.28525,1.06502 0,0 -0.67519,0.38988 -1.06501,-0.28525 z"
       id="path32505-0-1-6-8-6"
       inkscape:connector-curvature="0"
       sodipodi:nodetypes="cccc" />
    <g
       aria-label="!"
       style="font-style:normal;font-variant:normal;font-weight:bold;font-stretch:normal;font-size:2.82222223px;line-height:125%;font-family:'MgOpen Modata';-inkscape-font-specification:'MgOpen Modata Bold';letter-spacing:0px;word-spacing:0px;fill:#373737;fill-opacity:1;stroke:none;stroke-width:0.26458332px;stroke-linecap:butt;stroke-linejoin:miter;stroke-opacity:1"
       id="text33673-7-8-2"
       transform="matrix(0.55690553,0,0,0.55690553,244.90116,-0.67272814)">
      <path
         d="m -289.83905,319.85764 q 0.11853,0 0.18909,0.0818 0.0621,0.0762 0.0621,0.18062 0,0.10725 -0.0621,0.18062 -0.0706,0.0818 -0.18909,0.0818 -0.12983,0 -0.2032,-0.079 -0.0734,-0.079 -0.0734,-0.18627 0,-0.10442 0.0677,-0.1778 0.079,-0.0818 0.20885,-0.0818 z m -0.24271,-0.34714 v -0.92569 q 0,-0.14111 0.0734,-0.22295 0.0621,-0.0734 0.15523,-0.0734 0.0931,0 0.15804,0.0734 0.0734,0.0818 0.0734,0.22295 v 0.92569 q 0,0.12418 -0.0706,0.19474 -0.0677,0.0677 -0.16086,0.0677 -0.0931,0 -0.15523,-0.0649 -0.0734,-0.0734 -0.0734,-0.19756 z"
         style="fill:#373737;fill-opacity:1;stroke-width:0.26458332px"
         id="path33675-3-7-7"
         inkscape:connector-curvature="0" />
    </g>
  </g>
</svg>
