<?xml version="1.0" encoding="UTF-8" standalone="no"?>
<!-- Created with Inkscape (http://www.inkscape.org/) -->

<svg
   xmlns:dc="http://purl.org/dc/elements/1.1/"
   xmlns:cc="http://creativecommons.org/ns#"
   xmlns:rdf="http://www.w3.org/1999/02/22-rdf-syntax-ns#"
   xmlns:svg="http://www.w3.org/2000/svg"
   xmlns="http://www.w3.org/2000/svg"
   xmlns:sodipodi="http://sodipodi.sourceforge.net/DTD/sodipodi-0.dtd"
   xmlns:inkscape="http://www.inkscape.org/namespaces/inkscape"
   version="1.1"
   id="svg2"
   width="501"
   height="501"
   viewBox="0 0 501 501"
   sodipodi:docname="Guns.svg"
   inkscape:version="0.92.2 (5c3e80d, 2017-08-06)"
   inkscape:export-filename="C:\Users\coded\Google Drive\Roblox\UI\Guns.png"
   inkscape:export-xdpi="300"
   inkscape:export-ydpi="300">
  <metadata
     id="metadata8">
    <rdf:RDF>
      <cc:Work
         rdf:about="">
        <dc:format>image/svg+xml</dc:format>
        <dc:type
           rdf:resource="http://purl.org/dc/dcmitype/StillImage" />
        <dc:title></dc:title>
      </cc:Work>
    </rdf:RDF>
  </metadata>
  <defs
     id="defs6" />
  <sodipodi:namedview
     pagecolor="#ffffff"
     bordercolor="#666666"
     borderopacity="1"
     objecttolerance="10"
     gridtolerance="10"
     guidetolerance="10"
     inkscape:pageopacity="0"
     inkscape:pageshadow="2"
     inkscape:window-width="1920"
     inkscape:window-height="1017"
     id="namedview4"
     showgrid="false"
     inkscape:zoom="1.2124317"
     inkscape:cx="371.93644"
     inkscape:cy="246.3524"
     inkscape:window-x="-8"
     inkscape:window-y="-8"
     inkscape:window-maximized="1"
     inkscape:current-layer="svg2" />
  <rect
     style="fill:#ff0000;fill-opacity:1;stroke:none;stroke-width:1.46778047;stroke-miterlimit:4;stroke-dasharray:none;stroke-opacity:1"
     id="rect4954"
     width="175"
     height="83.5"
     x="0"
     y="-83.5" />
  <rect
     style="fill:#00ff00;fill-opacity:1;stroke:none;stroke-width:1.39245868;stroke-miterlimit:4;stroke-dasharray:none;stroke-opacity:1"
     id="rect4954-0"
     width="210"
     height="62.625"
     x="175"
     y="-62.625" />
  <rect
     style="fill:#0000ff;fill-opacity:1;stroke:none;stroke-width:1.18258739;stroke-miterlimit:4;stroke-dasharray:none;stroke-opacity:1"
     id="rect4954-0-0"
     width="116"
     height="83.5"
     x="385"
     y="-83.499985" />
  <g
     id="g5305"
     inkscape:label="Background"
     style="display:none">
    <rect
       y="334"
       x="443.00003"
       height="167"
       width="58"
       id="rect4954-9-7"
       style="opacity:0.5;fill:#0000ff;fill-opacity:1;stroke:none;stroke-width:0.81416035;stroke-miterlimit:4;stroke-dasharray:none;stroke-opacity:1" />
    <rect
       y="417.5"
       x="385.00003"
       height="83.5"
       width="58"
       id="rect4954-9-5-6-0"
       style="opacity:0.5;fill:#000000;fill-opacity:1;stroke:none;stroke-width:0.57569832;stroke-miterlimit:4;stroke-dasharray:none;stroke-opacity:1" />
    <rect
       y="334"
       x="385.00003"
       height="83.5"
       width="58"
       id="rect4954-9-2-7-2"
       style="opacity:0.5;fill:#0000ff;fill-opacity:1;stroke:none;stroke-width:0.57569832;stroke-miterlimit:4;stroke-dasharray:none;stroke-opacity:1" />
    <rect
       y="0"
       x="175"
       height="62.625"
       width="210"
       id="rect4954-9-5-2-8-3"
       style="opacity:0.5;fill:#00ff00;fill-opacity:1;stroke:none;stroke-width:0.94868332;stroke-miterlimit:4;stroke-dasharray:none;stroke-opacity:1" />
    <rect
       y="417.5"
       x="0"
       height="83.5"
       width="175"
       id="rect4954-9"
       style="opacity:0.5;fill:#ff0000;fill-opacity:1;stroke:none;stroke-width:1;stroke-miterlimit:4;stroke-dasharray:none;stroke-opacity:1" />
    <rect
       y="334"
       x="0"
       height="83.5"
       width="175"
       id="rect4954-9-5"
       style="opacity:0.5;fill:#000000;fill-opacity:1;stroke:none;stroke-width:1;stroke-miterlimit:4;stroke-dasharray:none;stroke-opacity:1" />
    <rect
       y="250.5"
       x="0"
       height="83.5"
       width="175"
       id="rect4954-9-2"
       style="opacity:0.5;fill:#ff0000;fill-opacity:1;stroke:none;stroke-width:1;stroke-miterlimit:4;stroke-dasharray:none;stroke-opacity:1" />
    <rect
       y="167"
       x="0"
       height="83.5"
       width="175"
       id="rect4954-9-5-4"
       style="opacity:0.5;fill:#000000;fill-opacity:1;stroke:none;stroke-width:1;stroke-miterlimit:4;stroke-dasharray:none;stroke-opacity:1" />
    <rect
       y="83.5"
       x="0"
       height="83.5"
       width="175"
       id="rect4954-9-0"
       style="opacity:0.5;fill:#ff0000;fill-opacity:1;stroke:none;stroke-width:1;stroke-miterlimit:4;stroke-dasharray:none;stroke-opacity:1" />
    <rect
       y="0"
       x="0"
       height="83.5"
       width="175"
       id="rect4954-9-5-2"
       style="opacity:0.5;fill:#000000;fill-opacity:1;stroke:none;stroke-width:1;stroke-miterlimit:4;stroke-dasharray:none;stroke-opacity:1" />
    <rect
       y="438.375"
       x="175"
       height="62.625"
       width="210"
       id="rect4954-9-3"
       style="opacity:0.5;fill:#000000;fill-opacity:1;stroke:none;stroke-width:0.94868332;stroke-miterlimit:4;stroke-dasharray:none;stroke-opacity:1" />
    <rect
       y="375.75"
       x="175"
       height="62.625"
       width="210"
       id="rect4954-9-5-46"
       style="opacity:0.5;fill:#00ff00;fill-opacity:1;stroke:none;stroke-width:0.94868332;stroke-miterlimit:4;stroke-dasharray:none;stroke-opacity:1" />
    <rect
       y="313.125"
       x="175"
       height="62.625"
       width="210"
       id="rect4954-9-2-2"
       style="opacity:0.5;fill:#000000;fill-opacity:1;stroke:none;stroke-width:0.94868332;stroke-miterlimit:4;stroke-dasharray:none;stroke-opacity:1" />
    <rect
       y="250.5"
       x="175"
       height="62.625"
       width="210"
       id="rect4954-9-5-4-8"
       style="opacity:0.5;fill:#00ff00;fill-opacity:1;stroke:none;stroke-width:0.94868332;stroke-miterlimit:4;stroke-dasharray:none;stroke-opacity:1" />
    <rect
       y="125.25"
       x="175"
       height="62.625"
       width="210"
       id="rect4954-9-5-2-8"
       style="opacity:0.5;fill:#00ff00;fill-opacity:1;stroke:none;stroke-width:0.94868332;stroke-miterlimit:4;stroke-dasharray:none;stroke-opacity:1" />
    <rect
       y="250.5"
       x="385"
       height="83.5"
       width="116"
       id="rect4954-9-5-6"
       style="opacity:0.5;fill:#000000;fill-opacity:1;stroke:none;stroke-width:0.81416041;stroke-miterlimit:4;stroke-dasharray:none;stroke-opacity:1" />
    <rect
       y="167"
       x="385"
       height="83.5"
       width="116"
       id="rect4954-9-2-7"
       style="opacity:0.5;fill:#0000ff;fill-opacity:1;stroke:none;stroke-width:0.81416041;stroke-miterlimit:4;stroke-dasharray:none;stroke-opacity:1" />
    <rect
       y="83.5"
       x="385"
       height="83.5"
       width="116"
       id="rect4954-9-5-4-81"
       style="opacity:0.5;fill:#000000;fill-opacity:1;stroke:none;stroke-width:0.81416041;stroke-miterlimit:4;stroke-dasharray:none;stroke-opacity:1" />
    <rect
       y="-7.6293945e-006"
       x="385"
       height="83.5"
       width="116"
       id="rect4954-9-0-7"
       style="opacity:0.5;fill:#0000ff;fill-opacity:1;stroke:none;stroke-width:0.81416041;stroke-miterlimit:4;stroke-dasharray:none;stroke-opacity:1" />
    <rect
       y="62.625"
       x="175"
       height="62.625"
       width="210"
       id="rect4954-9-0-5-6"
       style="opacity:0.5;fill:#000000;fill-opacity:1;stroke:none;stroke-width:0.94868332;stroke-miterlimit:4;stroke-dasharray:none;stroke-opacity:1" />
    <rect
       y="187.875"
       x="175"
       height="62.625"
       width="210"
       id="rect4954-9-0-5"
       style="opacity:0.5;fill:#000000;fill-opacity:1;stroke:none;stroke-width:0.94868332;stroke-miterlimit:4;stroke-dasharray:none;stroke-opacity:1" />
  </g>
  <path
     style="fill:#000000;stroke-width:0.32000002"
     d="m 19.323378,435.39437 c -2.47622,0 -3.33398,0.50781 -3.33398,1.97071 0,0.91019 -10e-4,0.91031 -2.15039,0.91015 -1.93007,0 -2.22336,0.0867 -2.87891,0.84961 -0.88445,1.0293 -1.0032001,3.54988 -0.22851,4.86133 l 0.50195,0.85156 17.83984,-0.002 c 17.21311,-7.7e-4 17.88508,0.0212 19.08594,0.63867 1.24133,0.6383 3.34476,2.62701 3.34766,3.16406 8.6e-4,0.15924 2.53301,0.21626 5.78906,0.13086 l 5.78906,-0.15234 -0.19922,0.83008 c -0.10887,0.45581 -0.3636,1.98067 -0.5664,3.38867 -0.20281,1.408 -0.49311,2.64474 -0.64453,2.74805 -0.15143,0.10331 -0.32381,0.89507 -0.38477,1.75976 -0.13034,1.84881 -1.25472,5.28684 -3.02539,9.25195 -1.265,2.83275 -3.5297,7.0382 -4.87695,9.05665 -0.50516,0.75682 -0.91797,1.5125 -0.91797,1.67968 0,0.16718 -0.14431,0.30274 -0.32031,0.30274 -0.176,0 -0.32032,0.27224 -0.32032,0.60351 0,0.57306 4.43714,4.19727 5.13868,4.19727 0.16566,0 0.30078,0.14431 0.30078,0.32031 0,0.77803 0.87617,0.1981 1.7207,-1.13867 0.50634,-0.80146 1.08359,-1.63268 1.28125,-1.84766 0.69961,-0.76092 1.79883,-2.43231 1.79883,-2.73437 0,-0.16847 0.10823,-0.35341 0.24023,-0.41211 0.64931,-0.28857 5.51953,-10.22236 5.51953,-11.25781 0,-0.27101 0.13229,-0.57258 0.29297,-0.67188 0.16069,-0.0993 0.39446,-0.78703 0.51953,-1.52734 0.12508,-0.74031 0.34468,-1.56713 0.48829,-1.83789 0.14361,-0.27078 0.34066,-0.87834 0.43945,-1.34961 0.17461,-0.83298 0.22963,-0.85151 1.95117,-0.67383 1.49193,0.15398 1.84661,0.0866 2.24609,-0.42383 1.1875,-1.51744 1.80652,-4.01083 1.10352,-4.44531 -0.41712,-0.2578 -0.40789,-1.64634 0.0273,-3.67578 l 0.34961,-1.62891 9.41211,0.0391 9.410151,0.0391 v 1.74804 c 0,2.12094 0.68195,2.89328 3.80469,4.31055 1.95911,0.8892 2.237771,0.92883 6.718761,0.92383 2.57166,-0.003 4.88838,-0.1395 5.14648,-0.30274 1.36064,-0.86055 2.87789,3.43837 3.10156,8.78711 0.19059,4.55754 0.0314,4.32031 2.86524,4.32031 2.50481,0 4.16445,-0.52187 5.3125,-1.66992 0.96576,-0.96576 0.70543,-3.02888 -1.04883,-8.32422 -0.89038,-2.68769 -1.63932,-5.17534 -1.66602,-5.52734 -0.0846,-1.1152 0.43911,-2.71875 0.88867,-2.71875 0.23817,0 0.525,-0.28862 0.63672,-0.64062 0.18412,-0.5801 0.48358,-0.64063 3.20508,-0.64063 2.32118,0 3.06418,-0.10766 3.26953,-0.47461 0.28514,-0.50951 1.06934,-0.42427 6.00586,0.64649 1.232,0.26724 3.2654,0.67858 4.51953,0.91406 1.25412,0.23548 2.42994,0.52071 2.61133,0.63281 0.18138,0.1121 1.17074,0.34014 2.19922,0.50781 1.02849,0.16766 2.87738,0.53185 4.10938,0.8086 1.232,0.27675 3.24846,0.70848 4.48046,0.96093 7.20272,1.47597 8.16016,1.76534 8.16016,2.4668 0,0.3407 0.1729,0.93392 0.38477,1.31836 0.21188,0.38443 0.49002,2.21255 0.61718,4.06055 0.29809,4.3321 0.66381,5.92676 1.58399,6.90625 1.27778,1.36013 1.7076,0.92769 1.93555,-1.94922 0.37496,-4.73227 0.93093,-9.90486 1.26757,-11.80274 0.18384,-1.03647 0.41892,-3.66116 0.52149,-5.83203 0.15563,-3.29367 0.10839,-3.97668 -0.28321,-4.12695 -1.17319,-0.4502 -3.61261,1.75758 -4.60742,4.16992 -0.65201,1.58107 -0.91306,1.65958 -3.66015,1.10352 -0.792,-0.16031 -2.55634,-0.51335 -3.91993,-0.78516 -1.36359,-0.27181 -3.5589,-0.71061 -4.8789,-0.97461 -3.66922,-0.73385 -6.82683,-1.33631 -9.1211,-1.74219 -1.144,-0.20238 -2.51657,-0.50029 -3.04882,-0.66211 -0.53224,-0.16181 -1.82715,-0.43404 -2.87891,-0.60351 -5.15237,-0.83018 -6.86795,-1.69608 -6.87695,-3.47461 -0.008,-1.52397 -0.35541,-2.30664 -1.02344,-2.30664 -0.36351,0 -0.70263,-0.27288 -0.79883,-0.64063 -0.23682,-0.90563 -2.01367,-0.91608 -2.01367,-0.0117 0,0.61507 -0.26366,0.62909 -11.59961,0.58789 -6.75083,-0.0245 -11.765351,-0.16907 -11.996101,-0.34571 -0.21807,-0.1669 -0.89998,-0.20924 -1.51562,-0.0937 -0.61565,0.11536 -2.20115,0.11201 -3.52344,-0.008 -2.06902,-0.18749 -2.4043,-0.30278 -2.4043,-0.82422 0,-0.61958 -0.14412,-0.70781 -1.689451,-1.04687 -0.48848,-0.10718 -1.17201,-0.47868 -1.51953,-0.82617 -0.78988,-0.78986 -0.90418,-0.78638 -1.78906,0.0449 -0.39585,0.37187 -1.19775,0.77198 -1.78125,0.89062 -0.79392,0.16142 -1.08837,0.40817 -1.16993,0.97656 l -0.10937,0.75782 -12.14844,-0.20508 c -10.25018,-0.17296 -12.22251,-0.28098 -12.63281,-0.69128 -0.6216,-0.62159 -1.22435,-0.61549 -1.85547,0.0156 -0.43029,0.43029 -2.54959,0.54019 -15.14257,0.78906 -8.05339,0.15915 -15.21788,0.30808 -15.92188,0.33008 -2.03893,0.0637 -2.08051,0.042 -2.0918,-1.06055 -0.006,-0.572 -0.28097,-1.36376 -0.61132,-1.75976 -0.51426,-0.61645 -0.91134,-0.72071 -2.76368,-0.72071 z m -5.83007,3.8418 h 1.53515 v 2.55859 2.56055 h -1.53515 c -0.8448,0 -1.70873,-0.17357 -1.91993,-0.38477 -0.2112,-0.2112 -0.38476,-1.19018 -0.38476,-2.17578 0,-0.9856 0.17356,-1.96458 0.38476,-2.17578 0.2112,-0.2112 1.07513,-0.38281 1.91993,-0.38281 z m 86.224611,9.64062 c 0.350681,0.009 0.761931,0.16042 1.226561,0.46485 0.65161,0.42695 0.94557,0.4453 1.86914,0.11133 0.60253,-0.21791 1.34733,-0.30018 1.65625,-0.18164 0.58267,0.22357 0.58156,0.37108 -0.0293,3.88476 l -0.22265,1.2793 0.85351,-0.7832 c 0.96391,-0.88474 1.64539,-2.11436 1.95703,-3.53321 0.23265,-1.05927 0.84428,-1.22163 2.22656,-0.59179 0.75425,0.34368 0.81446,0.52987 0.81446,2.49609 0,1.22582 -0.16322,2.28626 -0.38477,2.50781 -0.42814,0.42813 -10.065491,0.55311 -10.689451,0.13867 -0.19468,-0.12931 -0.45437,-1.14675 -0.57813,-2.26172 -0.25472,-2.29451 0.24874,-3.55711 1.30079,-3.53125 z m -2.32032,0.38672 c 0.13992,-0.0477 0.19141,0.14432 0.19141,0.62696 0,0.96278 -0.23831,1.12666 -0.53125,0.36328 -0.10585,-0.27583 -0.0294,-0.66391 0.16992,-0.86328 0.0675,-0.0675 0.12328,-0.11104 0.16992,-0.12696 z"
     id="path4903"
     inkscape:connector-curvature="0" />
  <path
     style="fill:#000000;stroke-width:0.32000002"
     d="m 315.15745,452.47167 c -0.11873,-0.0122 -0.24519,-0.0114 -0.37696,0.004 -0.69987,0.0814 -0.84132,0.2773 -0.92382,1.26758 -0.0896,1.07546 -0.0191,1.18753 0.8789,1.38477 0.53766,0.11809 0.97852,0.41336 0.97852,0.65625 0,0.33232 -0.65413,0.46525 -2.64063,0.53515 -2.3858,0.084 -2.66961,0.16183 -2.95508,0.8125 -0.31052,0.7078 -0.41228,0.72071 -6,0.72071 -4.83921,0 -5.68359,-0.0718 -5.68359,-0.48047 0,-0.403 -0.69365,-0.48047 -4.32031,-0.48047 -3.62667,0 -4.32031,0.0775 -4.32031,0.48047 0,0.3903 -0.52701,0.48047 -2.81446,0.48047 h -2.8125 l -1.41406,-1.44141 c -1.28538,-1.3097 -1.55068,-1.43945 -2.94531,-1.43945 -1.14967,0 -1.53321,0.12057 -1.53321,0.48046 0,0.40941 -0.87103,0.48047 -5.91992,0.48047 h -5.91992 v 0.94141 c 0,1.1491 -0.42389,1.46867 -1.07812,0.81445 -0.42751,-0.42748 -2.28366,-0.47658 -14.66602,-0.39257 -12.95655,0.0879 -14.3409,0.14777 -16.0957,0.71093 -1.79692,0.57667 -3.21665,0.62235 -22.12305,0.71485 l -20.20117,0.0996 -0.19336,-0.72461 c -0.10684,-0.39857 -0.19622,-1.27142 -0.19922,-1.93946 l -0.004,-1.21484 -2.16015,0.0957 -2.16016,0.0937 -0.16015,1.75977 c -0.15576,1.71337 -0.18677,1.76373 -1.19922,1.86133 -0.9748,0.094 -1.04102,0.17551 -1.04102,1.32421 0,0.74671 0.1743,1.29324 0.44336,1.39649 0.24285,0.0927 4.34599,0.0955 9.11914,0.006 l 8.67774,-0.16406 v 0.82812 0.82813 h -7.0625 c -6.55483,0 -7.05508,0.0409 -6.95508,0.56054 0.10096,0.52466 1.4417,0.56885 21.2539,0.71875 18.10985,0.13702 21.22838,0.22993 21.72071,0.63867 0.44359,0.36829 1.97175,0.52282 6.68945,0.68165 10.74614,0.36178 23.24373,0.9141 28.35352,1.25195 2.72799,0.18038 9.18036,0.46277 14.33789,0.6289 5.15753,0.16615 9.49234,0.37414 9.63281,0.46094 0.14048,0.0868 4.66899,0.30959 10.06445,0.4961 9.93832,0.34356 12.92954,0.64848 13.38477,1.36523 0.13841,0.21794 0.25286,0.77577 0.25586,1.23828 0.008,1.35674 0.85624,3.00718 1.75781,3.41797 0.46645,0.21253 2.23527,0.38086 3.99805,0.38086 3.10236,0 3.17797,-0.0178 4.14453,-0.98438 0.86915,-0.86914 0.98437,-1.19863 0.98437,-2.80859 v -1.82422 l 1.35938,0.10547 c 2.03302,0.15852 4.41039,1.47549 6.81445,3.77539 1.18205,1.13086 2.2094,2.05664 2.2832,2.05664 0.0738,0 0.45895,0.34951 0.85547,0.77735 1.00659,1.08614 2.16096,1.3083 3.42188,0.65625 1.3872,-0.71731 2.82595,-0.72319 4.51562,-0.0176 2.27081,0.9483 2.58962,1.07718 4.42969,1.80078 0.968,0.38067 2.26486,0.9168 2.88086,1.19141 0.616,0.27461 1.55208,0.67792 2.08008,0.89453 0.528,0.21661 1.46408,0.61235 2.08007,0.88086 0.616,0.2685 1.69444,0.72559 2.39844,1.01562 0.704,0.29003 1.71224,0.72027 2.24024,0.95508 0.528,0.23479 1.60839,0.67048 2.40039,0.96875 0.792,0.2983 1.68818,0.67046 1.99023,0.82617 0.54842,0.28272 1.73071,0.61221 5.05078,1.41211 l -0.002,0.002 c 3.2823,0.79082 3.37351,0.72715 3.85156,-2.64062 0.42365,-2.98453 0.25871,-12.66223 -0.24414,-14.32227 -0.25037,-0.82659 -0.48808,-0.98922 -1.70898,-1.16992 -0.7799,-0.11542 -2.49836,-0.36882 -3.81836,-0.5625 -1.32,-0.19368 -3.19325,-0.49272 -4.16406,-0.66601 -0.97082,-0.17329 -2.69867,-0.39864 -3.83985,-0.5 -1.14119,-0.10135 -2.72362,-0.32073 -3.51562,-0.48633 -0.792,-0.16561 -3.02299,-0.45595 -4.95899,-0.64649 -1.936,-0.19054 -4.45756,-0.45617 -5.60156,-0.58984 -1.68237,-0.19656 -2.44704,-0.12249 -4,0.39062 -1.056,0.34892 -2.07772,0.75969 -2.27148,0.91211 -0.53315,0.41942 -3.14183,0.70428 -4.34375,0.47461 -0.58538,-0.11185 -1.63975,-0.74432 -2.34375,-1.40625 -0.704,-0.66193 -1.68401,-1.46064 -2.17774,-1.77539 -0.92694,-0.59092 -4.45011,-1.81445 -5.22461,-1.81445 -0.67616,0 -0.51684,-0.67892 0.20313,-0.86719 0.45334,-0.11855 0.63867,-0.43629 0.63867,-1.08984 0,-0.87688 -0.0703,-0.92383 -1.40625,-0.92383 -0.95437,0 -1.46478,-0.1546 -1.58985,-0.48047 -0.11221,-0.29239 8.4e-4,-0.47851 0.28711,-0.47851 0.25847,0 0.46875,-0.19896 0.46875,-0.44141 0,-0.48973 -0.74033,-1.20921 -1.16601,-1.13281 -0.95559,0.17152 -6.43478,-0.0861 -6.80469,-0.32032 -0.24776,-0.15685 -0.46698,-0.787 -0.48828,-1.39843 -0.0436,-1.25576 -0.54584,-2.00265 -1.37695,-2.08789 z m 3.35547,16.58007 c 1.37591,0 1.97843,0.62236 2.11523,2.18165 0.20488,2.3353 0.8457,2.42875 0.8457,0.12304 v -1.98437 h 1.44727 c 1.22059,0 1.5027,0.12115 1.80078,0.77539 0.55165,1.21073 0.0774,3.03262 -0.88477,3.39844 -0.44199,0.16804 -2.01935,0.30468 -3.5039,0.30468 -3.3043,0 -3.97852,-0.45769 -3.97852,-2.70703 0,-1.587 0.52072,-2.0918 2.15821,-2.0918 z"
     id="path4913"
     inkscape:connector-curvature="0" />
  <path
     style="fill:#000000;stroke-width:0.32000002"
     d="m 311.90013,390.94451 c -0.86824,-0.0991 -3.10401,0.77603 -3.33984,1.30664 -0.0587,0.132 -0.31122,0.24024 -0.56055,0.24024 -0.24933,0 -0.45312,0.19504 -0.45312,0.43359 0,0.3005 -0.66363,0.50062 -2.16016,0.65234 -2.38326,0.24162 -19.602,0.80022 -25.2793,0.82032 l -3.60156,0.0137 v 0.95898 c 0,0.9067 -0.0704,0.96094 -1.27929,0.96094 h -1.2793 v -1.47852 -1.47851 l -2.80078,0.26562 c -1.54,0.14577 -3.86843,0.22288 -5.17383,0.17188 -1.30539,-0.051 -2.67245,0.0517 -3.03906,0.22656 -0.3666,0.17485 -6.17975,0.47576 -12.91797,0.66992 -9.97789,0.28751 -12.50118,0.44962 -13.59961,0.87696 -1.07606,0.41864 -2.8693,0.54967 -8.86914,0.64257 -4.136,0.0641 -7.83849,0.18724 -8.22852,0.27344 -0.39003,0.0862 -1.52017,0.94596 -2.50976,1.91211 l -1.79883,1.75781 h -11.49219 -11.49023 v -1.75976 c 0,-2.15376 0.005,-2.11273 -0.36328,-2.80078 -0.30012,-0.56079 -1.3819,-0.72984 -2.33204,-0.36524 -0.39841,0.15288 -0.50585,0.69653 -0.50585,2.5586 v 2.36718 h -0.95899 c -0.83809,0 -0.96094,0.11231 -0.96094,0.89453 0,1.02909 0.51256,1.66407 1.34375,1.66407 0.36267,0 0.57618,0.23765 0.57618,0.64062 -1e-5,0.5547 0.21294,0.64063 1.5996,0.64063 1.38667,0 1.60157,-0.086 1.60157,-0.64063 0,-0.5827 0.21211,-0.64062 2.38281,-0.64062 h 2.38476 l 0.0957,1.83984 c 0.0944,1.8098 0.11241,1.8418 1.05664,1.8418 0.94424,0 0.96029,-0.032 1.05469,-1.8418 l 0.0977,-1.83984 h 11.50391 c 11.07737,0 11.52632,0.0244 12.14258,0.64062 0.352,0.352 0.78493,0.64063 0.96093,0.64063 0.176,0 0.32032,0.13986 0.32032,0.3125 0,0.17265 0.3949,0.40976 0.8789,0.52539 0.484,0.11562 1.04691,0.34076 1.25,0.5 0.20503,0.16077 9.82266,0.38994 21.62696,0.51562 l 21.25976,0.22656 1.26953,0.87891 c 0.69819,0.484 1.4847,0.88086 1.74805,0.88086 0.26334,0 0.616,0.12087 0.7832,0.26953 0.1672,0.14866 1.23882,0.59672 2.38282,0.9961 1.144,0.39939 2.53329,0.92596 3.08789,1.16992 0.5546,0.24396 1.3031,0.44336 1.66211,0.44336 0.35902,0 0.73552,0.13441 0.83593,0.29687 0.10041,0.16246 0.62232,0.39164 1.16016,0.50977 0.53784,0.11813 1.3638,0.41578 1.83594,0.66211 0.47215,0.24632 1.09298,0.44826 1.38086,0.44922 0.28788,10e-4 0.93728,0.21754 1.4414,0.48046 1.18105,0.61596 2.67578,0.631 2.67578,0.0274 0,-0.24974 0.21041,-0.86112 0.4668,-1.35938 0.25638,-0.49826 0.65129,-1.37752 0.87891,-1.95312 l 0.41406,-1.04492 5.75977,0.0859 5.75976,0.0859 0.16016,2.30469 c 0.088,1.26775 0.33691,2.48199 0.55273,2.69726 1.07999,1.07725 9.5348,1.17389 10.59375,0.1211 0.11805,-0.11737 0.287,-1.31795 0.375,-2.66797 l 0.16016,-2.45508 1.20508,-0.0996 c 1.43039,-0.11821 6.00609,0.73955 7.59375,1.42383 2.12676,0.91662 3.3608,1.5566 3.67968,1.9082 0.176,0.19406 1.37456,1.04933 2.66211,1.89844 l 2.33985,1.54297 4.3789,0.0508 c 2.74618,0.032 5.21437,0.24672 6.61914,0.57422 3.79235,0.88415 5.73928,1.38189 6.24024,1.59766 0.264,0.11371 1.05576,0.34868 1.75976,0.52148 1.24669,0.30601 3.38424,0.87653 6.79883,1.81445 4.09773,1.12558 5.45204,1.48072 6.80078,1.78711 0.792,0.17992 2.23317,0.51901 3.20117,0.75196 0.968,0.23295 2.21023,0.43261 2.76172,0.44531 1.28793,0.0296 1.38659,-0.33603 1.40039,-5.25586 0.0102,-3.68035 0.73915,-12.40671 1.14258,-13.67774 0.1063,-0.33472 0.11018,-0.93582 0.01,-1.33593 -0.17571,-0.70014 -0.35326,-0.73671 -4.74805,-0.95508 -2.51145,-0.1248 -10.39934,-0.29701 -17.52734,-0.38281 l -12.95899,-0.15625 -2.37695,0.81445 c -1.85011,0.63334 -3.00862,0.8125 -5.23633,0.8125 -3.23917,0 -4.7284,-0.41625 -8.68945,-2.42969 l -2.57813,-1.31054 -0.20703,-2.29493 c -0.30486,-3.36936 -0.18438,-3.24414 -3.12304,-3.24414 h -2.55274 l -0.0977,-1.35937 c -0.0894,-1.23484 -0.18471,-1.3708 -1.02539,-1.4668 z m -8.14648,17.86524 h 3.28711 3.28906 l 0.56055,1.24218 c 0.43381,0.96202 0.47928,1.39168 0.20703,1.90039 -0.41403,0.77362 -0.43907,1.01758 -0.10742,1.01758 0.44925,0 1.15856,-1.42885 1.33789,-2.69336 0.0978,-0.68968 0.35812,-1.31372 0.57812,-1.38672 0.55866,-0.18537 0.51989,3.41612 -0.0449,4.16016 -0.36367,0.4791 -0.9851,0.56055 -4.29883,0.56055 -4.4415,0 -4.33174,0.069 -4.6289,-2.96094 z"
     id="path4895"
     inkscape:connector-curvature="0" />
  <path
     style="fill:#000000;stroke-width:0.32000002"
     d="m 92.077558,357.57147 c -0.31901,-0.0323 -0.61088,0.22619 -1.35547,0.90821 -0.66587,0.60992 -1.45222,1.10937 -1.74609,1.10937 -0.29388,0 -0.90017,0.28863 -1.34766,0.64063 -0.78686,0.6189 -1.29694,0.64062 -15.53906,0.64062 -12.66371,0 -14.79428,0.0658 -15.20703,0.47852 -0.36312,0.36312 -1.26503,0.48047 -3.70313,0.48047 -1.93524,0 -3.22266,-0.12817 -3.22266,-0.32032 0,-0.176 -0.6494,-0.32031 -1.4414,-0.32031 -0.79857,0 -1.43946,0.15224 -1.43946,0.33984 0,0.27172 -5.90064,0.28115 -8.48046,0.0137 -0.176,-0.0182 -2.31104,0.0582 -4.7461,0.16992 -3.80921,0.17476 -4.66886,0.12015 -6.15429,-0.38477 -1.62021,-0.55072 -1.74308,-0.66676 -1.98243,-1.88281 -0.19639,-0.99782 -0.41728,-1.31778 -0.96484,-1.39648 -0.41508,-0.0597 -0.71094,0.0656 -0.71094,0.30273 0,0.31602 -0.0861,0.3221 -0.38476,0.0234 -0.50348,-0.50348 -1.52161,-0.49361 -1.58985,0.0156 -0.0295,0.22 -0.0656,0.81536 -0.0801,1.32227 -0.0176,0.61334 -0.3218,1.14218 -0.91015,1.58398 -0.80964,0.60797 -1.2985,0.66192 -5.80274,0.63672 -2.70518,-0.0151 -5.08725,0.0787 -5.2949204,0.20703 -0.37926,0.2344 0.083,1.30575 1.5937504,3.68946 0.33463,0.528 0.84403,1.37585 1.13086,1.88476 l 0.52149,0.92578 5.80859,-0.25586 c 6.3063,-0.27947 6.51798,-0.28049 8.27734,0.0254 0.8745,0.15204 1.32336,0.0712 1.70117,-0.30664 0.70636,-0.70622 5.09306,-0.70596 6.85743,0 0.91533,0.36619 1.71695,0.44821 2.80664,0.28907 1.38203,-0.2018 4.72527,-0.27418 9.30468,-0.20118 1.03776,0.0165 1.99521,-0.16616 2.45704,-0.46875 0.58732,-0.38484 0.99481,-0.42473 1.82031,-0.17968 1.7126,0.50841 3.28852,1.14727 3.48633,1.41406 0.35633,0.48059 4.00376,0.87785 6.16992,0.67187 2.44612,-0.2326 2.75322,-0.046 2.76172,1.66797 0.004,0.72127 0.21944,1.10084 0.80468,1.41406 0.74165,0.39692 0.80079,0.59862 0.80079,2.77344 0,1.91926 -0.11703,2.46273 -0.64063,2.98633 -0.352,0.352 -0.78494,0.63867 -0.96094,0.63867 -0.176,0 -0.31836,0.80825 -0.31836,1.79492 0,1.54454 0.1136,1.88357 0.82032,2.43946 0.81376,0.6401 0.81932,0.68298 0.77539,5.00586 -0.0244,2.39822 -0.0325,4.53976 -0.0195,4.75976 0.0168,0.28623 0.81863,0.40672 2.82226,0.41992 1.54,0.0101 3.37608,0.12809 4.08008,0.26172 0.704,0.13363 1.45969,0.18007 1.67969,0.10547 0.30223,-0.10249 0.40638,-1.7884 0.42187,-6.90039 0.0205,-6.77741 0.37796,-14.15139 0.70117,-14.47461 0.0947,-0.0947 0.79651,-0.12531 1.56055,-0.0703 l 1.38867,0.0996 -0.75586,0.70117 c -1.31481,1.21948 -0.72831,1.69922 2.08399,1.69922 2.14389,0 2.59851,-0.10497 3.53125,-0.81641 0.58861,-0.44895 1.06836,-1.00988 1.06836,-1.24609 0,-0.61741 0.7404,-0.81836 3.01953,-0.81836 1.66093,0 2.14763,0.12825 2.81641,0.74805 1.19791,1.11019 1.64675,2.09438 1.83593,4.02734 0.26294,2.6865 0.71712,2.85196 7.917982,2.88086 l 5.82812,0.0234 1.13281,-0.99219 c 1.02837,-0.90293 1.13086,-1.14913 1.13086,-2.69531 0,-2.08726 0.22023,-2.71289 0.95508,-2.71289 1.07702,0 5.185,1.8897 7.31055,3.36132 0.73645,0.50988 2.98356,2.76744 4.36133,4.38477 0.69668,0.81783 1.86316,1.78552 2.59375,2.15039 1.5621,0.78015 3.72783,0.86982 4.41601,0.18164 0.70929,-0.70932 1.87335,-1.06356 2.60352,-0.79297 0.352,0.13045 1.35828,0.40631 2.23828,0.61328 0.88,0.20697 2.65088,0.87177 3.93359,1.47852 1.28272,0.60675 2.38803,1.10352 2.45703,1.10352 0.069,0 1.05848,0.43293 2.19922,0.96093 1.14075,0.528 2.21963,0.95899 2.39649,0.95899 0.17687,0 0.36903,0.11655 0.42773,0.25781 0.13616,0.32786 4.10663,1.66211 4.94531,1.66211 0.34839,0 0.7703,0.13243 0.9375,0.29297 0.2875,0.27608 0.98811,0.41813 6.38477,1.30664 1.232,0.20284 2.67122,0.4952 3.19922,0.64844 0.528,0.15324 1.83852,0.37312 2.91211,0.49023 1.68393,0.1837 1.98048,0.13777 2.16601,-0.3457 0.11828,-0.30824 0.30648,-5.04207 0.41797,-10.51758 0.17562,-8.62474 0.14016,-10.0071 -0.27539,-10.35156 -1.07251,-0.88902 -11.72143,-2.02234 -24.90039,-2.64844 -7.49715,-0.35616 -10.47785,-0.16723 -12.64062,0.80273 -0.88,0.39466 -2.03255,0.81044 -2.56055,0.92383 -1.14029,0.24489 -4.60629,-0.68577 -6.23828,-1.67578 -0.616,-0.37369 -1.32562,-0.77837 -1.57617,-0.89844 -0.25056,-0.12006 -0.70324,-0.4452 -1.00586,-0.72265 -0.30262,-0.27744 -1.42653,-1.22352 -2.49805,-2.10352 -1.29775,-1.06578 -1.95108,-1.83593 -1.95508,-2.30469 -0.008,-0.98164 -1.8721,-2.33593 -3.21484,-2.33593 -0.64802,0 -1.35258,-0.26766 -1.78906,-0.67774 -0.68244,-0.64111 -0.92405,-0.66315 -4.58204,-0.44336 -3.465612,0.20823 -3.859372,0.29238 -3.859372,0.82617 0,0.3971 -0.15993,0.53316 -0.48047,0.41016 -0.264,-0.10131 -0.48047,-0.38374 -0.48047,-0.62891 0,-0.30537 -0.39465,-0.44726 -1.25586,-0.44726 -0.69143,0 -1.44907,-0.18202 -1.68164,-0.4043 -0.23258,-0.22228 -0.80492,-0.64763 -1.27344,-0.94726 -0.31435,-0.20104 -0.51563,-0.32631 -0.70703,-0.34571 z m -77.16211,6.17774 h 1.4414 v 1.28125 c 0,1.00942 -0.11892,1.27753 -0.56054,1.26953 -1.18372,-0.0206 -2.30566,-0.98563 -2.31446,-1.99024 -0.004,-0.4511 0.27364,-0.56054 1.4336,-0.56054 z m 76.30859,8.33203 c 0.13295,-0.0411 0.32806,0.0437 0.47852,0.28711 0.10126,0.16384 0.053,0.37736 -0.10742,0.47656 -0.16043,0.0992 -0.37369,-0.0339 -0.47461,-0.29687 -0.0995,-0.25922 -0.0294,-0.42568 0.10351,-0.4668 z m 10.199232,0.30859 c 1.02281,0 1.07692,0.0545 0.94531,0.95117 -0.0769,0.5237 0.007,1.0025 0.1875,1.0625 0.54449,0.1815 0.37609,2.3368 -0.23047,2.94336 -0.65548,0.65552 -0.50829,0.93964 0.34766,0.66797 0.78278,-0.24845 1.68359,-2.14138 1.68359,-3.54101 0,-1.2965 0.53846,-1.68435 2.08398,-1.50391 l 1.11524,0.12891 v 1.96875 c 0,1.66443 -0.12504,2.1043 -0.8125,2.8457 l -0.81446,0.87695 h -5.8457 c -6.905702,0 -7.004282,-0.0374 -7.093752,-2.58008 -0.0335,-0.95154 -0.22147,-1.76393 -0.42578,-1.83203 -0.20195,-0.0673 -0.36719,-0.33012 -0.36719,-0.58398 0,-0.39601 0.13325,-0.39159 0.94336,0.0273 0.63246,0.32706 1.85562,0.48828 3.70703,0.48828 h 2.76368 l 0.36328,-0.96093 c 0.304592,-0.80694 0.536232,-0.95899 1.449222,-0.95899 z"
     id="path4891"
     inkscape:connector-curvature="0" />
  <path
     inkscape:connector-curvature="0"
     style="fill:#000000;stroke-width:0.32000002"
     d="m 468.58039,469.42669 c -0.95216,-0.47565 -1.16422,-0.78853 -1.41523,-2.08798 -0.23082,-1.19511 -0.1856,-1.75833 0.20729,-2.58227 0.44253,-0.92797 0.44586,-1.08953 0.0278,-1.35324 -0.71977,-0.45401 -0.61673,-11.38319 0.12036,-12.76792 0.68966,-1.29563 0.90659,-12.7364 0.44614,-23.52808 -0.33802,-7.92169 -0.74269,-11.49568 -1.82973,-16.16 -0.79277,-3.40174 -0.82854,-13.22626 -0.0535,-14.69618 0.46787,-0.88735 0.45408,-0.97571 -0.26477,-1.69454 -0.62925,-0.62926 -0.75837,-1.08517 -0.75837,-2.67786 0,-1.34995 -0.11868,-1.90407 -0.4,-1.86753 -0.952,0.12361 -1.45497,-0.061 -1.59059,-0.58389 -0.20896,-0.80563 0.0466,-1.36 0.62685,-1.36 0.44752,0 0.44458,-0.0645 -0.0266,-0.5852 -0.47014,-0.5195 -0.5296,-1.76387 -0.5296,-11.08472 0,-9.62428 0.0467,-10.53497 0.56,-10.92463 0.76781,-0.58284 15.75821,-0.63923 16.336,-0.0615 0.28349,0.28349 0.384,3.21068 0.384,11.1841 0,9.94822 -0.0442,10.82582 -0.56,11.12627 -0.35251,0.20531 -0.40333,0.32977 -0.13715,0.3359 0.23257,0.005 0.65741,0.24426 0.94406,0.53092 0.48157,0.48158 0.46691,0.56514 -0.19318,1.09964 -0.3929,0.31815 -0.9977,0.52388 -1.34403,0.45718 -0.57437,-0.11061 -0.6297,0.0624 -0.6297,1.96907 0,1.76749 -0.1087,2.17836 -0.70387,2.6603 -0.67658,0.54784 -0.68279,0.60219 -0.16,1.40003 0.46454,0.70899 0.54387,1.73411 0.54387,7.028 0,3.40885 -0.108,6.30519 -0.24,6.43629 -0.24502,0.24338 -0.6808,2.46224 -1.54528,7.8683 -0.58614,3.66552 -1.14736,21.63224 -0.86896,27.81903 0.11712,2.60309 0.36246,4.62291 0.62189,5.12 0.30493,0.58437 0.42899,2.27955 0.43037,5.88201 0,2.78357 0.14134,5.32144 0.31168,5.63972 0.23302,0.43538 0.15632,0.71751 -0.3097,1.13924 -0.46602,0.42173 -0.54272,0.70386 -0.3097,1.13924 0.34544,0.64546 0.41888,3.48392 0.11088,4.28651 -0.53843,1.40315 -5.61683,1.98497 -7.80118,0.89374 z"
     id="path4909" />
  <path
     inkscape:connector-curvature="0"
     style="fill:#000000;stroke-width:0.32000002"
     d="m 413.59966,431.65037 -0.10156,1.59766 c -0.061,0.96858 -0.28234,1.69979 -0.56055,1.85547 -0.60371,0.33789 -0.58923,1.47657 0.0215,1.71093 0.64454,0.24729 0.62517,2.15574 -0.0274,2.69727 -0.32956,0.27331 -0.44755,0.7193 -0.33789,1.26758 0.1793,0.89652 -0.43779,2.37431 -1.33398,3.19531 -0.58906,0.53962 -3.8062,2.55469 -4.07813,2.55469 -0.25677,0 -2.20697,1.40706 -2.32812,1.67969 -0.0587,0.132 -0.26789,0.24023 -0.46485,0.24023 -0.49001,0 -2.46875,1.952 -2.46875,2.43555 0,0.21481 -0.17843,0.45143 -0.39453,0.52343 -0.26448,0.0882 -0.46201,1.37659 -0.60547,3.94532 -0.11715,2.09863 -0.36172,5.11131 -0.54297,6.69531 -0.18125,1.584 -0.37609,4.53655 -0.43359,6.56055 l -0.10352,3.67968 0.99219,0.0977 c 0.80054,0.078 1.18681,-0.12464 2,-1.05078 0.59513,-0.67782 1.00872,-1.5045 1.01172,-2.01758 0.004,-0.67853 0.0742,-0.76353 0.31641,-0.38867 0.17712,0.27405 0.31145,3.65545 0.31445,7.88086 0.004,6.19232 -0.073,7.46551 -0.47461,7.79883 -0.6173,0.51218 -0.61071,1.10609 0.0215,1.73828 0.43818,0.43816 1.95932,0.50195 11.81835,0.50195 9.85905,0 11.37823,-0.0638 11.81641,-0.50195 0.63204,-0.63219 0.64059,-1.2261 0.0234,-1.73828 -0.41333,-0.34317 -0.4804,-2.36397 -0.4804,-14.57622 0,-12.17596 0.0682,-14.24598 0.48047,-14.6582 0.264,-0.264 0.48047,-0.6766 0.48047,-0.91797 0,-0.99576 -0.76762,-1.20703 -4.38477,-1.20703 h -3.61523 v -1.37695 c 0,-1.47416 -0.42162,-2.14258 -1.34571,-2.14258 -0.5249,0 -0.57617,-0.36733 -0.57617,-4.12695 0,-3.37215 0.0881,-4.16 0.48047,-4.31055 0.264,-0.10131 0.48047,-0.45894 0.48047,-0.79492 0,-0.33597 -0.21647,-0.78871 -0.48047,-1.00782 -0.264,-0.2191 -0.48047,-0.86969 -0.48047,-1.44531 0,-0.6351 0.1892,-1.1187 0.48047,-1.23047 0.61075,-0.23436 0.62523,-1.37304 0.0215,-1.71093 -0.27821,-0.15568 -0.49955,-0.88689 -0.56055,-1.85547 l -0.0996,-1.59766 h -2.24024 z m -0.63086,14.86328 c 0.28161,-0.0749 0.4707,0.5167 0.4707,1.61524 0,1.32741 -0.0983,1.60156 -0.57617,1.60156 -0.9241,0 -1.34375,0.66842 -1.34375,2.14258 v 1.37695 h -3.07422 -3.07617 l 0.2168,-0.88086 c 0.23072,-0.94319 3.18352,-3.91992 3.88867,-3.91992 0.52381,0 2.94254,-1.23964 3.18555,-1.63281 0.11088,-0.17941 0.21472,-0.27778 0.30859,-0.30274 z"
     id="path4907" />
  <path
     inkscape:connector-curvature="0"
     style="fill:#000000;stroke-width:0.32000002"
     d="m 412.29299,356.24419 c -1.35269,0.0115 -1.48047,0.71763 -1.48047,4.33008 0,3.42748 -0.0362,3.64063 -0.63867,3.64063 -0.44307,0 -0.64063,-0.21336 -0.64063,-0.69336 0,-0.38133 -0.0735,-0.61985 -0.16211,-0.53125 -0.26963,0.26966 0.2287,3.14453 0.54492,3.14453 0.16243,0 0.21565,-0.12715 0.11915,-0.2832 -0.0965,-0.15606 0.0387,-0.46219 0.30078,-0.67969 0.40508,-0.33616 0.47656,-0.24203 0.47656,0.62695 0,1.17589 -1.26611,3.50757 -2.22656,4.09961 -0.36614,0.22571 -0.65235,0.74271 -0.65235,1.17578 0,0.43524 -0.42889,1.20036 -0.98047,1.75195 -0.60637,0.60636 -1.04815,1.43723 -1.16211,2.1836 -0.10124,0.66295 -0.36558,1.42155 -0.58593,1.68555 -0.59216,0.70941 -1.18831,3.84286 -0.81641,4.29101 0.19017,0.22922 0.19559,0.54911 0.0117,0.83984 -0.16323,0.2581 -0.29973,0.86332 -0.30273,1.34376 -0.006,1.04046 0.90644,3.44531 1.30664,3.44531 0.15491,0 0.25365,0.34528 0.21875,0.76758 -0.0789,0.95348 1.05274,3.38367 1.57812,3.38867 0.21321,0.002 0.55,0.61528 0.74805,1.36328 0.19802,0.748 0.73374,1.75623 1.1914,2.24023 0.77607,0.8207 1.00766,0.88086 3.45313,0.88086 2.52631,0 2.65962,-0.038 3.62109,-1.02148 0.70231,-0.71831 0.99805,-1.32837 0.99805,-2.0586 0,-0.75851 0.17221,-1.09289 0.64258,-1.24218 0.71868,-0.2281 1.91797,-2.44926 1.91797,-3.55469 0,-0.39437 0.25059,-0.97062 0.55859,-1.2793 0.82557,-0.827 0.82528,-7.90936 0,-9.07617 -0.30778,-0.43515 -0.55859,-1.02475 -0.55859,-1.31055 0,-0.78772 -0.84684,-2.31961 -1.75196,-3.16992 -0.44453,-0.41763 -0.80857,-1.06697 -0.80857,-1.44336 0,-0.3764 -0.43249,-1.0992 -0.96094,-1.60547 -0.70131,-0.67192 -0.85308,-0.98806 -0.56054,-1.17382 0.64458,-0.40926 0.77869,-0.34352 2.55273,1.29296 0.92935,0.85728 2.18789,2.00796 2.79687,2.55665 1.00593,0.90629 1.12823,1.21129 1.33985,3.32226 0.12813,1.27803 0.24105,3.72736 0.25195,5.44336 0.0187,2.94935 0.0565,3.11914 0.69141,3.11914 0.66496,0 0.66905,-0.0544 0.44531,-5.51953 l -0.22461,-5.51953 -2.9043,-2.73633 -2.90234,-2.73437 0.73242,-0.99219 c 0.8801,-1.1904 1.19288,-3.44725 0.68946,-4.97266 -0.55575,-1.68391 -1.6909,-2.58419 -3.30274,-2.61719 -1.34541,-0.0275 -1.36757,-0.044 -1.52539,-1.30664 -0.15242,-1.21943 -0.21638,-1.28496 -1.38086,-1.38086 -0.24647,-0.0203 -0.46496,-0.0329 -0.6582,-0.0312 z m 3.44922,3.73829 c 1.82793,0.0795 2.58984,1.12383 2.58984,3.43359 0,1.55278 -0.13448,2.05441 -0.70508,2.625 l -0.70508,0.70508 -1.29492,-1.47071 c -1.19796,-1.36101 -1.29492,-1.61046 -1.29492,-3.3457 0,-1.55337 0.0966,-1.88263 0.56055,-1.92383 0.3055,-0.0272 0.58847,-0.0348 0.84961,-0.0234 z m -1.26563,6.04492 c 0.12542,-0.0557 0.34336,0.0823 0.63477,0.40429 0.61104,0.67522 0.38053,0.88278 -0.41797,0.37696 -0.24141,-0.15295 -0.38055,-0.4503 -0.31055,-0.66016 0.0206,-0.0616 0.052,-0.10253 0.0937,-0.12109 z"
     id="path4883" />
  <path
     style="fill:#000000;stroke-width:0.32000002"
     d="m 187.91884,325.24512 c -1.11049,0 -2.00195,0.85955 -2.00195,1.92969 0,0.70344 -0.1776,0.90544 -0.92383,1.05469 -0.9753,0.19505 -1.63672,1.41809 -1.63672,3.02734 0,0.43833 -0.20209,0.95693 -0.44922,1.15234 -0.29368,0.23185 -0.3913,0.7178 -0.2832,1.39649 0.15301,0.9607 0.25781,1.03906 1.375,1.03906 0.77986,0 1.2738,-0.17096 1.39258,-0.48047 0.15455,-0.4028 1.13873,-0.4785 6.11133,-0.47852 h 5.92578 l 0.20507,1.2793 c 0.11257,0.704 0.31186,1.2793 0.44336,1.2793 0.13151,0 0.68827,0.0912 1.23829,0.20117 0.91679,0.18336 0.99998,0.12951 1,-0.64062 -10e-6,-0.462 0.27283,-1.11269 0.60546,-1.44532 0.59304,-0.59304 0.61387,-0.58873 1.0293,0.1875 0.23301,0.43538 0.39478,1.45726 0.35938,2.26953 -0.0698,1.60331 0.34081,2.13181 1.26953,1.63477 0.65581,-0.35098 0.78355,-1.76273 0.17773,-1.9668 -0.5589,-0.18827 28.80607,0.0693 30.06055,0.26367 0.64592,0.1001 1.0965,0.38963 1.22265,0.78711 0.10978,0.34589 0.3048,0.62891 0.4336,0.62891 0.12883,0 0.17541,0.50509 0.10351,1.12109 -0.11293,0.96735 -0.04,1.11915 0.54297,1.11915 0.55215,0 0.67578,-0.19474 0.67578,-1.07032 0,-0.6498 0.24161,-1.28881 0.61524,-1.62695 0.55999,-0.50679 1.24486,-0.53901 7.59961,-0.36133 3.84148,0.10741 8.78437,0.34001 10.98437,0.51758 2.2,0.17756 7.74428,0.45759 12.32032,0.62109 4.576,0.16349 8.68109,0.36532 9.12109,0.44922 0.44,0.0839 1.87922,0.3191 3.19922,0.52149 1.32,0.20239 3.04784,0.66689 3.83984,1.0332 1.15825,0.53572 2.06673,0.66611 4.64063,0.66211 1.76,-0.003 3.52501,-0.11066 3.92187,-0.23828 0.77838,-0.25032 0.78486,-0.23927 1.33789,1.89258 0.34617,1.33441 0.40798,1.37933 4.01953,2.86523 0.704,0.28965 1.52852,0.66196 1.83203,0.82812 1.44635,0.79184 4.48575,1.60776 5.7168,1.53516 0.84685,-0.05 1.41636,0.0676 1.4961,0.30664 0.17777,0.53327 1.65785,0.48689 1.86718,-0.0586 0.17142,-0.44673 1.40821,-0.34395 1.40821,0.11719 0,0.49395 2.80933,1.2871 4.56054,1.2871 2.18231,10e-6 3.7857,-0.69671 4.53711,-1.96874 0.44439,-0.75228 0.50825,-1.33431 0.33008,-2.99805 -0.25384,-2.37036 0.0634,-2.74613 1.63281,-1.92774 0.51642,0.2693 1.16275,0.49123 1.43555,0.49219 0.2728,0.001 0.63358,0.11698 0.80078,0.25781 0.1672,0.14083 1.16666,0.58864 2.22266,0.99414 1.056,0.4055 2.37509,0.93792 2.92968,1.1836 0.55462,0.24567 1.09384,0.44531 1.19922,0.44531 0.24134,0 1.47266,1.21995 1.47266,1.45898 0,0.0977 0.28088,0.79536 0.625,1.55079 0.74516,1.6357 2.12069,2.28624 5.81445,2.75 5.62214,0.7059 7.51033,1.00144 7.97071,1.25195 0.2698,0.1468 0.96293,0.37108 1.54101,0.49805 0.57808,0.12697 1.438,0.43335 1.91016,0.67968 0.47212,0.24632 1.18212,0.44826 1.57812,0.44922 0.396,10e-4 0.71875,0.13487 0.71875,0.29688 0,0.16202 0.46778,0.39795 1.03906,0.52343 0.57129,0.12547 1.4713,0.41285 2,0.63868 2.17492,0.92896 3.28331,1.37215 4.80274,1.92187 0.88,0.31838 1.8833,0.76807 2.23047,1 0.34717,0.23192 0.97296,0.42188 1.39062,0.42188 0.6888,0 2.54284,0.83081 2.9375,1.3164 0.088,0.10828 0.52094,0.29807 0.96094,0.42188 0.44,0.1238 1.23177,0.42042 1.75977,0.6582 0.528,0.23777 1.46407,0.65556 2.08007,0.92969 0.616,0.27413 1.26346,0.49869 1.43946,0.49805 0.52909,-0.002 1.43945,-2.34527 1.43945,-3.70508 0,-0.69914 0.13442,-1.40897 0.29688,-1.57617 0.28848,-0.29687 0.64587,-1.86119 1.3164,-5.74414 0.18234,-1.056 0.52409,-2.49522 0.75977,-3.19922 0.97117,-2.9012 1.172,-4.32668 0.78711,-5.61133 -0.58656,-1.95777 -1.50677,-2.22852 -7.53711,-2.22852 -2.79401,0 -6.2275,-0.14128 -7.63086,-0.31445 -1.40339,-0.17318 -7.15902,-0.46682 -12.79102,-0.65234 -12.48921,-0.41139 -16.65579,-0.73857 -17.91992,-1.4043 -0.528,-0.27806 -1.14283,-0.50685 -1.36523,-0.50781 -0.22237,-10e-4 -0.65336,-0.13582 -0.95899,-0.30079 -0.54471,-0.294 -2.09591,-0.99222 -4.78906,-2.15624 l -1.35156,-0.58399 -0.008,-1.81836 c -0.007,-1.44678 -0.12282,-1.85577 -0.56835,-1.99609 -1.27752,-0.40232 -4.98844,-0.89729 -9.11915,-1.2168 -3.95258,-0.30573 -4.40039,-0.39945 -4.40039,-0.93359 0,-0.50739 -0.25789,-0.59571 -1.75976,-0.59571 -1.55807,0 -1.75977,0.0745 -1.75977,0.65235 0,0.60461 -0.195,0.65344 -2.64062,0.64843 -1.452,-0.003 -2.85514,0.0133 -3.11914,0.0371 -0.264,0.0238 -0.80517,-0.0619 -1.20117,-0.18945 -0.4442,-0.14304 -0.71876,-0.0991 -0.71876,0.11328 0,0.22724 -0.21821,0.20717 -0.64062,-0.0566 -0.352,-0.21982 -0.64062,-0.58107 -0.64062,-0.80273 -1e-5,-0.29683 -0.83219,-0.40235 -3.16016,-0.40235 -2.41923,0 -3.25369,-0.11309 -3.5586,-0.48046 -0.33596,-0.40481 -1.7417,-0.47852 -8.97265,-0.47852 h -8.57422 l -0.41797,-0.94531 c -0.75364,-1.70259 -2.68264,-2.11432 -3.06445,-0.6543 -0.11811,0.45165 -0.43511,0.63867 -1.08789,0.63867 -0.50747,0 -0.92383,0.15325 -0.92383,0.33985 0,0.4336 -9.3511,0.0263 -9.64063,-0.41993 -0.26325,-0.40568 -1.60965,0.034 -2.10742,0.6875 -0.21508,0.28239 -0.39634,0.7919 -0.40234,1.13282 -0.009,0.56039 -0.093,0.53759 -0.89063,-0.22657 l -0.88281,-0.84375 -6.8789,-0.19336 c -3.78274,-0.10583 -7.47168,-0.34206 -8.19922,-0.52539 -0.85879,-0.21636 -1.53221,-0.22541 -1.91993,-0.0254 -0.37961,0.19581 -8.17705,0.21561 -21.39843,0.0547 -20.23525,-0.24628 -20.82252,-0.23623 -21.66602,0.36328 -0.47687,0.33894 -1.30471,0.61719 -1.83984,0.61719 -0.86246,0 -0.97266,-0.10679 -0.97266,-0.9375 0,-1.15964 -0.74103,-1.94336 -1.83789,-1.94336 z m -0.0137,1.47656 c 0.42788,-0.0471 0.89062,0.13953 0.89062,0.43946 0,0.13562 -0.19686,0.40965 -0.4375,0.60937 -0.33373,0.27697 -0.53758,0.24125 -0.85937,-0.14648 -0.34917,-0.4213 -0.3489,-0.55297 0.008,-0.77344 0.11645,-0.072 0.25581,-0.11322 0.39844,-0.12891 z m 15.29101,10.6836 c 0.176,0 0.32032,0.14431 0.32032,0.32031 0,0.176 -0.14432,0.32031 -0.32032,0.32031 -0.176,0 -0.32031,-0.14431 -0.32031,-0.32031 0,-0.176 0.14431,-0.32031 0.32031,-0.32031 z m 32.97852,1.91992 c 0.18642,0 0.24939,0.14431 0.14063,0.32031 -0.10878,0.176 -0.2603,0.32031 -0.3379,0.32031 -0.0776,0 -0.14062,-0.14431 -0.14062,-0.32031 0,-0.176 0.1515,-0.32031 0.33789,-0.32031 z m 79.34766,2.74414 c 0.42815,-0.0819 1.68015,0.43443 2.30078,0.99609 1.66892,1.51035 1.3409,4.61079 -0.57227,5.41016 -2.03641,0.85087 -4.67249,0.38888 -6.53125,-1.14649 -0.78832,-0.65116 -0.96289,-1.03798 -0.96289,-2.12109 0,-1.61568 0.56927,-2.18037 1.90625,-1.88672 0.76362,0.16772 0.97266,0.10561 0.97266,-0.29101 0,-0.27798 0.16463,-0.50586 0.36523,-0.50586 0.46257,0 1.07302,0.77508 1.88867,2.39648 0.53633,1.06615 0.58121,1.4222 0.27149,2.16992 -0.49305,1.19033 -0.13722,1.47232 0.65625,0.51953 0.79952,-0.96001 0.80392,-1.33692 0.0449,-3.49218 -0.33731,-0.95783 -0.54825,-1.84591 -0.46875,-1.97461 0.0233,-0.0377 0.0677,-0.0625 0.12891,-0.0742 z"
     id="path4877"
     inkscape:connector-curvature="0" />
  <path
     style="fill:#000000;stroke-width:0.32000002"
     d="m 18.40788,266.47218 c -1.00098,-0.009 -1.26962,0.14258 -1.67968,0.93554 -0.26852,0.51926 -0.48828,1.53639 -0.48828,2.26172 v 1.31836 l -1.67969,-0.10156 -1.67969,-0.10352 -0.0996,1.38281 c -0.0548,0.76101 0.0452,1.55965 0.22266,1.77344 0.19812,0.23872 1.40867,0.4188 3.13867,0.4668 13.2523,0.36762 29.5223,1.24619 29.97265,1.61914 0.20025,0.16582 2.82655,0.35086 5.83594,0.41016 6.81974,0.13444 6.6859,0.0573 6.42969,3.62109 -0.10145,1.41115 -0.40708,3.1942 -0.67969,3.96094 -0.56975,1.60246 -0.45184,1.96484 0.63867,1.96484 h 0.78125 v 15.49414 c 0,8.52161 0.0865,15.72161 0.19336,16 0.28761,0.74952 5.42695,0.73025 6.25977,-0.0234 0.70954,-0.64212 0.75618,-1.34405 0.10547,-1.59375 -0.41685,-0.15996 -0.48047,-2.08434 -0.48047,-14.61914 V 286.8062 l 0.82226,-0.6543 c 0.72455,-0.57774 0.78161,-0.76068 0.48047,-1.55273 -0.18776,-0.49385 -0.34179,-1.19859 -0.34179,-1.56641 0,-0.60177 0.0567,-0.62203 0.56054,-0.20117 1.01775,0.85004 2.15709,1.15454 3.92969,1.05078 0.96286,-0.0564 7.66934,-0.2063 14.9043,-0.33203 l 13.15429,-0.22852 0.16016,1.66407 c 0.1803,1.87644 1.5139,3.86734 2.83985,4.23828 1.20907,0.3382 6.40956,0.30877 7.67578,-0.043 1.5687,-0.43578 2.41975,-1.47644 2.67774,-3.27734 0.21592,-1.5073 0.22666,-1.52149 1.42773,-1.52149 1.56336,0 3.14373,0.79976 4.34961,2.19922 2.56122,2.97237 3.14625,3.56055 3.53125,3.56055 0.22886,0 0.46906,0.16301 0.53516,0.36132 0.21928,0.65783 3.2892,0.72403 5.0039,0.10743 1.48883,-0.53537 1.65574,-0.53794 2.70703,-0.0391 0.61624,0.29242 1.26618,0.53125 1.44532,0.53125 0.17914,0 0.73416,0.20345 1.23242,0.45118 0.49826,0.24771 1.26508,0.59697 1.70508,0.77734 0.83763,0.34339 1.99433,0.83232 4.60156,1.94531 0.85837,0.36642 1.75837,0.66602 2,0.66602 0.24163,0 0.43945,0.14431 0.43945,0.32031 0,0.176 0.15816,0.32031 0.35156,0.32031 0.1934,0 0.80478,0.20355 1.35938,0.45313 2.65369,1.19418 4.16742,1.78711 4.56836,1.78711 0.24163,0 0.43945,0.10861 0.43945,0.24218 0,0.24467 2.4626,1.15194 5.8125,2.14258 0.99662,0.29473 2.36368,0.49105 3.03906,0.43555 1.13426,-0.0933 1.25563,-0.19855 1.57227,-1.38086 0.18853,-0.704 0.43601,-1.49576 0.55078,-1.75977 0.19636,-0.45168 0.33633,-0.9806 1.31836,-4.96093 0.21711,-0.88 0.56462,-2.00454 0.77148,-2.5 0.20686,-0.49545 0.375,-1.07953 0.375,-1.29688 0,-0.21734 0.16051,-0.55504 0.35547,-0.75 0.19497,-0.19497 0.42788,-1.26735 0.51758,-2.38476 l 0.16211,-2.03321 -1.09375,-0.39453 c -1.10994,-0.40136 -2.52328,-0.73839 -5.70117,-1.35742 -0.968,-0.18857 -2.40722,-0.48434 -3.19922,-0.6582 -0.792,-0.17385 -2.37553,-0.44471 -3.51953,-0.60157 -2.50854,-0.34395 -5.88181,-0.87668 -8.46289,-1.33593 -3.16783,-0.56365 -9.21052,-0.91871 -10.41797,-0.61328 -0.616,0.15582 -1.76855,0.52391 -2.56055,0.81836 -1.77589,0.66024 -5.47502,0.44807 -7.05078,-0.4043 -1.20095,-0.64962 -2.22851,-1.55778 -2.22851,-1.96875 0,-0.15445 -0.20501,-0.45065 -0.45508,-0.6582 -0.39094,-0.32444 -0.37964,-0.51988 0.0801,-1.39844 0.29407,-0.562 0.64339,-1.07021 0.77539,-1.12891 0.31588,-0.14034 0.31214,-1.97265 -0.004,-1.97265 -0.24441,0 -0.82193,-0.94818 -1.21875,-2 -0.18488,-0.4901 -0.68784,-0.56055 -4.01562,-0.56055 -2.09148,0 -3.80093,-0.10824 -3.80079,-0.24024 1.4e-4,-0.13186 -3.62528,-0.19256 -8.05468,-0.13476 -7.07526,0.0924 -8.08759,0.0434 -8.33595,-0.40039 -0.15588,-0.27854 -0.69687,-0.50586 -1.20703,-0.50586 -0.50887,0 -1.02237,-0.15632 -1.14062,-0.34766 -0.15482,-0.25051 -0.31199,-0.25051 -0.5625,0 -0.19134,0.19134 -1.04421,0.34766 -1.89453,0.34766 -1.07907,0 -1.60192,0.14545 -1.73047,0.48047 -0.15629,0.4073 -1.29043,0.48047 -7.49024,0.48047 -4.52607,0 -7.38335,-0.12211 -7.50586,-0.32032 -0.10877,-0.176 -0.47674,-0.32031 -0.81836,-0.32031 -0.34161,0 -0.62109,0.14431 -0.62109,0.32031 0,0.43827 -11.99996,0.42732 -12.82031,-0.0117 -0.43262,-0.23155 -0.81895,-0.22398 -1.28125,0.0234 -0.38641,0.2068 -2.33293,0.3488 -4.68164,0.3418 -3.99177,-0.0114 -4.02913,-0.004 -5.17188,0.9375 l -1.15039,0.94922 H 33.88446 c -10.5946,0 -11.04877,-0.025 -12.08594,-0.66602 -0.89696,-0.55436 -1.07813,-0.85708 -1.07813,-1.80468 0,-1.39223 -0.68638,-1.9861 -2.3125,-2 z m 85.91016,16.63671 c 1.18977,-0.0305 1.35692,0.32163 1.32032,1.41993 -0.0246,0.73936 -0.25272,1.39991 -0.56055,1.625 -0.64843,0.47416 -0.6624,0.78906 -0.0371,0.78906 0.264,0 0.47852,-0.14431 0.47852,-0.32031 0,-0.176 0.15663,-0.32032 0.34765,-0.32032 0.19102,0 0.79023,-0.49764 1.33008,-1.10742 1.08924,-1.23029 1.52653,-1.20677 1.51953,0.0859 -0.007,1.46929 -0.33958,2.21099 -1.1582,2.58398 v -0.002 c -1.18363,0.5393 -3.98109,0.42777 -4.99219,-0.19922 -0.93382,-0.57907 -1.52539,-1.86175 -1.52539,-3.30469 0,-0.83521 0.10337,-0.90388 1.7168,-1.10547 0.65443,-0.0818 1.16396,-0.13435 1.56054,-0.14453 z"
     id="path4867"
     inkscape:connector-curvature="0" />
  <path
     style="fill:#000000;stroke-width:0.32000002"
     d="m 321.69587,262.76986 c -1.00778,-0.012 -1.99115,0.13762 -2.18555,0.33203 -0.25795,0.25795 -0.24375,0.35352 0.0527,0.35352 0.2382,0 0.36469,0.29843 0.30469,0.7207 -0.0905,0.63709 -0.34311,0.74262 -2.18359,0.92188 -1.144,0.11143 -3.844,0.21963 -6,0.24023 l -3.91992,0.0371 v 1.89844 c 0,1.53306 0.10832,1.92989 0.56054,2.06055 0.308,0.089 3.84123,0.26247 7.85157,0.38476 6.66147,0.20312 7.31922,0.27255 7.61132,0.81836 0.23098,0.43157 0.67745,0.59766 1.60938,0.59766 1.03543,0 1.5228,0.22064 2.46875,1.11719 l 1.17969,1.11718 -10.94141,0.004 c -6.95194,0.002 -11.01301,-0.11503 -11.13867,-0.31836 -0.10878,-0.176 -0.75819,-0.32031 -1.44141,-0.32031 -0.68323,0 -1.33068,0.14431 -1.43945,0.32031 -0.12393,0.20053 -3.41613,0.32031 -8.81836,0.32031 h -8.6211 v -0.95898 c 10e-6,-0.9244 -0.0547,-0.96094 -1.4414,-0.96094 -0.792,0 -1.43945,0.14431 -1.43945,0.32031 0,0.21067 -8.73334,0.32031 -25.56055,0.32031 -21.87064,0 -25.61576,0.0662 -25.94336,0.46094 -0.3201,0.3857 -2.6257,0.47805 -14.0625,0.56055 -14.5544,0.10498 -14.25495,0.0723 -14.84375,1.62695 -0.19559,0.5164 -0.67438,0.55862 -5.26172,0.47852 l -5.04687,-0.0879 -0.0371,-2.08008 -0.0352,-2.08008 h -1.4043 -1.40429 l -0.0957,2 c -0.0891,1.86968 -0.14538,2 -0.86133,2 -0.42122,0 -0.85411,-0.14431 -0.96289,-0.32031 -0.23942,-0.38743 -7.20117,-0.43647 -7.20117,-0.0508 0,0.14775 -0.35883,0.43233 -0.79883,0.63281 -0.63287,0.28836 -0.80078,0.60074 -0.80078,1.49219 0,0.74986 0.15064,1.12695 0.44727,1.12695 0.24517,0 0.5276,0.21647 0.6289,0.48047 0.13301,0.34661 0.67691,0.47852 1.95508,0.47852 1.36004,0 1.76953,0.11164 1.76953,0.48046 0,0.4019 0.67208,0.48047 4.13282,0.48047 2.90759,0 4.17066,0.11339 4.25976,0.38086 0.177,0.53098 3.15688,0.55506 3.35938,0.0274 0.22172,-0.57784 35.80945,-0.60289 36.00195,-0.0254 0.19803,0.59408 3.32967,0.86519 15.60547,1.35352 11.54279,0.45917 18.26933,0.89797 22.88086,1.49219 1.408,0.18143 4.28839,0.46036 6.40039,0.62109 10.58162,0.80531 13.29951,1.0553 15.35937,1.41016 l 2.24024,0.38672 -0.0957,3.17578 c -0.0528,1.74725 -0.24655,3.65166 -0.42969,4.23047 -0.51344,1.62268 -0.0642,1.89667 3.5,2.14453 1.70756,0.11875 3.60861,0.34139 4.22461,0.49414 0.616,0.15275 2.205,0.37308 3.53125,0.49023 l 2.41211,0.21485 0.40625,-0.89453 c 0.22387,-0.49134 0.55118,-2.54507 0.72656,-4.56446 0.28864,-3.32354 0.39968,-3.75756 1.17969,-4.58398 0.848,-0.89847 0.91963,-0.91406 4.45117,-0.91406 3.27955,0 3.64397,0.0611 4.24023,0.70117 0.41904,0.44976 0.65235,1.13404 0.65235,1.91406 0,0.89026 0.25064,1.49379 0.93554,2.25977 l 0.9336,1.04492 h 3.15429 c 2.71715,0 3.24601,-0.0892 3.82227,-0.64063 0.94368,-0.90311 1.39453,-1.87922 1.39453,-3.01758 0,-1.48724 1.05076,-2.37194 2.50977,-2.11328 3.34595,0.59319 4.92172,1.56101 9.23632,5.67969 2.29067,2.18661 3.14753,2.8125 3.85547,2.8125 0.5007,0 1.08286,-0.1727 1.29297,-0.38281 0.69645,-0.69644 4.4879,-0.45975 7.10547,0.44336 1.32,0.45543 3.48078,1.15253 4.80078,1.54883 1.32,0.3963 2.85362,0.91708 3.40821,1.15625 0.55462,0.23918 1.30114,0.43359 1.66015,0.43359 0.35901,0 0.73469,0.13228 0.83399,0.29297 0.0993,0.16069 0.78702,0.39445 1.52734,0.51953 0.74032,0.12507 1.56714,0.34525 1.83789,0.49023 0.43741,0.23421 2.68222,0.89972 6.57227,1.94922 0.704,0.18993 1.42361,0.38871 1.59961,0.44141 0.66371,0.19888 1.01599,0.13364 1.60742,-0.29883 0.52013,-0.38032 0.61266,-0.8828 0.63476,-3.43945 0.0354,-4.10654 1.12479,-10.33605 2.26172,-12.9336 0.23578,-0.5384 0.35021,-1.28021 0.25391,-1.64843 -0.19927,-0.76197 -0.72496,-0.88603 -5.87696,-1.38086 -8.50087,-0.81647 -11.49995,-0.99083 -17.91992,-1.04883 l -6.88086,-0.0625 -1.91992,0.92969 c -1.54423,0.74801 -2.36539,0.93522 -4.19922,0.95312 -1.25401,0.0123 -2.47871,-0.13852 -2.7207,-0.33398 -0.24195,-0.19546 -0.91808,-0.45712 -1.50195,-0.58203 -0.58384,-0.12491 -1.44777,-0.42947 -1.91993,-0.67579 -0.47212,-0.24633 -1.1008,-0.44825 -1.39843,-0.44921 -0.2976,-0.001 -0.6204,-0.12911 -0.7168,-0.28516 -0.0965,-0.15605 -0.70202,-0.38315 -1.3457,-0.50391 -0.64364,-0.12075 -1.52116,-0.44999 -1.94922,-0.73047 -0.66717,-0.43715 -0.7064,-0.5487 -0.27344,-0.79101 0.27779,-0.15546 0.50586,-0.62591 0.50586,-1.04492 0,-0.54643 0.20233,-0.79194 0.71875,-0.86524 1.11545,-0.15842 1.19036,-1.75987 0.10156,-2.17383 -0.45168,-0.17173 -0.82031,-0.53242 -0.82031,-0.80078 0,-0.26835 -0.14431,-0.48632 -0.32031,-0.48633 -0.176,0 -0.32031,-0.1722 -0.32031,-0.38085 0,-0.20866 -0.27938,-0.67573 -0.6211,-1.03907 l -0.62109,-0.66015 h 2.78125 2.78125 l -0.11524,-2.40039 c -0.0631,-1.32 -0.18413,-2.5163 -0.26953,-2.65821 -0.0854,-0.14188 -2.57114,-0.15795 -5.52343,-0.0351 -5.92261,0.24634 -7.05274,0.1172 -7.05274,-0.80664 0,-0.33398 0.18039,-0.6714 0.40039,-0.75 0.81641,-0.29157 -0.0512,-0.57451 -1.82812,-0.59571 z m -130.65235,15.65625 c 0.836,-0.0527 1.52149,0.0132 1.52149,0.14649 0,0.13323 -0.97216,0.22322 -2.16016,0.19922 -2.23834,-0.0452 -1.99082,-0.1799 0.63867,-0.34571 z m 130.73047,6.78907 c 0.9151,0 2.63086,2.28314 2.63086,3.5 0,0.36357 0.16159,0.66015 0.35938,0.66015 0.53034,0 0.17765,-3.50671 -0.38868,-3.86523 -0.29952,-0.18964 0.0864,-0.28516 1.14844,-0.28516 1.89584,0 2.24515,0.18178 2.71289,1.41211 0.47283,1.24361 0.13896,2.57955 -0.80078,3.19531 -1.08832,0.7131 -5.12802,0.67385 -6.3125,-0.0605 -0.75399,-0.46747 -0.87891,-0.75659 -0.87891,-2.02149 0,-1.45406 0.6526,-2.53515 1.5293,-2.53515 z"
     id="path4863"
     inkscape:connector-curvature="0" />
  <path
     style="fill:#000000;stroke-width:0.32000002"
     d="m 462.76585,274.0001 c -0.33273,0.007 -0.72853,0.22943 -0.86524,0.66016 -0.19853,0.62546 -0.48395,0.64067 -12.58203,0.63867 -6.80813,-8.5e-4 -15.99017,0.0852 -20.40429,0.1914 -7.31337,0.1759 -8.07374,0.14503 -8.57422,-0.35546 -0.48912,-0.48911 -0.67449,-0.50135 -1.69922,-0.11133 -0.63293,0.24088 -1.43373,0.81642 -1.7793,1.27929 -0.57539,0.77066 -0.60921,1.15367 -0.39648,4.5586 l 0.23242,3.71875 h 6.13672 c 3.37571,0 6.27616,0.13117 6.44336,0.29101 0.1672,0.15985 2.05601,0.34029 4.19726,0.40039 3.62003,0.1017 3.93781,0.16129 4.54492,0.86133 0.69241,0.79845 1.13934,2.00457 1.46875,3.9668 0.11078,0.66 0.33783,1.20117 0.50586,1.20117 0.16804,0 0.30664,0.14431 0.30664,0.32031 0,0.50491 1.03666,1.41083 2.29883,2.00977 0.90004,0.42709 2.03895,0.54883 5.11328,0.54883 3.61591,0 3.98782,0.0559 4.35547,0.64453 0.63408,1.01534 1.40094,3.49641 1.1875,3.84179 -0.10656,0.17244 -0.0399,0.31446 0.14649,0.31446 0.18637,0 0.33789,0.35653 0.33789,0.79297 0,0.43644 0.19481,1.33644 0.43359,2 1.06967,2.97255 1.70655,5.97768 1.52734,7.20703 -0.0705,0.4838 0.19993,0.56054 1.98047,0.56054 1.44157,10e-6 2.18033,0.14277 2.45899,0.47852 0.2191,0.264 0.74595,0.48047 1.16992,0.48047 0.42396,0 0.85377,-0.21647 0.95508,-0.48047 0.13421,-0.34977 0.68274,-0.47852 2.02539,-0.47852 3.14247,0 4.14667,-1.49976 3.53517,-5.28124 -0.5859,-3.62285 -1.0557,-5.77579 -1.3223,-6.0625 -0.1555,-0.1672 -0.2832,-0.64311 -0.2832,-1.05665 0,-0.41354 -0.19988,-1.13997 -0.44334,-1.61523 -0.58364,-1.13932 -0.95332,-4.50767 -0.67578,-6.15039 0.23981,-1.41936 1.43772,-2.875 2.36522,-2.875 0.9248,0 1.9693,-1.12949 2.166,-2.3418 0.1615,-0.99485 -0.5981,-3.87202 -1.1562,-4.3789 -0.6114,-0.55528 -1.1808,-2.20327 -0.9219,-2.66602 0.4583,-0.81901 -0.5719,-2.13281 -1.67187,-2.13281 -0.49738,0 -0.98198,0.12495 -1.07618,0.27734 -0.0942,0.15243 -0.51801,0.20981 -0.9414,0.12891 -0.57093,-0.10914 -0.72766,-0.30352 -0.60938,-0.75586 0.1125,-0.43018 -0.1575,-0.63825 -0.49023,-0.63086 z m -17.2207,11.54101 h 1.32617 l 0.11133,1.35938 c 0.26384,3.22949 0.18871,4.13008 -0.3711,4.44336 -0.30288,0.1695 -0.55078,0.66054 -0.55078,1.0918 0,0.7128 -0.12302,0.783 -1.35938,0.76172 -1.398,-0.024 -3.01147,-0.82042 -3.52734,-1.74219 -0.48922,-0.87424 -0.372,-3.25501 0.20313,-4.13281 0.6728,-1.0268 2.43928,-1.78126 4.16797,-1.78126 z m 15.49414,24.00391 c 0.41203,-0.003 0.65128,0.13796 0.54101,0.31641 -0.23782,0.3848 -0.20341,0.3848 -0.79883,0 -0.38618,-0.24961 -0.33661,-0.31241 0.25782,-0.31641 z"
     id="path4857"
     inkscape:connector-curvature="0" />
  <path
     style="fill:#000000;stroke-width:0.32000002"
     d="m 16.022842,181.08194 c -1.20006,0 -1.38892,0.10931 -1.81641,1.04102 -0.29151,0.63535 -0.47887,2.00454 -0.48047,3.52148 -0.001,1.36569 -0.14884,2.66255 -0.32812,2.88086 -0.17929,0.21832 -0.37469,0.75727 -0.43555,1.19727 -0.098,0.70866 -0.28441,0.81008 -1.63086,0.89648 l -1.5214801,0.0977 v 1.50391 1.50195 l 11.5566401,-0.10938 c 8.03205,-0.075 11.66243,-0.002 11.9043,0.24024 0.21962,0.21963 2.12448,0.35056 5.16406,0.35156 3.69363,0.002 5.03514,0.11542 5.75391,0.49023 0.79156,0.4128 2.65037,0.48388 11.96484,0.45508 9.15694,-0.0283 11.10531,0.0428 11.48437,0.42188 0.34264,0.34263 0.79043,0.39176 1.79493,0.19726 3.60148,-0.69733 7.30394,0.01 7.71093,1.47266 0.39863,1.43293 0.18033,3.28281 -0.48828,4.13281 -0.64396,0.81867 -0.6502,0.8878 -0.11914,1.47461 0.43648,0.48231 0.51482,0.94658 0.36133,2.14453 -0.6406,4.99948 -2.66548,12.81437 -4.20898,16.24805 -1.05395,2.34462 -1.4375,3.32086 -1.4375,3.64844 0,0.1934 -0.13291,0.35156 -0.29493,0.35156 -0.16201,0 -0.38989,0.43294 -0.50586,0.96094 -0.11596,0.528 -0.33421,0.95898 -0.48437,0.95898 -0.15015,0 -0.36982,0.30644 -0.48828,0.67969 -0.11847,0.37325 -0.6628,1.31414 -1.21094,2.0918 -0.78829,1.11835 -0.92566,1.52683 -0.6543,1.95703 0.18869,0.29914 2.05634,1.43636 4.15039,2.52539 2.09406,1.08903 3.88504,1.98905 3.98047,2.00195 0.2348,0.0318 3.28991,-5.1123 4.12891,-6.95312 0.18494,-0.40577 0.68192,-1.48616 1.10547,-2.40039 2.73447,-5.90249 4.12969,-10.6213 5.3125,-17.98243 0.16968,-1.056 0.31085,-2.81992 0.31445,-3.91992 l 0.006,-2 h 0.96094 c 0.61866,0 0.95898,0.16242 0.95898,0.45703 0,1.04529 0.95477,1.46289 3.34571,1.46289 2.13434,0 2.38611,0.0697 2.85742,0.78907 0.28424,0.4338 0.52144,0.97301 0.52734,1.19921 0.0135,0.52156 0.87784,1.55069 1.90039,2.26172 1.01011,0.70237 7.696198,0.8113 8.386718,0.13672 0.82787,-0.80876 2.01283,-1.50586 2.5586,-1.50586 0.48748,0 1.60732,1.24892 3.14453,3.51172 0.264,0.38861 0.74933,1.01691 1.07812,1.39649 1.35431,1.56353 2.13044,3.10229 1.94336,3.84765 -0.26869,1.07055 0.65579,1.91572 1.83594,1.67969 1.29989,-0.25998 4.45292,-1.76859 5.30273,-2.53711 0.396,-0.35812 0.71875,-0.93279 0.71875,-1.27734 0,-0.73293 -1.19659,-2.78125 -1.625,-2.78125 -0.16164,0 -0.29492,-0.21647 -0.29492,-0.48047 0,-0.264 -0.10823,-0.48015 -0.24023,-0.48047 -0.132,-3.1e-4 -0.64828,-0.64776 -1.14844,-1.43945 -0.50016,-0.79168 -1.04133,-1.43946 -1.20117,-1.43946 -0.15984,0 -0.28907,-0.15086 -0.28907,-0.33398 0,-0.28533 -1.11951,-2.06483 -1.60156,-2.54688 -0.65896,-0.65896 -1.91992,-3.38458 -1.91992,-4.15039 0,-0.30425 0.15834,-1.00823 0.35156,-1.5625 0.25924,-0.74366 0.54825,-1.00781 1.10157,-1.00781 0.4124,0 0.83849,0.14431 0.94726,0.32031 0.11788,0.19074 2.16114,0.31932 5.05859,0.31836 4.11661,-0.001 5.00639,-0.0898 5.81055,-0.57812 1.17925,-0.71614 1.13165,-0.73263 8.49219,2.86719 8.48105,4.14781 9.77633,4.7539 10.18359,4.7539 0.20609,0 0.375,0.14236 0.375,0.31836 0,0.176 0.18039,0.32127 0.40039,0.32227 0.22,0.001 0.82257,0.22243 1.33985,0.49218 1.6785,0.87528 6.04138,2.70703 6.44922,2.70703 0.21835,0 0.4452,0.10824 0.5039,0.24024 0.0587,0.132 0.97135,0.57224 2.02735,0.98047 1.056,0.40822 2.18999,0.88965 2.51953,1.06836 0.32953,0.17871 1.34221,0.40044 2.25,0.49414 2.59216,0.26757 2.58984,0.27248 2.58984,-7.96485 0,-4.7979 0.11281,-7.0711 0.35742,-7.22851 0.58228,-0.37471 0.801,-1.52746 0.46094,-2.42188 -0.412,-1.08365 -1.71686,-2.21008 -3,-2.58984 -1.25185,-0.37055 -10.52046,-0.38865 -15.78125,-0.0312 -3.26748,0.22198 -4.23204,0.17493 -6.08008,-0.29883 -2.60122,-0.66686 -4.85493,-1.38796 -5.64844,-1.80664 -0.31443,-0.16591 -1.85564,-0.73176 -3.42578,-1.25781 l -2.85546,-0.95703 -17.30665,-0.20703 c -9.51885,-0.11326 -17.381688,-0.32549 -17.472648,-0.47266 -0.091,-0.14718 -0.93206,-0.26758 -1.86914,-0.26758 -1.43467,0 -1.73017,-0.10171 -1.8711,-0.64062 -0.14426,-0.5517 -0.43635,-0.63868 -2.11719,-0.63868 h -1.94921 v -1.75976 -1.76172 h -1.40625 c -1.0079,0 -1.46299,0.149 -1.60743,0.52539 -0.17541,0.45715 -0.65598,0.50464 -3.7207,0.35938 -3.92886,-0.18622 -3.83584,-0.23115 -5.25976,2.41797 l -0.63282,1.17773 h -19.45121 c -19.18355,0 -19.46925,0.009 -20.90039,0.68164 -1.2686,0.59632 -1.85349,0.66407 -4.65234,0.5293 -3.11045,-0.14978 -3.19872,-0.13542 -3.10547,0.51757 0.0893,0.62532 0.31757,0.67806 3.29492,0.75196 3.76807,0.0935 4.50715,0.22881 4.75586,0.87695 0.1619,0.42186 -0.76303,0.48242 -7.32617,0.48242 h -7.50977 v -4.41601 c 0,-3.008 -0.12124,-4.53726 -0.38281,-4.79883 -0.2112,-0.2112 -0.98786,-0.38477 -1.72461,-0.38477 z m 83.89258,22.08008 h 2.027338 l 0.22071,1.18164 c 0.12187,0.64962 0.0742,1.57091 -0.10547,2.04688 -0.17997,0.47679 -0.20669,1.05651 -0.0605,1.29297 0.52185,0.84437 1.67373,-0.92519 1.83008,-2.81055 0.15145,-1.82628 0.54416,-2.12938 1.45312,-1.125 0.34836,0.38494 0.5293,1.14737 0.5293,2.23047 0,1.49973 -0.0834,1.69008 -0.94336,2.13476 -1.1089,0.57343 -5.848908,0.64292 -6.970698,0.10157 -1.15503,-0.55739 -1.36358,-3.41686 -0.33985,-4.65039 0.20332,-0.24498 1.1239,-0.40235 2.35938,-0.40235 z"
     id="path4851"
     inkscape:connector-curvature="0" />
  <path
     style="fill:#000000;stroke-width:0.32000002"
     d="m 303.22651,202.10579 c -0.264,0 -0.48047,0.21451 -0.48047,0.47851 0,0.264 -0.14431,0.48047 -0.32031,0.48047 -0.35191,0 -1.59961,1.15783 -1.59961,1.48438 0,0.52237 -1.19505,0.99724 -2.1289,0.8457 -0.72919,-0.11833 -1.30115,0.0294 -1.97852,0.51172 -0.85365,0.60784 -1.38635,0.67773 -5.14258,0.67773 h -4.18945 v -1.08594 c 0,-1.32733 -0.68022,-1.67712 -1.49024,-0.76757 -0.56754,0.6373 -2.3043,1.53515 -2.9707,1.53515 -0.17662,0 -0.44223,-0.46901 -0.58984,-1.04101 -0.26683,-1.034 -0.28163,-1.04102 -2.48242,-1.13672 -1.41847,-0.0617 -2.40656,-0.27142 -2.75196,-0.58399 -0.47683,-0.43153 -2.9038,-0.45977 -21.04687,-0.2539 -11.27952,0.12799 -20.50781,0.33859 -20.50781,0.46875 0,0.13017 -0.33638,0.321 -0.7461,0.42383 -0.40971,0.10283 -1.1654,0.58597 -1.67969,1.07422 l -0.93554,0.88867 -19.1543,0.0957 -19.1543,0.0957 -1.56054,-1.69531 c -1.3149,-1.42926 -1.64931,-1.64083 -2.125,-1.34375 -0.35605,0.22237 -0.60247,0.83627 -0.66407,1.66406 l -0.0976,1.3125 -1.98242,0.0957 -1.98047,0.0957 -0.0996,1.35742 -0.0977,1.35742 19.58985,0.082 19.58984,0.082 0.34766,0.99218 c 0.19168,0.54544 0.58631,1.22595 0.87695,1.51172 0.82329,0.80949 5.0462,1.74767 8.06836,1.79297 1.4263,0.0214 4.03138,0.67134 5.39844,1.34766 0.30562,0.1512 10.13541,0.27539 21.84179,0.27539 h 21.28321 v 6.69336 c 0,3.68161 0.0744,6.8867 0.16406,7.12109 0.12875,0.33625 1.27274,0.40498 5.43945,0.33008 l 5.27734,-0.0937 v -5.10547 -5.10547 h 2.24024 c 1.232,0 2.34056,-0.0157 2.46484,-0.0352 0.12427,-0.0195 0.45769,0.39501 0.74024,0.92187 1.03775,1.935 1.46697,2.14515 4.65234,2.26367 2.85496,0.10623 2.97623,0.0809 3.96094,-0.80078 0.82496,-0.73865 1.06366,-1.25406 1.26562,-2.74805 0.13678,-1.01186 0.33678,-1.92856 0.44532,-2.03711 0.7775,-0.7775 4.47502,-0.56594 6.51757,0.37305 0.5546,0.25496 1.13185,0.4648 1.28125,0.4668 0.33403,0.004 4.26511,4.02258 4.28321,4.3789 0.007,0.14104 0.4401,0.75588 0.96093,1.36524 0.52086,0.60935 0.94727,1.24527 0.94727,1.41406 0,0.16879 0.23802,0.57072 0.5293,0.89258 0.42695,0.47176 1.01456,0.58594 3.02929,0.58594 2.14243,0 2.54637,-0.0891 2.83008,-0.61914 0.48845,-0.91272 1.31485,-1.05255 3.73633,-0.63086 2.28057,0.39714 13.10628,3.89254 17.07422,5.51172 1.22189,0.49861 3.43619,1.24633 4.16016,1.40625 0.44,0.0972 0.94509,0.28046 1.12109,0.40625 0.176,0.12579 1.39875,0.5563 2.71875,0.95703 1.32,0.40074 2.68903,0.85123 3.04101,1.00195 0.64511,0.27621 1.85947,0.59729 4.79883,1.26367 0.88,0.1995 2.10471,0.47769 2.72071,0.61914 2.44688,0.56186 5.11118,0.11976 5.11718,-0.84961 0.001,-0.20533 0.18235,-0.43461 0.40235,-0.50781 0.30294,-0.10074 0.4246,-2.16053 0.5,-8.49219 0.0985,-8.26884 0.0926,-8.37056 -0.62696,-9.34375 -1.21437,-1.64251 -2.16888,-1.921 -6.64257,-1.9414 -8.6824,-0.0396 -26.08092,-1.14463 -29.47071,-1.8711 -0.792,-0.16974 -2.27204,-0.67711 -3.28906,-1.1289 -2.29063,-1.01716 -2.49232,-1.01793 -4.11719,0.008 -1.30784,0.82559 -1.32301,0.82752 -2.63476,0.27148 -1.5576,-0.66024 -4.34641,-1.92335 -7.23828,-3.27734 -2.25765,-1.05704 -6.21227,-2.4387 -8,-2.79492 -0.616,-0.12274 -1.28735,-0.35685 -1.49219,-0.52149 -0.20484,-0.16465 -1.42954,-0.37605 -2.7207,-0.46875 -2.68808,-0.193 -3.78711,-0.61496 -3.78711,-1.45312 0,-0.32226 -0.21647,-0.58594 -0.48047,-0.58594 -0.264,0 -0.48047,-0.21647 -0.48047,-0.48047 0,-0.264 -0.21452,-0.47851 -0.47852,-0.47851 z m -0.63867,14.40039 c 1.807,0 2.79603,1.83655 2.19531,4.07812 -0.17391,0.649 -0.38914,0.72071 -2.18554,0.72071 -2.38842,0 -3.05183,-0.52924 -3.04883,-2.42579 0.002,-1.06525 0.14909,-1.33904 0.98437,-1.81445 0.54115,-0.308 1.46573,-0.55859 2.05469,-0.55859 z m 3.85547,0.50195 c 0.0951,-0.008 0.24063,0.0721 0.46289,0.21094 0.45563,0.28454 0.63867,0.74705 0.63867,1.60351 0,0.77636 -0.22566,1.42879 -0.63867,1.8418 -0.352,0.352 -0.85864,0.64063 -1.125,0.64063 -0.43239,0 -0.43239,-0.12335 0,-1.15821 0.26636,-0.6375 0.48438,-1.64814 0.48438,-2.24414 0,-0.6272 0.0192,-0.88188 0.17773,-0.89453 z"
     id="path4847"
     inkscape:connector-curvature="0" />
  <path
     style="fill:#000000;stroke-width:0.32000002"
     d="m 457.84375,192.62241 c -0.73644,-0.0124 -1.40429,0.14135 -1.40429,0.4707 0,0.69138 -0.47218,0.74633 -4.92578,0.57227 -3.53024,-0.13798 -4.27709,-0.0804 -5.16993,0.40039 -0.92387,0.49754 -1.50573,0.52929 -5.0664,0.28515 -3.0816,-0.21128 -4.14948,-0.18074 -4.57031,0.12696 -0.39875,0.29158 -2.36635,0.40039 -7.18165,0.40039 -6.71221,0 -7.64648,-0.091 -7.64648,-0.75586 0,-0.20283 -0.27427,-0.54145 -0.61133,-0.75196 -0.53177,-0.33211 -0.72373,-0.23975 -1.4414,0.70118 -0.63292,0.8298 -0.82618,1.45765 -0.82618,2.67382 v 1.58985 l 7.79102,-0.17578 c 4.28486,-0.0962 8.1618,-0.0811 8.61719,0.0332 0.48474,0.12165 0.90874,0.50666 1.02148,0.92773 0.7888,2.94683 0.8904,3.11914 1.82227,3.11914 0.87157,0 0.9082,0.0612 0.9082,1.52735 0,1.50198 0.52655,2.66866 1.58399,3.50195 0.69365,0.54657 3.55301,0.50343 4.93554,-0.0742 1.64122,-0.68575 3.35493,-0.33517 4.79102,0.98047 0.64272,0.58881 1.16992,1.15567 1.16992,1.25977 0,0.17706 1.24697,2.05165 1.59961,2.40429 0.70483,0.70484 2.78596,5.09505 4.02148,8.48047 0.94112,2.57865 1.56359,3.49936 2.56446,3.79688 0.51324,0.15258 1.15006,0.39593 1.41406,0.54101 0.76909,0.42263 0.83943,0.38693 2.9082,-1.45898 1.08483,-0.968 2.17037,-1.75977 2.41207,-1.75977 0.3356,0 0.43949,-0.59466 0.43949,-2.51562 0,-2.3379 -0.068,-2.59514 -0.95507,-3.60156 -0.52518,-0.59585 -0.95794,-1.16837 -0.96095,-1.27344 -0.005,-0.16772 -0.41699,-0.71521 -1.59766,-2.11524 -0.17926,-0.21257 -0.32617,-0.4855 -0.32617,-0.60546 0,-0.11996 -0.45847,-0.95406 -1.01953,-1.85352 -0.82262,-1.31879 -1.02502,-1.98684 -1.04102,-3.44922 -0.0165,-1.5076 0.11421,-1.95846 0.7793,-2.67383 0.85418,-0.91877 2.13034,-1.57882 2.82422,-1.46289 0.88429,0.14775 1.27344,-0.631 1.27344,-2.55078 0,-1.05381 0.16254,-2.11199 0.36134,-2.35156 0.2251,-0.27127 0.27971,-0.9405 0.1465,-1.77344 -0.2744,-1.71565 -1.23071,-2.40915 -2.92191,-2.11719 -3.23044,0.55768 -3.47697,0.56096 -3.90039,0.0508 -0.27722,-0.33401 -1.08192,-0.51103 -1.81836,-0.52344 z m -14.64257,9.68945 c 0.55195,0.0413 0.82816,0.24346 1.20117,0.76172 0.56529,0.78553 0.56939,0.90399 0.084,1.92187 -0.50461,1.05819 -0.4997,1.08399 0.17969,1.08399 0.68066,0 0.68171,0.009 0.0742,0.46875 -0.83562,0.63198 -2.66104,0.59684 -3.74024,-0.0723 -1.03095,-0.63918 -1.12143,-1.66488 -0.27343,-3.11718 0.45302,-0.77585 0.80127,-0.97592 1.8164,-1.04102 0.25938,-0.0166 0.47422,-0.0196 0.65821,-0.006 z"
     id="path4841"
     inkscape:connector-curvature="0" />
  <path
     style="fill:#000000;stroke-width:0.32000002"
     d="m 314.5716,135.48293 c -0.38009,-0.0164 -0.81793,-0.01 -1.31445,0.0215 -1.57207,0.0995 -1.57829,0.10503 -1.47461,1.14063 l 0.10351,1.03906 h -6.26367 -6.26562 v 3.20117 3.19922 h 0.96093 0.95899 v 2.23438 c 0,2.05704 -0.0558,2.24683 -0.71875,2.39062 -1.01507,0.22014 -13.48674,0.75434 -13.67774,0.58594 -0.0865,-0.0763 0.10984,-0.2893 0.4375,-0.47266 0.97185,-0.54374 0.0656,-0.7956 -1.95703,-0.54297 -1.01352,0.12659 -3.94898,0.24297 -6.52343,0.25782 -3.83808,0.0221 -4.75612,0.11777 -5.09766,0.52929 -0.33936,0.40891 -0.92558,0.47323 -3.16016,0.34571 -1.50846,-0.0861 -2.8865,-0.14616 -3.0625,-0.13282 -0.176,0.0133 -12.26106,0.0759 -26.85742,0.13867 -20.45619,0.0879 -26.5937,0.0257 -26.77734,-0.27148 -0.18509,-0.29949 -0.42518,-0.30052 -1.07617,-0.004 -0.55908,0.25473 -2.94982,0.38086 -7.1836,0.38086 -5.25029,0 -6.41454,0.0833 -6.74414,0.48047 -0.3225,0.38859 -1.33663,0.48047 -5.32031,0.48047 h -4.91992 v -1.41406 c 0,-2.05943 -0.22323,-2.42579 -1.47461,-2.42579 h -1.08594 v 1.91993 1.91992 h -1.88281 c -1.7541,0 -1.89267,0.0554 -2.03516,0.80078 -0.0841,0.44 -0.0841,1.15961 0,1.59961 l 0.15235,0.79883 h 6.36328 c 6.14936,0 6.36328,0.0221 6.36328,0.64062 0,0.60954 -0.2138,0.64063 -4.48047,0.64063 -3.76889,0 -4.48047,0.0747 -4.48047,0.47851 0,0.41905 1.70612,0.48047 13.43945,0.48047 8.74667,0 13.44141,0.11206 13.44141,0.32031 0,0.176 0.21451,0.32032 0.47852,0.32032 0.26399,0 0.48046,-0.14623 0.48046,-0.32422 0,-0.21653 8.82056,-0.28653 26.64063,-0.21094 22.57703,0.0958 27.02965,0.18955 29.19922,0.61523 1.408,0.27627 3.49662,0.66033 4.64062,0.85352 1.144,0.19319 2.97382,0.50915 4.06641,0.70117 1.09259,0.19202 4.04514,0.46746 6.56055,0.61328 10.93077,0.6337 13.66494,1.02793 15.61328,2.24219 1.07597,0.67057 3.19598,1.58984 3.66601,1.58984 0.27605,0 0.75299,0.13775 1.0586,0.30664 0.59455,0.32856 2.66547,0.82918 5.51562,1.33204 0.968,0.17078 2.69584,0.52747 3.83984,0.79296 1.22796,0.28498 3.93313,0.50782 6.60352,0.54493 4.05048,0.0563 4.59324,-0.001 5.19922,-0.54688 0.42602,-0.38378 0.67578,-0.99524 0.67578,-1.65234 0,-0.57406 0.16527,-1.09871 0.36719,-1.16602 1.24317,-0.41439 6.46406,0.96088 10.72265,2.82617 0.55462,0.24292 1.27423,0.44753 1.59961,0.45313 0.32541,0.006 0.87126,0.22011 1.21289,0.47851 0.34166,0.25841 0.92379,0.47071 1.29493,0.47071 0.37117,0 0.81327,0.13136 0.98047,0.29101 0.1672,0.15964 0.80782,0.43487 1.42382,0.61328 0.616,0.1784 1.91091,0.63797 2.87891,1.02149 0.968,0.38353 2.12055,0.77704 2.56055,0.87304 0.44,0.096 1.08447,0.36904 1.43164,0.60743 0.34717,0.23839 0.92929,0.43359 1.29492,0.43359 0.36563,0 0.80155,0.13137 0.96875,0.29102 0.1672,0.15964 0.80783,0.43487 1.42383,0.61328 0.616,0.1784 1.91286,0.63677 2.88086,1.01758 0.968,0.38079 2.04839,0.76682 2.40039,0.85742 0.352,0.0906 1.09384,0.36678 1.64843,0.61328 0.55462,0.24651 1.21473,0.44726 1.4668,0.44726 0.25206,0 0.56453,0.1075 0.69531,0.23828 0.13079,0.13081 2.20675,0.9055 4.61329,1.72266 2.40656,0.81717 4.69419,1.50334 5.08398,1.52344 1.02423,0.0527 1.42536,-0.96552 1.34766,-3.42383 -0.0663,-2.09802 0.4313,-5.35256 1.01367,-6.62109 0.2895,-0.63062 0.68418,-2.32991 1.25586,-5.41016 0.23572,-1.27001 0.18882,-1.74228 -0.2461,-2.47851 -0.29568,-0.50055 -0.72318,-0.91016 -0.94922,-0.91016 -0.22605,0 -0.41015,-0.12468 -0.41015,-0.27539 0,-0.15071 -0.97216,-0.52275 -2.16016,-0.82813 -3.56394,-0.9161 -13.52818,-1.27293 -24.08008,-0.86132 -9.19626,0.35873 -9.93626,0.33078 -11.67968,-0.43555 -0.528,-0.23208 -1.60839,-0.67062 -2.40039,-0.97461 -0.792,-0.30399 -2.30338,-0.95055 -3.35938,-1.4375 -1.056,-0.48695 -2.51579,-1.13053 -3.24414,-1.42969 -1.15597,-0.47477 -1.35083,-0.69983 -1.52344,-1.77929 -0.14742,-0.92179 -0.31758,-1.1914 -0.67383,-1.05469 -0.26288,0.10087 -0.47851,0.37654 -0.47851,0.61133 0,0.86701 -0.56947,0.72822 -1.83008,-0.44727 l -1.29297,-1.20703 -3.39844,-0.041 c -1.93726,-0.0237 -3.39843,0.0883 -3.39843,0.25977 0,0.16955 -1.53568,0.30078 -3.51953,0.30078 h -3.52149 v -1.91992 c 0,-3.22785 -0.0827,-3.19687 8.56055,-3.21875 4.004,-0.0101 7.85654,-0.12165 8.56054,-0.2461 l 1.2793,-0.22461 0.0918,-2.95703 0.0918,-2.95508 h -5.89258 c -4.8477,0 -5.96331,-0.0836 -6.29102,-0.47851 -0.27526,-0.33164 -0.28723,-0.48047 -0.0391,-0.48047 0.19754,0 0.35937,-0.21396 0.35937,-0.47461 0,-0.4573 -0.60583,-0.71835 -1.74609,-0.76758 z m -9.25391,9.61914 c 1.16422,-0.0887 1.94653,0.84071 1.38672,1.88672 -0.3124,0.58373 -1.26001,0.762 -2.14648,0.4043 -0.67371,-0.27185 -0.48867,-1.95616 0.24023,-2.1875 0.17904,-0.0568 0.35322,-0.0908 0.51953,-0.10352 z m 16.02149,14.98243 c 1.43841,0 2.83584,1.98336 2.49414,3.53906 -0.11368,0.51767 -0.0874,0.93814 0.0586,0.93554 0.72903,-0.0135 1.14994,-0.68372 1.18164,-1.88671 0.0262,-0.99995 0.1535,-1.30357 0.51953,-1.23438 0.80963,0.15313 0.80448,2.24339 -0.008,2.97852 -0.80003,0.72399 -4.67604,0.99581 -6.14648,0.43164 -0.8205,-0.3148 -0.88086,-0.4631 -0.88086,-2.19922 0,-1.80083 0.0332,-1.87314 1.00781,-2.21289 0.55427,-0.19322 1.35234,-0.35156 1.77344,-0.35156 z"
     id="path4837"
     inkscape:connector-curvature="0" />
  <path
     style="fill:#000000;stroke-width:0.32000002"
     d="m 31.014719,96.016141 c -0.20196,-0.0105 -0.41965,-0.008 -0.65625,0.008 l -1.52539,0.0996 -0.41992,1.59961 c -0.23083,0.88 -0.4258,2.01521 -0.4336,2.523439 l -0.0137,0.92383 -1.7539,-0.20508 c -1.65255,-0.19423 -1.7634,-0.16237 -1.94141,0.54687 -0.10388,0.41389 -0.14414,1.31473 -0.0879,2.00196 l 0.10352,1.24804 4.98828,0.16016 c 4.85997,0.15585 5.02301,0.18375 6.32031,1.08398 0.73248,0.50829 1.70753,1.27236 2.16601,1.69727 0.6498,0.60221 1.11915,0.75117 2.12696,0.67578 1.26121,-0.0943 1.57115,-0.35433 1.98437,-1.66602 0.18517,-0.58779 0.52963,-0.60132 9.85938,-0.38086 7.72275,0.18249 9.76918,0.32149 10.17578,0.68946 0.40637,0.36776 1.76913,0.46094 6.76367,0.46094 5.43066,0 6.31405,0.0695 6.69531,0.52929 0.6121,0.73811 0.44384,7.01036 -0.21484,8.01563 -0.25667,0.39172 -0.4668,1.00509 -0.4668,1.36328 0,0.51028 0.20874,0.65234 0.96094,0.65234 h 0.96094 v 18.05274 c 0,14.14325 0.0851,18.0884 0.39844,18.21484 0.68803,0.27759 6.13907,0.21632 6.59765,-0.0742 0.3607,-0.22851 0.42671,-3.292 0.38281,-17.68945 -0.0526,-17.26885 -0.0473,-17.41973 0.61329,-18.01758 0.58287,-0.52749 0.64298,-0.84576 0.47851,-2.54492 -0.14416,-1.48935 -0.1059,-1.81034 0.16602,-1.38086 0.195,0.308 0.70741,0.55859 1.13867,0.55859 0.43125,0 0.7832,0.14432 0.7832,0.32032 0,0.19082 1.22419,0.32031 3.0332,0.32031 2.04089,0 3.45486,0.16738 4.32032,0.51367 0.84882,0.33963 1.58529,0.43069 2.16601,0.26758 0.48405,-0.13597 1.02517,-0.21064 1.20117,-0.16602 1.28717,0.32632 8.857451,0.99149 9.740241,0.85547 0.67056,-0.10332 1.36652,-0.50623 1.78516,-1.03125 l 0.6875,-0.86133 5.81249,-0.15234 5.81446,-0.15234 v 1.41601 c 0,1.71157 1.08191,3.97332 2.3418,4.89258 0.80311,0.58598 1.36965,0.6582 5.12109,0.6582 2.31944,0 4.5834,-0.1158 5.03125,-0.25781 0.73826,-0.23409 0.93253,-0.0851 2.08008,1.59961 1.19483,1.75412 1.44888,2.10407 2.22656,3.08203 0.176,0.22133 0.46267,0.62974 0.63867,0.90625 0.176,0.27652 0.85953,1.275 1.51953,2.2207 0.90504,1.29682 1.20117,2.03838 1.20117,3.01368 0,1.73556 0.78959,2.39453 2.86524,2.39453 0.86761,0 1.65935,-0.13247 1.75976,-0.29493 0.1004,-0.16246 0.6127,-0.39033 1.13868,-0.50585 0.52598,-0.11553 0.95703,-0.3419 0.95703,-0.50391 0,-0.16201 0.20385,-0.29492 0.45508,-0.29492 0.72629,0 1.78425,-1.59379 1.78125,-2.6836 -0.004,-1.19965 -1.89576,-5.10137 -2.88868,-5.95703 -0.49215,-0.42411 -3.50781,-5.05013 -3.50781,-5.38086 0,-0.2078 -0.14431,-0.3789 -0.32031,-0.3789 -0.55732,0 -0.34535,-1.94526 0.3125,-2.86914 0.34771,-0.48831 1.03124,-0.97511 1.51953,-1.08204 2.34988,-0.51458 3.19924,-2.71019 2.67188,-6.91015 -0.35732,-2.84566 -0.95321,-3.90376 -3.7129,-6.60938 -1.81422,-1.778659 -2.58626,-2.316579 -3.55468,-2.476559 -0.68039,-0.11239 -6.87255,-0.20708 -13.76172,-0.20898 -10.83662,-0.003 -12.55158,-0.0671 -12.71094,-0.48243 -0.1013,-0.264 -0.55853,-0.48046 -1.01562,-0.48046 -0.4571,0 -1.09995,-0.14384 -1.42969,-0.32032 -0.40078,-0.21449 -0.66627,-0.21449 -0.79883,0 -0.10907,0.17648 -0.96551,0.32032 -1.9043,0.32032 -1.21885,0 -1.75964,0.13718 -1.89062,0.47851 -0.15999,0.41693 -2.63509,0.47489 -19.376951,0.45899 -13.36356,-0.0127 -19.39429,0.0893 -19.85157,0.33398 -0.4397,0.23534 -0.65625,0.2413 -0.65625,0.0195 0,-0.19225 -0.82252,-0.33203 -1.95898,-0.33203 -1.67336,0 -2.2252,0.16398 -3.80078,1.12109 l -1.84375,1.119139 -5.87891,0.0293 c -3.23297,0.0153 -7.74911,0.13086 -10.03711,0.25782 -2.288,0.12694 -4.20891,0.11488 -4.26758,-0.0273 -0.0587,-0.14223 -1.14021,-0.25977 -2.40429,-0.25977 -3.23321,0 -4.49211,-0.6935 -4.62891,-2.550779 -0.12605,-1.71132 -0.71713,-2.44202 -2.13086,-2.51563 z M 124.2862,115.16262 h 2.76172 2.76172 l -0.17383,1.30469 c -0.0963,0.71766 -0.40467,1.55704 -0.68359,1.86523 -0.27891,0.3082 -0.50586,0.74758 -0.50586,0.97461 0,0.48205 1.94199,-0.88523 3.3086,-2.32812 0.73003,-0.77077 0.96572,-0.8705 1.19531,-0.50781 0.74174,1.17172 -0.11844,3.60551 -1.38672,3.92382 -4.66413,1.17063 -7.27735,-0.23693 -7.27735,-3.91992 z"
     id="path4831"
     inkscape:connector-curvature="0" />
  <path
     style="fill:#000000;stroke-width:0.32000002"
     d="m 416.51768,108.78646 c -0.4144,0 -1.18489,0.43294 -1.71289,0.96094 -0.528,0.528 -1.07904,0.95899 -1.22266,0.95899 -0.56678,0 -0.86174,1.95395 -0.45508,3.01367 0.17069,0.44482 1.27716,0.50586 9.1211,0.50586 7.69264,0 8.92578,0.0658 8.92578,0.47656 0,0.39465 -0.37688,0.4438 -2.19141,0.2832 -1.7527,-0.15512 -2.22798,-0.0995 -2.37109,0.27344 -0.44012,1.14691 0.23045,1.33106 5.20117,1.4375 2.66368,0.057 5.01424,0.24673 5.22266,0.42187 0.20838,0.17515 0.88204,0.64694 1.49804,1.04688 1.0072,0.65392 1.14495,0.91809 1.35938,2.63281 0.1311,1.04873 0.40073,1.96106 0.59961,2.02735 1.11357,0.37119 1.56054,1.3494 1.56055,3.40625 0,1.14638 0.18039,2.39273 0.40039,2.77148 0.54995,0.94681 1.45453,1.86328 1.83984,1.86328 0.176,0 0.32031,0.11436 0.32031,0.25391 0,0.45678 3.64576,1.50725 5.15235,1.48437 2.6849,-0.0408 5.72828,-1.97945 6.66796,-4.24804 0.23005,-0.55538 0.58064,-1.00878 0.7793,-1.00782 1.14361,0.006 2.77995,0.77545 3.58985,1.68946 1.59881,1.80427 2.0154,3.06196 2.5664,7.74804 0.28973,2.464 0.68753,4.58554 0.88477,4.71485 0.92512,0.60642 6.69168,-0.18889 7.97068,-1.09961 0.8899,-0.63367 0.9133,-0.71782 0.7735,-2.9336 -0.1518,-2.4042 -0.6366,-4.9006 -1.1387,-5.86523 -0.1649,-0.31674 -0.5627,-1.22363 -0.8828,-2.01563 -0.5993,-1.48218 -1.6989,-3.27826 -2.1231,-3.46679 -0.132,-0.0587 -0.2402,-0.24537 -0.2402,-0.41406 0,-0.1687 -0.2799,-0.60816 -0.623,-0.97657 -0.9356,-1.00416 -1.6172,-2.62603 -1.6172,-3.85156 0,-1.84656 -0.9116,-2.49219 -3.51957,-2.49219 -2.00294,0 -2.29234,-0.083 -3.03711,-0.8789 -0.61654,-0.65888 -0.80218,-1.15922 -0.73438,-1.99024 0.083,-1.01824 0.25698,-1.18916 2.0918,-2.06836 2.74957,-1.31751 2.59969,-2.40471 -0.19727,-1.42968 -0.83081,0.28962 -1.16461,0.25613 -1.84765,-0.19141 -0.45814,-0.30019 -0.90248,-0.81433 -0.98828,-1.14258 -0.0859,-0.32825 -0.42873,-0.68337 -0.76172,-0.78906 -0.33299,-0.10569 -0.60547,-0.3261 -0.60547,-0.49024 0,-0.40199 -2.15057,-0.38276 -2.40039,0.0215 -0.12221,0.19775 -2.97189,0.32343 -7.45899,0.32813 -3.99363,0.004 -7.83701,0.14818 -8.54101,0.32031 -0.704,0.17213 -5.42047,0.40773 -10.48047,0.52344 -8.31379,0.19011 -9.19922,0.16069 -9.19922,-0.30275 0,-0.66631 -1.21514,-1.50977 -2.17578,-1.50977 z m 30.59375,15.06446 c 0.21351,0.0309 0.29217,0.15976 0.20508,0.38672 -0.0866,0.22552 0.34868,0.90095 0.96875,1.50195 0.88422,0.85703 1.1289,1.34397 1.1289,2.25976 0,1.31071 -0.76738,2.22657 -1.86523,2.22657 -0.38215,0 -0.69531,0.14431 -0.69531,0.32031 0,0.44417 -1.04271,0.37944 -1.47657,-0.0918 -0.19638,-0.21331 -0.66424,-0.59914 -1.03906,-0.85742 -0.78385,-0.54017 -1.16164,-2.08345 -0.85351,-3.48633 0.15984,-0.72781 0.54881,-1.12955 1.57226,-1.625 0.968,-0.4686 1.69883,-0.68628 2.05469,-0.63477 z m 3.31445,1.89648 1.49414,0.004 c 2.09389,0.007 2.45313,0.32177 2.45313,2.15039 0,1.79856 -0.65936,2.67984 -2.4336,3.25195 -1.87328,0.60405 -2.32402,0.62869 -3.33007,0.18555 -0.93782,-0.4131 -0.94118,-0.42166 -0.15625,-0.45703 1.23616,-0.0557 2.00648,-1.37594 1.98828,-3.41016 z"
     id="path4827"
     inkscape:connector-curvature="0" />
  <path
     style="fill:#000000;stroke-width:0.32000002"
     d="m 194.55717,79.743661 c -0.66317,0.0229 -0.81342,0.52897 -0.9668,2.51758 -0.0858,1.11283 -0.0983,1.12068 -1.76757,1.21679 l -1.67969,0.0957 v 1.25782 1.25585 l 5.83594,0.0859 c 5.26321,0.0787 5.84635,0.1434 5.94336,0.64844 0.0979,0.50934 -0.2565,0.5586 -3.91602,0.5586 -3.36308,0 -4.02344,0.0792 -4.02344,0.48046 0,0.41824 1.56186,0.48047 12.14063,0.48047 8.12373,0 12.21085,0.11143 12.34961,0.33594 0.14433,0.23357 0.33054,0.23236 0.61523,-0.004 0.61252,-0.50835 48.96799,-0.25911 51.53516,0.26563 1.056,0.21584 2.57218,0.53439 3.37109,0.70898 2.4513,0.5357 5.99025,0.92782 11.50781,1.27539 8.32721,0.52456 11.8555,1.08274 13.66407,2.1582 1.4749,0.87706 3.01059,1.41911 6.8164,2.40625 4.45272,1.15494 5.34193,1.29294 12.98047,2.02539 1.49759,0.14361 2.19237,0.0581 3.04102,-0.37695 1.32798,-0.68076 1.56822,-1.00948 1.57421,-2.1543 0.005,-0.83925 0.0773,-0.88086 1.56836,-0.88086 0.85988,0 1.9744,0.2156 2.47852,0.47852 0.50413,0.26291 1.2335,0.4795 1.61914,0.48046 0.3856,10e-4 0.78025,0.12866 0.87695,0.28516 0.0967,0.1565 0.57293,0.37953 1.0586,0.49609 1.02377,0.24572 5.8536,1.96963 7.33203,2.61719 0.55462,0.24292 1.2089,0.44336 1.45508,0.44336 0.24621,0 0.58475,0.12942 0.75195,0.28906 0.1672,0.15965 0.80783,0.43943 1.42383,0.6211 2.46531,0.727039 8.53698,2.899219 9.43945,3.376949 0.528,0.27951 1.35585,0.50881 1.83985,0.50977 0.48399,0.001 0.88085,0.11977 0.88085,0.26367 0,0.1439 1.04432,0.58687 2.32032,0.98437 1.276,0.3975 2.70081,0.92714 3.16797,1.17774 0.46717,0.25059 1.06347,0.45703 1.32421,0.45703 0.26073,0 0.8865,0.2156 1.39063,0.47851 0.50413,0.26292 1.23156,0.47756 1.61719,0.47852 0.3856,0.001 0.79539,0.15419 0.91015,0.33984 0.11472,0.18565 0.73526,0.29389 1.37891,0.24024 l 1.16992,-0.0977 0.20703,-3.03907 c 0.18128,-2.6577 0.7116,-5.502299 1.31055,-7.041009 0.45814,-1.17691 0.89609,-4.56712 0.71484,-5.5332 -0.21865,-1.16555 -0.75201,-1.60494 -2.79492,-2.29688 -3.12986,-1.06009 -13.53612,-1.64893 -20.44141,-1.1582 -8.0805,0.57424 -11.45714,0.55359 -12.5957,-0.0762 -0.528,-0.29205 -1.12822,-0.53225 -1.33398,-0.53321 -0.20573,-0.001 -0.78103,-0.20965 -1.2793,-0.46289 -1.4906,-0.75757 -3.22075,-1.45898 -3.5957,-1.45898 -0.19341,0 -0.35156,-0.13291 -0.35156,-0.29492 -1e-5,-0.16202 -0.39491,-0.38359 -0.87891,-0.49219 -1.32652,-0.29765 -2.30562,-1.18989 -2.38672,-2.17383 -0.0497,-0.60363 -0.25145,-0.8789 -0.64258,-0.8789 -0.31361,0 -0.57031,0.21646 -0.57031,0.48046 0,0.79309 -1.06843,0.51601 -1.90625,-0.49414 -0.7762,-0.93585 -0.8211,-0.94726 -4.06055,-0.94726 -1.8389,0 -3.3636,0.14069 -3.47461,0.32031 -0.29048,0.47 -9.97736,0.42391 -10.26953,-0.0488 -0.28121,-0.45501 -15.15929,-0.0888 -15.63281,0.38477 -0.46619,0.46618 -1.13672,0.36221 -1.13672,-0.17579 0,-0.264 0.14431,-0.48046 0.32031,-0.48046 0.176,0 0.32032,-0.14432 0.32032,-0.32032 0,-0.176 -0.79372,-0.31836 -1.76172,-0.31836 -0.968,0 -1.75977,0.13578 -1.75977,0.30274 0,0.17014 -2.00278,0.37038 -4.55859,0.45508 -2.508,0.0831 -5.70201,0.27226 -7.09571,0.41992 -1.82469,0.19331 -2.63882,0.16391 -2.9082,-0.10547 -0.23456,-0.23456 -0.54087,-0.26921 -0.82422,-0.0898 -0.68525,0.43378 -48.84065,0.38401 -49.10937,-0.0508 -0.15482,-0.25051 -0.31395,-0.25051 -0.56446,0 -0.22564,0.22563 -2.44426,0.34766 -6.31445,0.34766 -5.50773,0 -6.02395,0.0499 -6.70508,0.64062 -0.66115,0.57342 -1.19658,0.63867 -5.15234,0.63867 h -4.41602 l -0.0957,-1.83984 c -0.0905,-1.73573 -0.14524,-1.84495 -0.96484,-1.93945 -0.11714,-0.0135 -0.22167,-0.0208 -0.31641,-0.0176 z m 123.07227,12.4375 c 1.25695,0 1.54531,0.13618 2.25781,1.07031 0.89978,1.17967 1.01244,1.80397 0.43164,2.38477 -0.29866,0.29867 -0.23158,0.38476 0.30469,0.38476 0.53217,0 0.73732,-0.25121 0.89648,-1.09961 0.1138,-0.60458 0.11193,-1.25203 -0.004,-1.43945 -0.11582,-0.18742 -0.002,-0.3418 0.25391,-0.3418 0.50098,0 0.85352,0.66138 0.85352,1.59961 0,0.32196 -0.44287,0.95646 -0.98438,1.41211 h -0.002 c -0.80935,0.68102 -1.30643,0.82817 -2.79883,0.82227 -2.86232,-0.0112 -4.06226,-1.41187 -3.12695,-3.65039 0.44755,-1.07114 0.56904,-1.14258 1.91797,-1.14258 z"
     id="path4821"
     inkscape:connector-curvature="0" />
  <path
     style="fill:#000000;stroke-width:0.32000002"
     d="m 422.92317,27.332595 c -0.96273,-0.003 -2.44556,1.35067 -2.53906,2.74609 -0.0412,0.61475 0.0313,1.11719 0.16211,1.11719 0.13078,0 0.37177,0.46539 0.53516,1.03516 0.40221,1.40242 1.41445,1.83424 4.3164,1.83984 1.77475,0.003 2.55018,0.13536 2.83985,0.48438 0.2191,0.264 0.59545,0.48047 0.83789,0.48047 0.24246,0 0.4414,0.12347 0.4414,0.27343 0,0.14996 2.39548,0.35059 5.32227,0.44727 6.6871,0.22089 6.91961,0.3386 7.1582,3.63086 0.088,1.21421 0.28596,2.40267 0.43946,2.64062 0.58454,0.90627 2.40114,1.32813 5.72851,1.32813 2.16729,0 3.48115,0.13841 3.8086,0.40039 0.52102,0.41685 0.94797,2.08464 1.68359,6.58008 0.23955,1.46398 0.51693,2.74346 0.61523,2.84179 0.0983,0.0983 -0.041,0.60387 -0.31054,1.125 -0.45171,0.8736 -0.44549,0.98336 0.0918,1.39063 0.77149,0.58479 7.02716,0.64898 7.21875,0.0742 0.0709,-0.21281 0.91148,-0.53556 1.86719,-0.71875 1.70167,-0.32617 1.73984,-0.35811 1.83594,-1.51367 0.054,-0.64901 -0.0622,-1.94587 -0.25781,-2.88086 -0.19558,-0.93499 -0.50567,-2.56314 -0.6875,-3.61914 -0.18182,-1.056 -0.46056,-2.05741 -0.6211,-2.22461 -0.16058,-0.1672 -0.29297,-0.48188 -0.29297,-0.69922 0,-0.21735 -0.16578,-0.79947 -0.36914,-1.29492 -0.20336,-0.49546 -0.6178,-1.59602 -0.91992,-2.44532 -0.54825,-1.54129 -0.5477,-1.54637 0.23828,-2.48046 0.51968,-0.61761 1.08787,-0.93555 1.66992,-0.93555 1.33101,0 2.06328,-0.99835 1.85743,-2.5332 -0.0935,-0.69738 -0.39762,-1.7256 -0.67579,-2.28321 -0.35888,-0.71938 -0.41528,-1.18301 -0.19335,-1.59765 0.46735,-0.87329 0.378,-1.812 -0.19336,-2.03125 -0.86678,-0.33262 -1.41407,-0.21471 -1.41407,0.30468 0,0.69691 -0.61617,0.24179 -0.98437,-0.72656 -0.29344,-0.77184 -0.39093,-0.79809 -2.30078,-0.625 -1.09664,0.0994 -2.71375,0.32169 -3.59375,0.49609 -0.91402,0.18115 -8.20516,0.327 -17.00586,0.3379 -13.41069,0.0166 -15.42953,-0.0431 -15.58985,-0.46094 -0.13469,-0.35098 -0.39783,-0.50296 -0.71875,-0.50391 z m 23.15235,9.98242 c 1.24917,-0.0368 1.68164,0.52186 1.68164,2.00586 0,1.10171 -0.15011,1.41802 -0.88086,1.8711 -0.66583,0.4128 -0.74081,0.54828 -0.3086,0.55468 0.77911,0.0116 2.14844,-0.92474 2.14844,-1.46875 0,-0.24375 0.13018,-0.4414 0.28711,-0.4414 0.15693,0 0.37596,-0.36692 0.48828,-0.81446 0.45721,-1.82172 2.10547,-1.17184 2.10547,0.83008 0,0.93425 -0.1968,1.37198 -0.84375,1.88086 -0.69382,0.54576 -1.27401,0.65752 -3.27929,0.63672 -3.58155,-0.0371 -4.51758,-0.56045 -4.51758,-2.5332 0,-1.47331 0.78114,-2.2357 2.5332,-2.47071 0.21292,-0.0286 0.40748,-0.0455 0.58594,-0.0508 z"
     id="path4817"
     inkscape:connector-curvature="0" />
  <path
     style="fill:#000000;stroke-width:0.32000002"
     d="m 110.37591,24.041594 c -0.92522,-0.0128 -2.11206,-0.008 -3.33984,0.0176 l -4.46484,0.0918 -0.65625,1.35937 -0.6543,1.36133 h -6.160165 c -4.69686,0 -6.16945,-0.0954 -6.19531,-0.40039 -0.0186,-0.22 -0.006,-0.79725 0.0254,-1.28125 0.0562,-0.85269 0.007,-0.8789 -1.57617,-0.8789 -1.69199,0 -2.42433,0.59717 -1.66407,1.35742 0.25801,0.25801 0.25757,0.4713 0.002,0.77929 -0.26705,0.32179 -1.68975,0.42383 -5.91992,0.42383 h -5.56836 l -0.30468,0.79883 c -0.29785,0.78339 -0.37387,0.80078 -3.67188,0.80078 -3.3574,0 -3.36719,-0.003 -3.36719,-0.78125 0,-0.42961 -0.15085,-0.87585 -0.33593,-0.99023 -0.4938,-0.30518 -5.63942,-0.25248 -6.12696,0.0625 -0.22908,0.148 -8.19974,0.31662 -17.71094,0.375 l -17.29296,0.10547 -0.30664,-1.38477 c -0.26202,-1.18337 -0.42445,-1.38672 -1.10743,-1.38672 -0.63004,0 -0.87477,0.23459 -1.15625,1.10547 -0.19657,0.60819 -0.52127,1.16009 -0.7207,1.22656 -0.21642,0.0721 -0.36328,0.89464 -0.36328,2.04102 v 1.92187 l 2,-0.15234 c 1.1,-0.0833 2.39686,-0.25649 2.88086,-0.38477 0.85646,-0.22699 0.88086,-0.19732 0.88086,1.09961 0,1.62806 1.08763,2.80106 2.83789,3.0586 0.63857,0.094 1.77123,0.3115 2.51758,0.48437 1.7492,0.40517 15.15628,1.10446 21.36328,1.11328 l 4.80078,0.006 0.10937,-0.77148 c 0.20663,-1.46248 0.69751,-1.62891 4.82422,-1.62891 h 3.85742 l 0.084,11.44141 0.084,11.43945 4.24024,0.0898 4.24023,0.0879 v -7.20898 -7.20899 h 4.09961 c 4.55022,0 5.80006,0.36235 7.53516,2.18555 0.85137,0.8946 0.88696,1.0376 0.53711,2.09766 -0.34457,1.04406 -0.30676,1.21025 0.44726,2.02343 0.81137,0.87502 1.00025,1.61519 0.87305,3.41211 -0.12571,1.77594 0.93242,2.09835 3.12695,0.95313 0.45173,-0.23574 1.00071,-0.42873 1.22071,-0.42969 0.22,-10e-4 0.40039,-0.14627 0.40039,-0.32227 0,-0.176 0.20149,-0.32031 0.44726,-0.32031 0.24577,0 0.91045,-0.52879 1.47852,-1.17578 0.97641,-1.11207 1.02272,-1.27677 0.8418,-3.00781 -0.18183,-1.73965 -1.37192,-4.5625 -2.2168,-5.25586 -0.21446,-0.176 -0.73156,-1.01801 -1.14844,-1.87109 -0.98529,-2.01626 -0.80902,-3.65192 0.54102,-5.00196 0.87269,-0.8727 1.16451,-0.96704 2.99218,-0.96484 1.88453,0.002 2.05151,0.0616 2.423835,0.86328 0.22,0.47371 0.40039,1.01507 0.40039,1.20312 0,0.18806 0.35581,0.86735 0.79102,1.50782 0.81967,1.20625 1.95776,1.75411 5.12891,2.47461 1.50125,0.34109 2.69287,0.5125 9.39843,1.33984 1.96896,0.24293 3.02861,0.55645 4,1.18359 1.85183,1.19556 2.52915,1.60513 3.08203,1.86914 0.264,0.12607 0.55263,0.31561 0.64063,0.42188 0.088,0.10627 1.21347,0.83843 2.50195,1.625 1.28848,0.78657 2.7277,1.68214 3.19922,1.99219 0.47152,0.31005 1.10996,0.65133 1.41796,0.75781 0.308,0.10648 0.56056,0.32109 0.56056,0.47656 0,0.15547 0.1654,0.28321 0.36717,0.28321 0.20179,0 1.1247,0.50314 2.05274,1.11914 0.92804,0.616 1.84303,1.12109 2.0332,1.12109 0.19018,0 0.34571,0.12833 0.34571,0.28711 0,0.15878 0.39685,0.44884 0.88085,0.64258 0.48401,0.19374 1.31186,0.63104 1.83985,0.97265 1.02618,0.66393 1.72235,1.06384 4.00586,2.30274 0.79487,0.43125 1.65551,0.92203 1.91406,1.08984 0.25855,0.16781 1.04928,0.54754 1.75586,0.8457 1.86644,0.78761 2.79595,0.71427 3.76172,-0.30078 1.26664,-1.33127 1.82894,-3.38072 2.04492,-7.4414 0.10766,-2.024 0.39445,-4.46481 0.63672,-5.42578 0.24227,-0.96098 0.4414,-2.50514 0.4414,-3.43164 0,-1.5345 -0.0838,-1.72768 -0.92773,-2.16407 -0.50952,-0.26348 -1.55188,-0.57434 -2.31836,-0.6914 -0.76647,-0.11706 -1.53884,-0.32349 -1.71484,-0.45899 -0.176,-0.1355 -1.03992,-0.35184 -1.91992,-0.47851 -0.88,-0.12668 -1.74393,-0.33595 -1.91993,-0.4668 -0.176,-0.13085 -0.89561,-0.33545 -1.59961,-0.45313 -1.59915,-0.26731 -5.4446,-1.11748 -6.7207,-1.48632 -0.528,-0.15262 -1.60839,-0.36645 -2.40039,-0.47461 -0.792,-0.10817 -2.35038,-0.41123 -3.46484,-0.67383 -1.30836,-0.3083 -3.61194,-0.47284 -6.5,-0.46484 -2.46003,0.007 -4.71618,-0.12079 -5.01368,-0.28321 -0.2975,-0.16241 -1.08023,-0.53359 -1.74023,-0.82617 -1.04566,-0.46355 -1.20117,-0.673 -1.20117,-1.61719 0,-0.74981 0.14831,-1.08203 0.48047,-1.08203 0.29867,0 0.48047,-0.303 0.48047,-0.80078 0,-0.49778 -0.1818,-0.79883 -0.48047,-0.79883 -0.33524,0 -0.48047,-0.33887 -0.48047,-1.12109 0,-1.06667 -0.0525,-1.11914 -1.11914,-1.11914 -0.70592,0 -1.11913,-0.15369 -1.11914,-0.41602 0,-0.84453 -0.82041,-2.16809 -1.44141,-2.32617 -0.176,-0.0448 -0.83845,-0.075 -1.76367,-0.0879 z m -33.916015,12.42969 h 3.02734 c 2.68649,0 3.10078,0.0766 3.66992,0.6875 0.35277,0.37866 0.56496,0.81159 0.47266,0.96094 -0.0923,0.14935 -0.0145,0.27148 0.17187,0.27148 0.47851,0 0.40191,1.64936 -0.10742,2.32032 -0.358,0.47161 -0.96276,0.55859 -3.83008,0.55859 h -3.40429 v -2.39844 z"
     id="path4813"
     inkscape:connector-curvature="0" />
  <path
     style="fill:#000000;stroke-width:0.32000002"
     d="m 196.34647,14.259458 c -0.14201,5.8e-4 -0.29618,0.0237 -0.47461,0.0664 -1.64599,0.39364 -2.00781,0.73217 -2.00781,1.875 0,0.59835 -0.14085,1.45674 -0.3125,1.9082 -0.2819,0.74145 -0.47973,0.82032 -2.04297,0.82032 -1.41738,0 -1.75742,0.10876 -1.88476,0.5957 -0.21611,0.82639 0.25136,1.53753 1.16015,1.76562 0.5665,0.14219 0.82311,0.48797 0.97852,1.31641 l 0.21094,1.12305 h 3.82421 c 3.18711,0 3.82618,0.0786 3.82618,0.47851 0,0.36849 0.40865,0.48047 1.75976,0.48047 0.968,0 1.75977,-0.14431 1.75977,-0.32031 0,-0.34896 6.7362,-0.44472 8.64062,-0.12305 0.8983,0.15173 1.23055,0.4247 1.67969,1.38086 0.308,0.65568 0.56055,1.50633 0.56055,1.88867 0,0.40459 0.20111,0.69336 0.48046,0.69336 0.31547,0 0.47852,-0.31475 0.47852,-0.91992 0,-0.50645 0.21647,-1.09926 0.48047,-1.31836 0.264,-0.2191 0.48047,-0.59739 0.48047,-0.83984 0,-0.36723 2.18352,-0.44141 13.07617,-0.44141 7.19144,0 13.70596,-0.0782 14.47852,-0.17383 1.78982,-0.22142 2.32263,0.14455 2.26953,1.55664 -0.024,0.63784 0.1582,1.28379 0.42578,1.50586 0.25802,0.21414 0.4707,0.87201 0.4707,1.46094 0,0.82033 0.11078,1.02783 0.47852,0.88672 0.26684,-0.1024 0.48047,-0.57744 0.48047,-1.07031 0,-0.48762 0.18039,-1.02622 0.40039,-1.19532 0.45014,-0.34598 7.79324,-0.0798 19.11914,0.69141 9.3852,0.6391 14.26768,1.33942 17.4414,2.50195 0.7336,0.26872 16.17753,0.64287 23.11914,0.56055 0.22,-0.003 0.40039,0.34499 0.40039,0.77148 0,1.57189 2.58505,3.70508 4.49024,3.70508 1.49856,0 4.15039,-1.40258 4.15039,-2.19531 0,-0.2006 0.13096,-0.36523 0.29297,-0.36523 0.16202,0 0.39608,-0.45946 0.51953,-1.02149 0.27842,-1.26766 0.8443,-1.86813 1.44922,-1.53906 0.25179,0.13697 1.10048,0.35463 1.88672,0.48437 2.25595,0.37229 4.10119,1.72158 6.56445,4.80274 0.70037,0.87605 1.41998,1.76853 1.59961,1.98242 0.17963,0.21389 0.50656,0.60451 0.72656,0.86719 0.22,0.26268 0.40039,0.62647 0.40039,0.80859 0,0.21809 1.8292,0.30308 5.35938,0.25195 4.51712,-0.0654 5.63786,0.0169 7.12109,0.51758 2.65021,0.89452 4.12157,1.36077 6.23828,1.97657 1.056,0.30721 2.20855,0.6693 2.56055,0.80468 0.352,0.13539 0.85709,0.31251 1.12109,0.39453 0.264,0.082 0.74013,1.03145 1.0586,2.10938 0.65296,2.21005 1.5,2.70654 1.5,0.87891 0,-2.08841 0.40409,-2.08573 6.65039,0.0254 3.50653,1.18512 5.8591,1.82174 6.16406,1.66992 0.63143,-0.31433 1.20061,-2.56656 1.57031,-6.21289 0.16057,-1.584 0.46035,-4.24988 0.66602,-5.92188 0.20551,-1.672 0.29236,-3.83582 0.19336,-4.81054 -0.18915,-1.86273 -0.98342,-4.13143 -1.59961,-4.56641 -0.20022,-0.14135 -9.29113,-0.21455 -20.20313,-0.16406 l -19.83984,0.0918 -3.04102,-1.47266 c -1.672,-0.80997 -3.472,-1.6033 -4,-1.76172 -0.75347,-0.22607 -0.97797,-0.49335 -1.04687,-1.24219 -0.21693,-2.35883 -0.11526,-2.2813 -3.34766,-2.52343 -4.23543,-0.31727 -4.40625,-0.37893 -4.40625,-1.6211 0,-1.59809 -1.06136,-2.72851 -2.5625,-2.72851 -1.16113,0 -1.24173,0.0625 -1.33594,1.03906 l -0.10156,1.04101 -2.28125,0.0937 c -1.78151,0.0728 -2.4069,0.22956 -2.84961,0.71875 -0.50139,0.55402 -1.00032,0.62696 -4.29687,0.62696 -2.78359,0 -3.88596,-0.11806 -4.34961,-0.46875 -0.43258,-0.32718 -1.4656,-0.47337 -3.40234,-0.48047 -1.52961,-0.006 -2.87074,-0.15373 -2.97852,-0.32813 -0.12875,-0.20832 -12.83992,-0.24829 -37.05859,-0.11914 -35.09129,0.18713 -36.88486,0.22428 -37.3418,0.77735 -0.42518,0.51465 -1.08272,0.58533 -5.75977,0.62695 -10.39638,0.0925 -10.98022,0.0612 -10.70703,-0.56836 0.61598,-1.41954 0.52255,-2.48677 -0.29883,-3.37305 -0.49344,-0.53244 -0.80638,-0.73806 -1.23242,-0.73632 z m 119.26563,16.18946 c 0.80296,0 0.8491,0.0731 0.65429,1.04101 -0.11512,0.572 -0.28048,1.29161 -0.36718,1.59961 -0.24567,0.87253 -0.75477,0.65785 -0.75977,-0.32031 -0.002,-0.484 -0.0911,-1.20361 -0.19727,-1.59961 -0.16516,-0.61634 -0.0686,-0.7207 0.66993,-0.7207 z m -3.41993,0.0176 c 0.32556,0.0296 0.84523,0.29549 1.5,0.79492 1.41888,1.08222 1.73178,2.93732 0.57032,3.3789 -1.51245,0.57504 -3.91797,0.0976 -3.91797,-0.77734 0,-0.24567 0.37664,-0.82391 0.83789,-1.28516 0.55353,-0.55353 0.78125,-1.05668 0.66992,-1.48242 -0.11782,-0.45056 0.0143,-0.65853 0.33984,-0.6289 z"
     id="path4809"
     inkscape:connector-curvature="0" />
</svg>
